<?xml version="1.0" encoding="utf-8"?>
<!-- Generator: Adobe Illustrator 18.1.1, SVG Export Plug-In . SVG Version: 6.00 Build 0)  -->
<svg version="1.1" xmlns="http://www.w3.org/2000/svg" xmlns:xlink="http://www.w3.org/1999/xlink" x="0px" y="0px"
	 viewBox="0 0 710.2 138.2" enable-background="new 0 0 710.2 138.2" xml:space="preserve">
<g id="Background" display="none">
	<rect x="-224.4" y="-2359.1" display="inline" fill="#F4F4F4" width="1159" height="504.5"/>
	<rect x="-224.4" y="-1815.1" display="inline" fill="#F4F4F4" width="1159" height="504.5"/>
	<rect x="-224.4" y="-1271.1" display="inline" fill="#F4F4F4" width="1159" height="504.5"/>
	<rect x="-224.4" y="-727.1" display="inline" fill="#F4F4F4" width="1159" height="504.5"/>
	<rect x="-225.4" y="-727.1" display="inline" fill="#F4F4F4" width="1159" height="504.5"/>
	<rect x="-223.9" y="-727.1" display="inline" fill="#F4F4F4" width="1159" height="504.5"/>
	<rect x="-224.4" y="-183.1" display="inline" fill="#F4F4F4" width="1159" height="504.5"/>
	<rect x="-224.4" y="360.9" display="inline" fill="#F4F4F4" width="1159" height="504.5"/>
</g>
<g id="Logos">
	<g>
		<path fill="#F26649" d="M71.1,20.6c-3.8,1.2-5.9,5.3-4.7,9l4.8,15.1l-5.5,10.5l-14.2-1L29.4,47c-3.8-1.2-7.9,0.8-9.1,4.6
			c-1.2,3.8,0.8,7.9,4.6,9.1l11,3.6l-4.8,4.1c-3,2.6-3.3,7.2-0.7,10.2c2.6,3,7.2,3.3,10.2,0.7l11.9-10.4l11.9,0.8l2.1,6.7l-17.7,4.1
			c-3.9,0.9-6.3,4.8-5.4,8.7c0.9,3.9,4.8,6.3,8.7,5.4l20.1-4.7l7.9,14.8c1.9,3.5,6.2,4.9,9.7,3c2.3-1.2,3.6-3.5,3.8-5.9
			c0.1-1.3-0.2-2.6-0.8-3.9L82.7,78.8l-4.8-15.2l6.4-12.3l31.4-11.9c2.8-1,4.6-3.5,4.8-6.3c0.1-1-0.1-1.9-0.4-2.9
			c-1.3-3.8-5.4-5.7-9.2-4.4L83.7,36.2l-3.5-11C79,21.5,74.9,19.4,71.1,20.6z"/>
		<g>
			<path fill="#333333" d="M160.4,60.6H154c-0.7,0-1.3-0.2-1.7-0.5c-0.4-0.3-0.8-0.8-1-1.3l-2.7-7.5h-15.7l-2.7,7.5
				c-0.2,0.5-0.5,0.9-1,1.2s-1,0.6-1.7,0.6h-6.4l15.4-39.5h8.4L160.4,60.6z M134.9,45.6h11.8l-4.3-12.1c-0.3-0.6-0.5-1.4-0.8-2.2
				c-0.3-0.9-0.6-1.8-0.8-2.7c-0.3,1-0.5,1.9-0.8,2.8c-0.3,0.9-0.5,1.6-0.8,2.2L134.9,45.6z"/>
			<path fill="#333333" d="M171,61c-1.3,0-2.4-0.2-3.4-0.6c-1-0.4-1.8-0.9-2.5-1.6c-0.7-0.7-1.2-1.5-1.5-2.5c-0.3-1-0.5-2.1-0.5-3.3
				V37.9h-2.6c-0.4,0-0.7-0.1-1-0.4c-0.3-0.3-0.4-0.6-0.4-1.1v-2.9l4.5-0.8l1.5-7.3c0.2-0.8,0.8-1.2,1.7-1.2h3.9v8.5h7.2v5.2h-7.2
				v14.6c0,0.8,0.2,1.4,0.6,1.8c0.4,0.5,0.9,0.7,1.6,0.7c0.4,0,0.7,0,0.9-0.1s0.5-0.2,0.7-0.3c0.2-0.1,0.3-0.2,0.5-0.3
				c0.2-0.1,0.3-0.1,0.5-0.1c0.2,0,0.4,0,0.5,0.1c0.1,0.1,0.3,0.3,0.4,0.5l2.3,3.6c-1,0.8-2.2,1.4-3.5,1.8S172.4,61,171,61z"/>
			<path fill="#333333" d="M189.4,20v40.6h-7.5V20H189.4z"/>
			<path fill="#333333" d="M214.2,60.6c-0.7,0-1.2-0.1-1.6-0.3c-0.4-0.2-0.7-0.6-0.9-1.3l-0.6-1.8c-0.7,0.6-1.4,1.2-2.1,1.6
				c-0.7,0.5-1.4,0.9-2.1,1.2c-0.7,0.3-1.5,0.6-2.3,0.7c-0.8,0.2-1.7,0.2-2.7,0.2c-1.2,0-2.4-0.2-3.4-0.5c-1-0.3-1.9-0.8-2.6-1.5
				c-0.7-0.6-1.3-1.4-1.7-2.4c-0.4-1-0.6-2.1-0.6-3.3c0-1,0.3-2.1,0.8-3.1c0.5-1,1.4-2,2.7-2.8c1.3-0.8,3-1.5,5.1-2.1
				c2.1-0.6,4.8-0.9,8-1V43c0-1.8-0.4-3.1-1.1-3.9c-0.7-0.8-1.8-1.2-3.2-1.2c-1,0-1.9,0.1-2.6,0.4c-0.7,0.2-1.3,0.5-1.8,0.8
				c-0.5,0.3-1,0.5-1.5,0.8c-0.5,0.2-1,0.4-1.6,0.4c-0.5,0-1-0.1-1.3-0.4c-0.4-0.3-0.6-0.6-0.9-0.9l-1.3-2.4
				c1.6-1.5,3.5-2.6,5.5-3.3c2-0.7,4.2-1.1,6.5-1.1c1.7,0,3.2,0.3,4.5,0.8c1.3,0.5,2.4,1.3,3.3,2.3c0.9,1,1.6,2.1,2.1,3.5
				c0.5,1.3,0.7,2.8,0.7,4.4v17.6H214.2z M204.3,56c1.2,0,2.3-0.2,3.2-0.7c0.9-0.4,1.8-1.1,2.7-2.1v-4.4c-1.8,0.1-3.4,0.2-4.6,0.5
				c-1.2,0.2-2.2,0.5-2.9,0.9c-0.7,0.4-1.2,0.8-1.5,1.2c-0.3,0.5-0.4,1-0.4,1.5c0,1.1,0.3,1.9,0.9,2.3C202.4,55.7,203.2,56,204.3,56
				z"/>
			<path fill="#333333" d="M240.9,38.3c-0.2,0.3-0.4,0.5-0.6,0.7c-0.2,0.1-0.5,0.2-0.9,0.2c-0.4,0-0.7-0.1-1.1-0.3
				c-0.4-0.2-0.8-0.4-1.3-0.6c-0.5-0.2-1-0.4-1.6-0.6c-0.6-0.2-1.3-0.3-2.1-0.3c-1.2,0-2.2,0.2-2.8,0.7c-0.7,0.5-1,1.2-1,2
				c0,0.6,0.2,1,0.6,1.4c0.4,0.4,0.9,0.7,1.5,1s1.3,0.5,2.1,0.8c0.8,0.2,1.6,0.5,2.5,0.8c0.8,0.3,1.7,0.6,2.5,1
				c0.8,0.4,1.5,0.9,2.1,1.4c0.6,0.6,1.1,1.3,1.5,2.1c0.4,0.8,0.6,1.8,0.6,2.9c0,1.4-0.2,2.6-0.7,3.8c-0.5,1.2-1.2,2.1-2.2,3
				c-1,0.8-2.2,1.5-3.6,2c-1.4,0.5-3.1,0.7-4.9,0.7c-1,0-1.9-0.1-2.9-0.3c-0.9-0.2-1.8-0.4-2.7-0.7s-1.6-0.7-2.4-1.1
				c-0.7-0.4-1.4-0.9-1.9-1.4l1.7-2.8c0.2-0.3,0.4-0.6,0.7-0.8c0.3-0.2,0.7-0.3,1.2-0.3c0.5,0,0.9,0.1,1.3,0.3
				c0.4,0.2,0.8,0.5,1.3,0.7c0.5,0.3,1,0.5,1.7,0.7c0.6,0.2,1.4,0.3,2.4,0.3c0.7,0,1.4-0.1,1.9-0.2c0.5-0.2,1-0.4,1.3-0.7
				s0.6-0.6,0.7-1c0.2-0.4,0.2-0.7,0.2-1.1c0-0.6-0.2-1.1-0.6-1.5c-0.4-0.4-0.9-0.7-1.5-1c-0.6-0.3-1.3-0.6-2.2-0.8
				c-0.8-0.2-1.6-0.5-2.5-0.8c-0.8-0.3-1.7-0.6-2.5-1c-0.8-0.4-1.5-0.9-2.1-1.5c-0.6-0.6-1.1-1.4-1.5-2.2c-0.4-0.9-0.6-2-0.6-3.2
				c0-1.2,0.2-2.3,0.7-3.3c0.5-1,1.1-2,2-2.8c0.9-0.8,2-1.4,3.4-1.9c1.4-0.5,2.9-0.7,4.7-0.7c2,0,3.8,0.3,5.4,1c1.6,0.7,3,1.5,4,2.6
				L240.9,38.3z"/>
			<path fill="#333333" d="M273.1,32.1c2.1,0,4,0.3,5.7,1c1.7,0.7,3.2,1.6,4.4,2.9c1.2,1.2,2.2,2.8,2.9,4.5c0.7,1.8,1,3.8,1,6
				c0,2.2-0.3,4.2-1,6c-0.7,1.8-1.6,3.3-2.9,4.6c-1.2,1.3-2.7,2.2-4.4,2.9c-1.7,0.7-3.6,1-5.7,1c-2.1,0-4-0.3-5.8-1
				c-1.7-0.7-3.2-1.6-4.4-2.9c-1.2-1.3-2.2-2.8-2.9-4.6c-0.7-1.8-1-3.8-1-6c0-2.2,0.3-4.2,1-6c0.7-1.8,1.6-3.3,2.9-4.5
				c1.2-1.2,2.7-2.2,4.4-2.9C269.1,32.4,271,32.1,273.1,32.1z M273.1,55.4c2.1,0,3.7-0.7,4.8-2.2c1-1.5,1.6-3.7,1.6-6.6
				c0-2.9-0.5-5.1-1.6-6.6c-1-1.5-2.6-2.2-4.8-2.2c-2.2,0-3.8,0.7-4.8,2.2c-1,1.5-1.5,3.7-1.5,6.6c0,2.9,0.5,5.1,1.5,6.6
				C269.3,54.6,270.9,55.4,273.1,55.4z"/>
			<path fill="#333333" d="M293.2,60.6V37.9l-2.2-0.4c-0.6-0.1-1-0.3-1.4-0.6c-0.4-0.3-0.5-0.7-0.5-1.2v-3h4.1v-1.8
				c0-1.6,0.2-3,0.7-4.3c0.5-1.3,1.2-2.4,2.1-3.3c0.9-0.9,2.1-1.6,3.4-2.1c1.3-0.5,2.9-0.7,4.5-0.7c0.7,0,1.3,0,1.9,0.1
				c0.6,0.1,1.2,0.2,1.8,0.4l-0.2,3.7c0,0.6-0.3,0.9-0.7,1.1c-0.4,0.2-0.9,0.3-1.5,0.3c-0.8,0-1.4,0.1-2.1,0.2
				c-0.6,0.2-1.1,0.4-1.5,0.8c-0.4,0.4-0.7,0.9-1,1.6c-0.2,0.7-0.3,1.5-0.3,2.5v1.6h7v5.2h-6.7v22.7H293.2z"/>
			<path fill="#333333" d="M331.9,53.9h15.3v6.6h-23.4V21.1h8.2V53.9z"/>
			<path fill="#333333" d="M359.7,24.6c0,0.6-0.1,1.2-0.4,1.8c-0.3,0.5-0.6,1-1,1.4c-0.4,0.4-0.9,0.7-1.5,1
				c-0.6,0.2-1.2,0.4-1.8,0.4c-0.6,0-1.2-0.1-1.8-0.4s-1-0.6-1.5-1c-0.4-0.4-0.7-0.9-1-1.4c-0.2-0.5-0.4-1.1-0.4-1.8
				s0.1-1.2,0.4-1.8c0.2-0.6,0.6-1,1-1.5c0.4-0.4,0.9-0.7,1.5-1s1.1-0.4,1.8-0.4c0.7,0,1.3,0.1,1.8,0.4c0.6,0.2,1.1,0.6,1.5,1
				c0.4,0.4,0.8,0.9,1,1.5C359.6,23.3,359.7,23.9,359.7,24.6z M358.8,32.5v28h-7.5v-28H358.8z"/>
			<path fill="#333333" d="M362.2,32.5h6.2c0.5,0,1,0.1,1.4,0.4c0.4,0.3,0.6,0.6,0.8,1l4.7,13.9c0.3,0.9,0.6,1.9,0.8,2.8
				c0.2,0.9,0.4,1.8,0.6,2.7c0.2-0.9,0.4-1.8,0.7-2.7c0.2-0.9,0.5-1.8,0.9-2.8l4.9-13.9c0.1-0.4,0.4-0.7,0.7-1
				c0.4-0.3,0.8-0.4,1.3-0.4h5.9l-11,28h-6.8L362.2,32.5z"/>
			<path fill="#333333" d="M402.9,24.6c0,0.6-0.1,1.2-0.4,1.8c-0.3,0.5-0.6,1-1,1.4c-0.4,0.4-0.9,0.7-1.5,1
				c-0.6,0.2-1.2,0.4-1.8,0.4c-0.6,0-1.2-0.1-1.8-0.4s-1-0.6-1.5-1c-0.4-0.4-0.7-0.9-1-1.4c-0.2-0.5-0.4-1.1-0.4-1.8
				s0.1-1.2,0.4-1.8c0.2-0.6,0.6-1,1-1.5c0.4-0.4,0.9-0.7,1.5-1s1.1-0.4,1.8-0.4c0.7,0,1.3,0.1,1.8,0.4c0.6,0.2,1.1,0.6,1.5,1
				c0.4,0.4,0.8,0.9,1,1.5C402.7,23.3,402.9,23.9,402.9,24.6z M402,32.5v28h-7.5v-28H402z"/>
			<path fill="#333333" d="M408.4,60.6v-28h4.6c0.9,0,1.6,0.4,1.9,1.3l0.5,2c0.6-0.5,1.1-1,1.8-1.5c0.6-0.5,1.3-0.8,1.9-1.2
				c0.7-0.3,1.4-0.6,2.2-0.8s1.6-0.3,2.6-0.3c1.5,0,2.9,0.3,4.1,0.8c1.2,0.5,2.2,1.3,3,2.2c0.8,0.9,1.4,2.1,1.8,3.4
				c0.4,1.3,0.6,2.7,0.6,4.3v17.8h-7.5V42.8c0-1.6-0.4-2.8-1.1-3.6c-0.7-0.9-1.8-1.3-3.2-1.3c-1.1,0-2.1,0.2-3,0.7
				c-0.9,0.5-1.8,1.1-2.6,1.9v20.2H408.4z"/>
			<path fill="#333333" d="M449.7,32.1c1.2,0,2.3,0.1,3.4,0.4c1.1,0.2,2,0.6,2.9,1h8.2v2.7c0,0.4-0.1,0.8-0.4,1
				c-0.2,0.3-0.6,0.4-1.2,0.6l-2.3,0.5c0.3,0.9,0.5,1.8,0.5,2.9c0,1.4-0.3,2.7-0.9,3.8c-0.6,1.1-1.4,2.1-2.4,2.9
				c-1,0.8-2.2,1.4-3.5,1.8c-1.4,0.4-2.8,0.6-4.4,0.6c-0.5,0-1,0-1.4-0.1c-0.5,0-0.9-0.1-1.4-0.2c-0.7,0.5-1.1,1-1.1,1.5
				c0,0.5,0.3,0.9,0.8,1.1c0.5,0.2,1.2,0.4,2,0.5c0.8,0.1,1.8,0.2,2.9,0.2c1.1,0,2.2,0.1,3.3,0.2c1.1,0.1,2.2,0.2,3.3,0.5
				c1.1,0.2,2,0.6,2.9,1.1c0.8,0.5,1.5,1.2,2,2.1c0.5,0.9,0.8,1.9,0.8,3.3c0,1.3-0.3,2.5-0.9,3.6c-0.6,1.2-1.5,2.2-2.7,3.2
				c-1.2,0.9-2.6,1.7-4.3,2.2c-1.7,0.6-3.6,0.8-5.8,0.8c-2.2,0-4-0.2-5.6-0.6c-1.6-0.4-2.9-1-3.9-1.6c-1-0.7-1.8-1.5-2.3-2.4
				c-0.5-0.9-0.8-1.8-0.8-2.8c0-1.3,0.4-2.3,1.1-3.2c0.8-0.9,1.8-1.6,3.1-2.1c-0.7-0.4-1.3-0.9-1.7-1.6c-0.4-0.6-0.6-1.5-0.6-2.5
				c0-0.8,0.3-1.7,0.9-2.6c0.6-0.9,1.5-1.7,2.8-2.3c-1.4-0.8-2.6-1.8-3.4-3.1c-0.8-1.3-1.2-2.8-1.2-4.5c0-1.4,0.3-2.7,0.9-3.8
				c0.6-1.1,1.4-2.1,2.4-2.9s2.2-1.4,3.6-1.8C446.6,32.3,448.1,32.1,449.7,32.1z M456.8,61.7c0-0.5-0.2-0.9-0.5-1.2
				c-0.3-0.3-0.7-0.6-1.2-0.7c-0.5-0.2-1.1-0.3-1.8-0.4c-0.7-0.1-1.5-0.1-2.3-0.2c-0.8,0-1.6-0.1-2.5-0.1c-0.9,0-1.7-0.1-2.5-0.2
				c-0.6,0.4-1.2,0.8-1.6,1.3c-0.4,0.5-0.6,1.1-0.6,1.8c0,0.5,0.1,0.9,0.3,1.3c0.2,0.4,0.6,0.7,1,1c0.5,0.3,1.1,0.5,1.9,0.6
				c0.8,0.2,1.8,0.2,3,0.2c1.2,0,2.3-0.1,3.1-0.2c0.9-0.2,1.5-0.4,2.1-0.7c0.5-0.3,0.9-0.7,1.1-1.1
				C456.7,62.7,456.8,62.2,456.8,61.7z M449.7,45.5c1.5,0,2.7-0.4,3.4-1.2c0.7-0.8,1.1-1.8,1.1-3c0-1.3-0.4-2.3-1.1-3
				s-1.9-1.1-3.4-1.1s-2.7,0.4-3.4,1.1c-0.7,0.7-1.1,1.7-1.1,3c0,1.2,0.4,2.2,1.1,3S448.1,45.5,449.7,45.5z"/>
			<path fill="#333333" d="M514.8,60.6h-6.3c-0.7,0-1.3-0.2-1.7-0.5c-0.4-0.3-0.8-0.8-1-1.3l-2.7-7.5h-15.7l-2.7,7.5
				c-0.2,0.5-0.5,0.9-1,1.2s-1,0.6-1.7,0.6h-6.4L491,21.1h8.4L514.8,60.6z M489.3,45.6h11.8l-4.3-12.1c-0.3-0.6-0.5-1.4-0.8-2.2
				c-0.3-0.9-0.6-1.8-0.8-2.7c-0.3,1-0.5,1.9-0.8,2.8c-0.3,0.9-0.5,1.6-0.8,2.2L489.3,45.6z"/>
			<path fill="#333333" d="M524,32.5v17.8c0,1.6,0.4,2.8,1.1,3.6c0.7,0.9,1.8,1.3,3.2,1.3c1.1,0,2-0.2,3-0.7
				c0.9-0.5,1.8-1.1,2.6-1.9V32.5h7.5v28h-4.6c-1,0-1.6-0.4-1.8-1.3l-0.5-2c-1.1,1.1-2.4,2-3.7,2.7s-2.9,1-4.7,1
				c-1.5,0-2.9-0.3-4.1-0.8c-1.2-0.5-2.2-1.3-3-2.2c-0.8-0.9-1.4-2.1-1.8-3.4c-0.4-1.3-0.6-2.7-0.6-4.3V32.5H524z"/>
			<path fill="#333333" d="M565.1,38.3c-0.2,0.3-0.4,0.5-0.6,0.7c-0.2,0.1-0.5,0.2-0.9,0.2s-0.7-0.1-1.1-0.3
				c-0.4-0.2-0.8-0.4-1.3-0.6c-0.5-0.2-1-0.4-1.6-0.6c-0.6-0.2-1.3-0.3-2.1-0.3c-1.2,0-2.2,0.2-2.8,0.7c-0.7,0.5-1,1.2-1,2
				c0,0.6,0.2,1,0.6,1.4c0.4,0.4,0.9,0.7,1.5,1c0.6,0.3,1.3,0.5,2.1,0.8c0.8,0.2,1.6,0.5,2.5,0.8c0.8,0.3,1.7,0.6,2.5,1
				c0.8,0.4,1.5,0.9,2.1,1.4c0.6,0.6,1.1,1.3,1.5,2.1c0.4,0.8,0.6,1.8,0.6,2.9c0,1.4-0.2,2.6-0.7,3.8c-0.5,1.2-1.2,2.1-2.2,3
				c-1,0.8-2.2,1.5-3.6,2s-3.1,0.7-5,0.7c-1,0-1.9-0.1-2.9-0.3c-0.9-0.2-1.8-0.4-2.7-0.7c-0.9-0.3-1.7-0.7-2.4-1.1
				c-0.7-0.4-1.4-0.9-1.9-1.4l1.7-2.8c0.2-0.3,0.4-0.6,0.7-0.8c0.3-0.2,0.7-0.3,1.2-0.3c0.5,0,0.9,0.1,1.3,0.3
				c0.4,0.2,0.8,0.5,1.3,0.7c0.5,0.3,1,0.5,1.7,0.7s1.4,0.3,2.4,0.3c0.7,0,1.3-0.1,1.9-0.2c0.5-0.2,1-0.4,1.3-0.7s0.6-0.6,0.7-1
				c0.2-0.4,0.2-0.7,0.2-1.1c0-0.6-0.2-1.1-0.6-1.5c-0.4-0.4-0.9-0.7-1.5-1c-0.6-0.3-1.3-0.6-2.2-0.8c-0.8-0.2-1.6-0.5-2.5-0.8
				c-0.8-0.3-1.7-0.6-2.5-1c-0.8-0.4-1.5-0.9-2.1-1.5c-0.6-0.6-1.1-1.4-1.5-2.2c-0.4-0.9-0.6-2-0.6-3.2c0-1.2,0.2-2.3,0.7-3.3
				c0.5-1,1.1-2,2-2.8c0.9-0.8,2-1.4,3.4-1.9c1.3-0.5,2.9-0.7,4.7-0.7c2,0,3.8,0.3,5.4,1c1.6,0.7,3,1.5,4,2.6L565.1,38.3z"/>
			<path fill="#333333" d="M581.4,61c-1.3,0-2.4-0.2-3.4-0.6c-1-0.4-1.8-0.9-2.5-1.6c-0.7-0.7-1.2-1.5-1.5-2.5
				c-0.3-1-0.5-2.1-0.5-3.3V37.9h-2.6c-0.4,0-0.7-0.1-1-0.4c-0.3-0.3-0.4-0.6-0.4-1.1v-2.9l4.5-0.8l1.5-7.3c0.2-0.8,0.8-1.2,1.7-1.2
				h3.9v8.5h7.2v5.2H581v14.6c0,0.8,0.2,1.4,0.6,1.8c0.4,0.5,0.9,0.7,1.6,0.7c0.4,0,0.7,0,0.9-0.1s0.5-0.2,0.7-0.3
				c0.2-0.1,0.3-0.2,0.5-0.3c0.2-0.1,0.3-0.1,0.5-0.1c0.2,0,0.4,0,0.5,0.1c0.1,0.1,0.3,0.3,0.4,0.5l2.3,3.6c-1,0.8-2.2,1.4-3.5,1.8
				C584.1,60.8,582.8,61,581.4,61z"/>
			<path fill="#333333" d="M592.2,60.6v-28h4.4c0.8,0,1.3,0.1,1.6,0.4c0.3,0.3,0.5,0.7,0.6,1.4l0.4,2.8c0.9-1.6,1.9-2.9,3.1-3.8
				c1.2-0.9,2.5-1.4,4.1-1.4c1.3,0,2.3,0.3,3.1,0.9l-0.5,5.5c-0.1,0.4-0.2,0.6-0.4,0.7c-0.2,0.1-0.4,0.2-0.8,0.2
				c-0.3,0-0.7,0-1.3-0.1c-0.5-0.1-1.1-0.1-1.5-0.1c-1.4,0-2.5,0.4-3.3,1.1c-0.8,0.8-1.5,1.8-2.1,3.1v17.2H592.2z"/>
			<path fill="#333333" d="M631,60.6c-0.7,0-1.2-0.1-1.6-0.3c-0.4-0.2-0.7-0.6-0.9-1.3l-0.6-1.8c-0.7,0.6-1.4,1.2-2.1,1.6
				c-0.7,0.5-1.4,0.9-2.1,1.2c-0.7,0.3-1.5,0.6-2.3,0.7c-0.8,0.2-1.7,0.2-2.7,0.2c-1.2,0-2.4-0.2-3.4-0.5c-1-0.3-1.9-0.8-2.6-1.5
				c-0.7-0.6-1.3-1.4-1.7-2.4c-0.4-1-0.6-2.1-0.6-3.3c0-1,0.3-2.1,0.8-3.1c0.5-1,1.4-2,2.7-2.8c1.3-0.8,3-1.5,5.1-2.1
				c2.1-0.6,4.8-0.9,8-1V43c0-1.8-0.4-3.1-1.1-3.9c-0.7-0.8-1.8-1.2-3.2-1.2c-1,0-1.9,0.1-2.6,0.4c-0.7,0.2-1.3,0.5-1.8,0.8
				c-0.5,0.3-1,0.5-1.5,0.8c-0.5,0.2-1,0.4-1.6,0.4c-0.5,0-1-0.1-1.3-0.4c-0.4-0.3-0.6-0.6-0.9-0.9l-1.3-2.4
				c1.7-1.5,3.5-2.6,5.5-3.3s4.2-1.1,6.5-1.1c1.7,0,3.2,0.3,4.5,0.8c1.3,0.5,2.4,1.3,3.3,2.3c0.9,1,1.6,2.1,2.1,3.5
				c0.5,1.3,0.7,2.8,0.7,4.4v17.6H631z M621.1,56c1.2,0,2.3-0.2,3.2-0.7c0.9-0.4,1.8-1.1,2.7-2.1v-4.4c-1.8,0.1-3.4,0.2-4.6,0.5
				c-1.2,0.2-2.2,0.5-2.9,0.9c-0.7,0.4-1.2,0.8-1.5,1.2c-0.3,0.5-0.4,1-0.4,1.5c0,1.1,0.3,1.9,0.9,2.3C619.1,55.7,620,56,621.1,56z"
				/>
			<path fill="#333333" d="M647.8,20v40.6h-7.5V20H647.8z"/>
			<path fill="#333333" d="M662.7,24.6c0,0.6-0.1,1.2-0.4,1.8s-0.6,1-1,1.4c-0.4,0.4-0.9,0.7-1.5,1c-0.6,0.2-1.2,0.4-1.8,0.4
				c-0.6,0-1.2-0.1-1.8-0.4c-0.6-0.2-1-0.6-1.5-1c-0.4-0.4-0.7-0.9-1-1.4c-0.2-0.5-0.4-1.1-0.4-1.8s0.1-1.2,0.4-1.8
				c0.2-0.6,0.6-1,1-1.5c0.4-0.4,0.9-0.7,1.5-1c0.6-0.2,1.1-0.4,1.8-0.4c0.7,0,1.3,0.1,1.8,0.4c0.6,0.2,1.1,0.6,1.5,1
				c0.4,0.4,0.8,0.9,1,1.5S662.7,23.9,662.7,24.6z M661.8,32.5v28h-7.5v-28H661.8z"/>
			<path fill="#333333" d="M686.8,60.6c-0.7,0-1.2-0.1-1.6-0.3c-0.4-0.2-0.7-0.6-0.9-1.3l-0.6-1.8c-0.7,0.6-1.4,1.2-2.1,1.6
				c-0.7,0.5-1.4,0.9-2.1,1.2c-0.7,0.3-1.5,0.6-2.3,0.7c-0.8,0.2-1.7,0.2-2.7,0.2c-1.2,0-2.4-0.2-3.4-0.5c-1-0.3-1.9-0.8-2.6-1.5
				c-0.7-0.6-1.3-1.4-1.7-2.4c-0.4-1-0.6-2.1-0.6-3.3c0-1,0.3-2.1,0.8-3.1c0.5-1,1.4-2,2.7-2.8c1.3-0.8,3-1.5,5.1-2.1
				c2.1-0.6,4.8-0.9,8-1V43c0-1.8-0.4-3.1-1.1-3.9c-0.7-0.8-1.8-1.2-3.2-1.2c-1,0-1.9,0.1-2.6,0.4c-0.7,0.2-1.3,0.5-1.8,0.8
				c-0.5,0.3-1,0.5-1.5,0.8c-0.5,0.2-1,0.4-1.6,0.4c-0.5,0-1-0.1-1.3-0.4c-0.4-0.3-0.6-0.6-0.9-0.9l-1.3-2.4
				c1.7-1.5,3.5-2.6,5.5-3.3s4.2-1.1,6.5-1.1c1.7,0,3.2,0.3,4.5,0.8c1.3,0.5,2.4,1.3,3.3,2.3c0.9,1,1.6,2.1,2.1,3.5
				c0.5,1.3,0.7,2.8,0.7,4.4v17.6H686.8z M676.9,56c1.2,0,2.3-0.2,3.2-0.7c0.9-0.4,1.8-1.1,2.7-2.1v-4.4c-1.8,0.1-3.4,0.2-4.6,0.5
				c-1.2,0.2-2.2,0.5-2.9,0.9c-0.7,0.4-1.2,0.8-1.5,1.2c-0.3,0.5-0.4,1-0.4,1.5c0,1.1,0.3,1.9,0.9,2.3C675,55.7,675.8,56,676.9,56z"
				/>
		</g>
		<g>
			<path fill="#F26649" d="M140,108.1c-0.5,0-0.9-0.3-1-0.8l-0.4-3.5c-0.7,0.7-1.5,1.4-2.2,2c-0.7,0.6-1.5,1.1-2.3,1.5
				c-0.8,0.4-1.7,0.7-2.6,0.9c-0.9,0.2-1.9,0.3-3,0.3c-0.9,0-1.8-0.1-2.7-0.4c-0.9-0.3-1.6-0.7-2.3-1.2c-0.7-0.6-1.2-1.3-1.6-2.2
				c-0.4-0.9-0.6-1.9-0.6-3.2c0-1.1,0.3-2.2,1-3.2c0.7-1,1.7-1.8,3.1-2.6c1.4-0.7,3.2-1.3,5.4-1.7c2.2-0.4,4.8-0.7,7.9-0.8v-2.8
				c0-2.5-0.5-4.4-1.6-5.8c-1.1-1.3-2.7-2-4.8-2c-1.3,0-2.4,0.2-3.3,0.5c-0.9,0.4-1.7,0.8-2.3,1.2c-0.6,0.4-1.2,0.8-1.5,1.2
				c-0.4,0.4-0.7,0.5-1,0.5c-0.4,0-0.6-0.2-0.8-0.5l-0.5-0.8c1.4-1.4,2.9-2.5,4.5-3.2c1.6-0.7,3.3-1.1,5.3-1.1
				c1.5,0,2.7,0.2,3.8,0.7c1.1,0.5,2,1.1,2.7,2c0.7,0.9,1.3,1.9,1.6,3.1c0.4,1.2,0.5,2.6,0.5,4.1v17.6H140z M129.1,106.7
				c1.1,0,2-0.1,2.9-0.3c0.9-0.2,1.7-0.5,2.4-1c0.8-0.4,1.5-0.9,2.1-1.5c0.7-0.6,1.3-1.2,1.9-1.8v-7c-2.6,0.1-4.8,0.3-6.7,0.6
				c-1.9,0.3-3.4,0.7-4.6,1.3c-1.2,0.5-2.1,1.2-2.7,1.9c-0.6,0.8-0.9,1.6-0.9,2.6c0,0.9,0.1,1.7,0.4,2.4c0.3,0.7,0.7,1.2,1.2,1.6
				c0.5,0.4,1.1,0.7,1.7,0.9C127.7,106.6,128.4,106.7,129.1,106.7z"/>
			<path fill="#F26649" d="M152.5,68.6v39.6h-2.6V68.6H152.5z"/>
			<path fill="#F26649" d="M179.4,108.1c-0.5,0-0.9-0.3-1-0.8l-0.4-3.5c-0.7,0.7-1.5,1.4-2.2,2c-0.7,0.6-1.5,1.1-2.3,1.5
				c-0.8,0.4-1.7,0.7-2.6,0.9c-0.9,0.2-1.9,0.3-3,0.3c-0.9,0-1.8-0.1-2.7-0.4c-0.9-0.3-1.6-0.7-2.3-1.2c-0.7-0.6-1.2-1.3-1.6-2.2
				c-0.4-0.9-0.6-1.9-0.6-3.2c0-1.1,0.3-2.2,1-3.2c0.7-1,1.7-1.8,3.1-2.6c1.4-0.7,3.2-1.3,5.4-1.7c2.2-0.4,4.8-0.7,7.9-0.8v-2.8
				c0-2.5-0.5-4.4-1.6-5.8c-1.1-1.3-2.7-2-4.8-2c-1.3,0-2.4,0.2-3.3,0.5s-1.7,0.8-2.3,1.2c-0.6,0.4-1.2,0.8-1.6,1.2
				c-0.4,0.4-0.7,0.5-1,0.5c-0.4,0-0.6-0.2-0.8-0.5l-0.5-0.8c1.4-1.4,2.9-2.5,4.5-3.2c1.6-0.7,3.3-1.1,5.3-1.1
				c1.5,0,2.7,0.2,3.8,0.7c1.1,0.5,2,1.1,2.7,2c0.7,0.9,1.3,1.9,1.6,3.1c0.4,1.2,0.5,2.6,0.5,4.1v17.6H179.4z M168.5,106.7
				c1.1,0,2-0.1,2.9-0.3c0.9-0.2,1.7-0.5,2.4-1c0.8-0.4,1.5-0.9,2.1-1.5c0.7-0.6,1.3-1.2,1.9-1.8v-7c-2.6,0.1-4.8,0.3-6.6,0.6
				c-1.9,0.3-3.4,0.7-4.6,1.3c-1.2,0.5-2.1,1.2-2.7,1.9c-0.6,0.8-0.9,1.6-0.9,2.6c0,0.9,0.2,1.7,0.4,2.4c0.3,0.7,0.7,1.2,1.2,1.6
				c0.5,0.4,1.1,0.7,1.7,0.9C167.1,106.6,167.8,106.7,168.5,106.7z"/>
			<path fill="#F26649" d="M187,106c0-0.3,0.1-0.7,0.2-1c0.1-0.3,0.3-0.6,0.5-0.8c0.2-0.2,0.5-0.4,0.8-0.5c0.3-0.1,0.6-0.2,1-0.2
				c0.3,0,0.7,0.1,1,0.2c0.3,0.1,0.6,0.3,0.8,0.5c0.2,0.2,0.4,0.5,0.5,0.8c0.1,0.3,0.2,0.6,0.2,1c0,0.4-0.1,0.7-0.2,1
				c-0.1,0.3-0.3,0.6-0.5,0.8s-0.5,0.4-0.8,0.5c-0.3,0.1-0.6,0.2-1,0.2c-0.7,0-1.3-0.2-1.8-0.7C187.2,107.3,187,106.7,187,106z"/>
			<path fill="#F26649" d="M209.6,80.6c1.9,0,3.7,0.3,5.2,1c1.5,0.7,2.8,1.6,3.9,2.8c1.1,1.2,1.9,2.7,2.4,4.4
				c0.6,1.7,0.8,3.6,0.8,5.8c0,2.1-0.3,4-0.8,5.7c-0.6,1.7-1.4,3.2-2.4,4.4c-1.1,1.2-2.3,2.1-3.9,2.8c-1.5,0.7-3.3,1-5.2,1
				c-1.9,0-3.7-0.3-5.2-1c-1.5-0.7-2.8-1.6-3.9-2.8c-1.1-1.2-1.9-2.7-2.4-4.4c-0.6-1.7-0.8-3.6-0.8-5.7c0-2.1,0.3-4,0.8-5.8
				c0.6-1.7,1.4-3.2,2.4-4.4c1.1-1.2,2.4-2.2,3.9-2.8S207.7,80.6,209.6,80.6z M209.6,106.4c1.6,0,3-0.3,4.2-0.8
				c1.2-0.6,2.2-1.3,3-2.4c0.8-1,1.4-2.3,1.8-3.7c0.4-1.5,0.6-3.1,0.6-4.9c0-1.8-0.2-3.4-0.6-4.9c-0.4-1.5-1-2.7-1.8-3.8
				c-0.8-1-1.8-1.8-3-2.4s-2.6-0.8-4.2-0.8s-3,0.3-4.2,0.8c-1.2,0.6-2.2,1.4-3,2.4c-0.8,1-1.4,2.3-1.8,3.8c-0.4,1.5-0.6,3.1-0.6,4.9
				c0,1.8,0.2,3.5,0.6,4.9c0.4,1.5,1,2.7,1.8,3.7c0.8,1,1.8,1.8,3,2.4C206.6,106.2,208,106.4,209.6,106.4z"/>
			<path fill="#F26649" d="M228.7,108.1V81.1h1.4c0.3,0,0.5,0.1,0.7,0.2s0.2,0.3,0.2,0.7l0.2,5.7c0.9-2.2,2-3.9,3.5-5.2
				c1.5-1.2,3.2-1.9,5.4-1.9c0.8,0,1.6,0.1,2.3,0.3c0.7,0.2,1.3,0.4,2,0.7l-0.4,1.8c-0.1,0.3-0.2,0.4-0.5,0.4c-0.1,0-0.3,0-0.5-0.1
				c-0.2-0.1-0.4-0.2-0.7-0.2c-0.3-0.1-0.7-0.2-1.1-0.2c-0.4-0.1-0.9-0.1-1.5-0.1c-2,0-3.7,0.6-5,1.9c-1.3,1.3-2.4,3.1-3.2,5.5v17.6
				H228.7z"/>
			<path fill="#F26649" d="M259.2,80.6c1.2,0,2.3,0.1,3.3,0.4c1,0.3,1.9,0.7,2.7,1.2h6.9v0.9c0,0.5-0.3,0.7-0.8,0.7l-4.1,0.3
				c0.5,0.7,0.9,1.5,1.2,2.3c0.3,0.9,0.4,1.8,0.4,2.8c0,1.3-0.2,2.5-0.7,3.6c-0.5,1.1-1.1,2-2,2.7c-0.8,0.8-1.9,1.3-3,1.8
				c-1.2,0.4-2.5,0.6-3.9,0.6c-1.6,0-3-0.2-4.2-0.7c-0.8,0.4-1.4,1-1.8,1.6s-0.7,1.2-0.7,1.7c0,0.8,0.3,1.4,0.8,1.8
				c0.5,0.4,1.3,0.7,2.2,0.9c0.9,0.2,1.9,0.3,3.1,0.4c1.2,0.1,2.3,0.1,3.5,0.2c1.2,0.1,2.4,0.2,3.5,0.3c1.2,0.2,2.2,0.4,3.1,0.9
				c0.9,0.4,1.6,1,2.2,1.7c0.5,0.7,0.8,1.7,0.8,2.9c0,1.1-0.3,2.2-0.8,3.2c-0.6,1-1.4,1.9-2.4,2.7c-1.1,0.8-2.3,1.4-3.8,1.9
				c-1.5,0.5-3.2,0.7-5.1,0.7c-1.9,0-3.6-0.2-5-0.6c-1.4-0.4-2.6-0.9-3.6-1.6c-1-0.7-1.7-1.4-2.2-2.3c-0.5-0.9-0.7-1.8-0.7-2.8
				c0-1.4,0.5-2.7,1.4-3.7c0.9-1,2.2-1.8,3.9-2.4c-0.9-0.3-1.6-0.8-2.2-1.3c-0.5-0.6-0.8-1.4-0.8-2.4c0-0.4,0.1-0.8,0.2-1.2
				c0.1-0.4,0.4-0.8,0.7-1.2c0.3-0.4,0.6-0.8,1-1.2c0.4-0.4,0.9-0.7,1.4-1c-1.3-0.7-2.3-1.7-3-3c-0.7-1.2-1.1-2.7-1.1-4.3
				c0-1.3,0.2-2.5,0.7-3.5c0.5-1.1,1.1-2,2-2.7c0.8-0.8,1.9-1.3,3.1-1.8C256.5,80.8,257.8,80.6,259.2,80.6z M269.3,110
				c0-0.9-0.2-1.5-0.7-2.1c-0.4-0.5-1-0.9-1.8-1.2c-0.7-0.3-1.6-0.5-2.6-0.6c-1-0.1-2-0.2-3-0.3c-1.1-0.1-2.1-0.1-3.2-0.2
				c-1.1-0.1-2.1-0.2-3-0.3c-0.7,0.3-1.3,0.6-1.9,0.9c-0.6,0.4-1.1,0.8-1.5,1.2c-0.4,0.4-0.7,0.9-1,1.5c-0.2,0.5-0.4,1.1-0.4,1.8
				c0,0.8,0.2,1.5,0.6,2.2c0.4,0.7,1,1.3,1.8,1.8c0.8,0.5,1.8,0.9,2.9,1.2c1.1,0.3,2.5,0.4,3.9,0.4c1.4,0,2.7-0.2,3.8-0.5
				c1.2-0.3,2.2-0.7,3.1-1.3c0.9-0.6,1.6-1.2,2.1-2C269,111.7,269.3,110.9,269.3,110z M259.2,96.2c1.2,0,2.2-0.2,3.1-0.5
				c0.9-0.3,1.7-0.8,2.3-1.4c0.6-0.6,1.1-1.3,1.4-2.1s0.5-1.8,0.5-2.8s-0.2-1.9-0.5-2.8c-0.3-0.8-0.8-1.6-1.4-2.2
				c-0.6-0.6-1.4-1.1-2.3-1.4c-0.9-0.3-1.9-0.5-3.1-0.5c-1.1,0-2.2,0.2-3.1,0.5c-0.9,0.3-1.7,0.8-2.3,1.4c-0.6,0.6-1.1,1.3-1.4,2.2
				c-0.3,0.8-0.5,1.8-0.5,2.8s0.2,1.9,0.5,2.8s0.8,1.6,1.4,2.1c0.6,0.6,1.4,1.1,2.3,1.4C257.1,96,258.1,96.2,259.2,96.2z"/>
			<path fill="#F26649" d="M276.2,106c0-0.3,0.1-0.7,0.2-1c0.1-0.3,0.3-0.6,0.5-0.8c0.2-0.2,0.5-0.4,0.8-0.5c0.3-0.1,0.6-0.2,1-0.2
				c0.3,0,0.7,0.1,1,0.2c0.3,0.1,0.6,0.3,0.8,0.5c0.2,0.2,0.4,0.5,0.5,0.8c0.1,0.3,0.2,0.6,0.2,1c0,0.4-0.1,0.7-0.2,1
				c-0.1,0.3-0.3,0.6-0.5,0.8s-0.5,0.4-0.8,0.5c-0.3,0.1-0.6,0.2-1,0.2c-0.7,0-1.3-0.2-1.8-0.7C276.5,107.3,276.2,106.7,276.2,106z"
				/>
			<path fill="#F26649" d="M305.8,108.1c-0.5,0-0.9-0.3-1-0.8l-0.4-3.5c-0.7,0.7-1.5,1.4-2.2,2c-0.7,0.6-1.5,1.1-2.3,1.5
				c-0.8,0.4-1.7,0.7-2.6,0.9c-0.9,0.2-1.9,0.3-3,0.3c-0.9,0-1.8-0.1-2.7-0.4c-0.9-0.3-1.6-0.7-2.3-1.2c-0.7-0.6-1.2-1.3-1.6-2.2
				c-0.4-0.9-0.6-1.9-0.6-3.2c0-1.1,0.3-2.2,1-3.2c0.7-1,1.7-1.8,3.1-2.6c1.4-0.7,3.2-1.3,5.4-1.7c2.2-0.4,4.8-0.7,7.9-0.8v-2.8
				c0-2.5-0.5-4.4-1.6-5.8c-1.1-1.3-2.7-2-4.8-2c-1.3,0-2.4,0.2-3.3,0.5c-0.9,0.4-1.7,0.8-2.3,1.2c-0.6,0.4-1.2,0.8-1.5,1.2
				c-0.4,0.4-0.7,0.5-1,0.5c-0.4,0-0.6-0.2-0.8-0.5l-0.5-0.8c1.4-1.4,2.9-2.5,4.5-3.2c1.6-0.7,3.3-1.1,5.3-1.1
				c1.5,0,2.7,0.2,3.8,0.7c1.1,0.5,2,1.1,2.7,2s1.3,1.9,1.6,3.1c0.4,1.2,0.5,2.6,0.5,4.1v17.6H305.8z M294.9,106.7
				c1.1,0,2-0.1,2.9-0.3c0.9-0.2,1.7-0.5,2.4-1c0.8-0.4,1.5-0.9,2.1-1.5c0.7-0.6,1.3-1.2,1.9-1.8v-7c-2.6,0.1-4.8,0.3-6.6,0.6
				c-1.9,0.3-3.4,0.7-4.6,1.3c-1.2,0.5-2.1,1.2-2.7,1.9c-0.6,0.8-0.9,1.6-0.9,2.6c0,0.9,0.1,1.7,0.4,2.4s0.7,1.2,1.2,1.6
				c0.5,0.4,1.1,0.7,1.7,0.9C293.5,106.6,294.2,106.7,294.9,106.7z"/>
			<path fill="#F26649" d="M316.9,81.1v17.3c0,2.5,0.6,4.5,1.7,6c1.2,1.4,2.9,2.2,5.3,2.2c1.8,0,3.4-0.4,4.9-1.3
				c1.5-0.9,2.9-2.1,4.1-3.7V81.1h2.6v27.1h-1.4c-0.5,0-0.8-0.2-0.8-0.7l-0.2-4c-1.3,1.6-2.7,2.8-4.3,3.8c-1.6,0.9-3.5,1.4-5.5,1.4
				c-1.5,0-2.8-0.2-4-0.7c-1.1-0.5-2.1-1.2-2.8-2c-0.7-0.9-1.3-2-1.7-3.2s-0.6-2.7-0.6-4.2V81.1H316.9z"/>
		</g>
	</g>
</g>
</svg>
