<?xml version="1.0" encoding="utf-8"?>
<!-- Generator: Adobe Illustrator 18.1.1, SVG Export Plug-In . SVG Version: 6.00 Build 0)  -->
<svg version="1.1" id="Layer_1" xmlns="http://www.w3.org/2000/svg" xmlns:xlink="http://www.w3.org/1999/xlink" x="0px" y="0px"
	 viewBox="0 162.7 846.5 271.8" enable-background="new 0 162.7 846.5 271.8" xml:space="preserve">
<path fill="#637073" d="M23.5,422.7H10l-1.5,3.7c-0.4,1.3-0.9,2.2-0.9,3c0,1.1,0.4,2,1.3,2.4c0.4,0.2,1.7,0.4,3.7,0.7v1.1H0v-1.1
	c1.3-0.2,2.4-0.9,3.3-1.7s2-2.8,3.3-5.7l13.7-30.3h0.4L34.4,426c1.3,3,2.4,4.8,3.3,5.7c0.7,0.7,1.5,0.9,2.6,1.1v1.1H21.8v-1.1h0.7
	c1.5,0,2.6-0.2,3-0.7c0.4-0.2,0.7-0.7,0.7-1.3c0-0.4,0-0.7-0.2-1.1c0-0.2-0.2-0.9-0.9-2.2L23.5,422.7L23.5,422.7z M22.4,420.6
	l-5.7-13.1l-5.9,13.1H22.4L22.4,420.6z"/>
<path fill="#637073" d="M52.5,407.3v3.5c1.3-1.5,2.6-2.6,3.9-3.3c1.3-0.7,2.6-1.1,3.9-1.1c1.7,0,3,0.4,4.1,1.5
	c1.1,0.9,2,2.2,2.2,3.5c0.2,1.1,0.4,3,0.4,6.1v10.2c0,2,0.2,3.3,0.4,3.7c0.4,0.4,1.1,0.9,2.4,0.9v1.1H56.6v-1.1
	c1.1-0.2,1.7-0.4,2.2-1.3c0.2-0.4,0.4-1.5,0.4-3.5v-11.8c0-2.2,0-3.5-0.2-4.1c-0.2-0.7-0.4-1.1-0.9-1.3c-0.4-0.2-0.9-0.4-1.3-0.4
	c-1.5,0-3,1.1-4.6,3.5v14.2c0,2,0.2,3.3,0.4,3.7c0.4,0.4,1.1,0.9,2,1.1v1.1H41.4v-1.1c1.1-0.2,2-0.4,2.4-1.1
	c0.2-0.4,0.4-1.5,0.4-3.7v-14.8c0-2-0.2-3.3-0.7-3.7c-0.4-0.4-1.1-0.9-2.2-0.9v-1.1h11.1V407.3z"/>
<path fill="#637073" d="M107.4,422.7H93.9l-1.5,3.7c-0.4,1.3-0.9,2.2-0.9,3c0,1.1,0.4,2,1.3,2.4c0.4,0.2,1.7,0.4,3.7,0.7v1.1H83.8
	v-1.1c1.3-0.2,2.4-0.9,3.3-1.7c0.9-0.9,2-2.8,3.3-5.7l13.7-30.3h0.4l13.7,31.1c1.3,3,2.4,4.8,3.3,5.7c0.7,0.7,1.5,0.9,2.6,1.1v1.1
	h-18.5v-1.1h1.1c1.5,0,2.6-0.2,3-0.7c0.4-0.2,0.7-0.7,0.7-1.3c0-0.4,0-0.7-0.2-1.1c0-0.2-0.2-0.9-0.9-2.2L107.4,422.7L107.4,422.7z
	 M106.3,420.6l-5.7-13.1l-5.9,13.1H106.3L106.3,420.6z"/>
<path fill="#637073" d="M147.6,407.3v20.5c0,2,0.2,3.3,0.7,3.7c0.4,0.4,1.1,0.9,2.2,0.9v1.1h-10.7v-3.5c-1.3,1.5-2.6,2.6-3.7,3.3
	c-1.3,0.7-2.6,1.1-4.1,1.1c-1.5,0-2.8-0.4-3.9-1.3c-1.1-0.9-2-2-2.4-3.3c-0.4-1.3-0.7-3.3-0.7-6.3v-10.5c0-2-0.2-3.3-0.7-3.7
	c-0.4-0.4-1.1-0.9-2.2-0.9v-1.1h10.7v17.9c0,2,0,3,0.2,3.7c0.2,0.4,0.4,0.9,0.9,1.3c0.4,0.2,0.9,0.4,1.3,0.4c0.7,0,1.3-0.2,1.7-0.4
	c0.7-0.4,1.7-1.5,2.6-3v-13.9c0-2-0.2-3.3-0.7-3.7c-0.4-0.4-1.1-0.9-2.2-0.9v-1.1h10.9V407.3z"/>
<path fill="#637073" d="M168.8,406.4l0.4,8.9h-0.9c-1.1-2.6-2.4-4.6-3.5-5.4c-1.3-0.9-2.4-1.5-3.7-1.5c-0.9,0-1.5,0.2-2,0.9
	c-0.4,0.4-0.9,1.1-0.9,1.7c0,0.4,0.2,1.1,0.7,1.5c0.7,0.9,2.2,2.2,5,3.9c2.8,2,4.6,3.5,5.4,4.8c0.9,1.3,1.3,2.8,1.3,4.4
	s-0.4,2.8-1.1,4.4c-0.7,1.3-1.7,2.4-3,3.3c-1.3,0.7-2.8,1.1-4.4,1.1c-1.3,0-2.8-0.4-5-1.1c-0.7-0.2-0.9-0.2-1.1-0.2
	c-0.7,0-1.1,0.4-1.5,1.3h-0.9l-0.4-9.4h0.9c0.9,2.4,2,4.4,3.5,5.7c1.5,1.3,2.8,2,4.1,2c0.9,0,1.5-0.2,2.2-0.9c0.7-0.7,0.9-1.3,0.9-2
	c0-0.9-0.2-1.7-0.9-2.4s-1.7-1.7-3.7-3c-2.8-2-4.8-3.5-5.7-4.6c-1.3-1.5-2-3.3-2-5c0-2,0.7-3.9,2.2-5.4c1.3-1.7,3.5-2.4,6.1-2.4
	c1.5,0,2.8,0.4,4.1,1.1c0.4,0.2,0.9,0.4,1.3,0.4s0.7,0,0.9-0.2c0.2-0.2,0.4-0.7,1.1-1.3h0.4V406.4z"/>
<path fill="#637073" d="M182.7,397.7v9.6h6.3v2.8h-6.3v16.1c0,1.5,0,2.4,0.2,3c0.2,0.4,0.4,0.9,0.7,1.1c0.4,0.2,0.7,0.4,1.1,0.4
	c1.3,0,2.4-0.9,3.5-2.8l0.9,0.7c-1.5,3.5-3.9,5.4-7.4,5.4c-1.7,0-3-0.4-4.1-1.3s-2-2-2.2-3c-0.2-0.7-0.2-2.4-0.2-5.2v-14.2h-3.5
	v-1.1c2.4-1.7,4.4-3.5,6.1-5.2c1.7-1.7,3-3.9,4.4-6.1h0.7V397.7z"/>
<path fill="#637073" d="M201.7,407.3v5.9c1.7-2.6,3.3-4.6,4.6-5.4c1.3-0.9,2.6-1.3,3.7-1.3s2,0.4,2.4,1.1c0.7,0.7,0.9,1.5,0.9,2.6
	c0,1.3-0.2,2.2-0.9,2.8c-0.7,0.7-1.3,1.1-2.2,1.1c-1.1,0-2-0.2-2.6-0.9c-0.7-0.7-1.1-1.1-1.3-1.1c-0.2-0.2-0.4-0.2-0.7-0.2
	c-0.4,0-1.1,0.2-1.5,0.7c-0.9,0.7-1.3,1.5-1.7,2.8c-0.7,1.7-0.9,3.9-0.9,6.1v6.1v1.5c0,1.1,0,1.7,0.2,2c0.2,0.4,0.7,0.9,1.1,1.1
	c0.4,0.2,1.1,0.4,2.2,0.4v1.1h-14.2v-1.1c1.1,0,2-0.4,2.4-0.9c0.4-0.4,0.7-2,0.7-4.1v-14.6c0-1.5,0-2.4-0.2-2.8
	c-0.2-0.4-0.4-0.9-0.9-1.1c-0.4-0.2-1.1-0.4-2-0.4v-1.1h10.9V407.3z"/>
<path fill="#637073" d="M228,429.7c-3.3,2.8-6.1,4.1-8.7,4.1c-1.5,0-2.8-0.4-3.7-1.5c-1.1-1.1-1.5-2.2-1.5-3.7c0-2,0.9-3.7,2.6-5.4
	c1.7-1.5,5.4-3.7,11.3-6.3v-2.6c0-2-0.2-3.3-0.4-3.7c-0.2-0.4-0.7-0.9-1.3-1.3c-0.7-0.4-1.3-0.7-2-0.7c-1.3,0-2.2,0.2-3,0.9
	c-0.4,0.4-0.7,0.7-0.7,1.1c0,0.4,0.2,0.9,0.9,1.5c0.7,0.9,1.1,1.5,1.1,2.4c0,0.9-0.4,1.7-1.1,2.4c-0.7,0.7-1.5,0.9-2.6,0.9
	s-2.2-0.4-3-1.1c-0.9-0.7-1.1-1.5-1.1-2.4c0-1.3,0.4-2.6,1.5-3.9s2.6-2.2,4.4-2.8c2-0.7,3.9-1.1,5.9-1.1c2.4,0,4.4,0.4,5.9,1.5
	s2.4,2.2,2.8,3.5c0.2,0.9,0.4,2.6,0.4,5.4v10.2c0,1.1,0,2,0.2,2.2c0,0.2,0.2,0.4,0.4,0.7c0.2,0.2,0.4,0.2,0.7,0.2
	c0.4,0,1.1-0.4,1.5-1.1l0.9,0.7c-0.9,1.3-2,2.4-2.8,3c-1.1,0.7-2.2,0.9-3.5,0.9c-1.5,0-2.6-0.4-3.5-1.1
	C228.7,432.1,228.2,431,228,429.7L228,429.7z M228,427.5v-8.7c-2.2,1.3-3.9,2.8-5,4.4c-0.7,1.1-1.1,2-1.1,3c0,0.9,0.2,1.5,0.9,2.2
	c0.4,0.4,1.1,0.7,2,0.7C225.6,429.1,226.7,428.6,228,427.5L228,427.5z"/>
<path fill="#637073" d="M250.9,395.5v32.7c0,2,0.2,3,0.7,3.5c0.4,0.4,1.3,0.9,2.6,0.9v1.1H240v-1.1c1.1,0,2-0.4,2.6-1.1
	c0.4-0.4,0.7-1.5,0.7-3.5v-27.2c0-1.7-0.2-3-0.7-3.5c-0.4-0.4-1.3-0.9-2.4-0.9v-1.1h10.7V395.5z"/>
<path fill="#637073" d="M262.8,394.4c1.3,0,2.2,0.4,3,1.3c0.9,0.9,1.3,2,1.3,3s-0.4,2.2-1.3,3c-0.9,0.9-2,1.3-3,1.3
	c-1.3,0-2.2-0.4-3-1.3c-0.9-0.9-1.3-2-1.3-3s0.4-2.2,1.3-3C260.7,394.9,261.5,394.4,262.8,394.4L262.8,394.4z M266.8,407.3v20.9
	c0,2,0.2,3,0.7,3.5c0.4,0.4,1.3,0.9,2.6,0.9v1.1h-14.2v-1.1c1.1,0,2-0.4,2.6-1.1c0.4-0.4,0.7-1.5,0.7-3.5v-15.2c0-2-0.2-3-0.7-3.5
	c-0.4-0.4-1.3-0.9-2.4-0.9v-1.1H266.8L266.8,407.3z"/>
<path fill="#637073" d="M285.3,429.7c-3.3,2.8-6.1,4.1-8.7,4.1c-1.5,0-2.8-0.4-3.7-1.5c-1.1-1.1-1.5-2.2-1.5-3.7
	c0-2,0.9-3.7,2.6-5.4c1.7-1.5,5.4-3.7,11.3-6.3v-2.6c0-2-0.2-3.3-0.4-3.7c-0.2-0.4-0.7-0.9-1.3-1.3c-0.7-0.4-1.3-0.7-2-0.7
	c-1.3,0-2.2,0.2-3,0.9c-0.4,0.4-0.7,0.7-0.7,1.1c0,0.4,0.2,0.9,0.9,1.5c0.7,0.9,1.1,1.5,1.1,2.4c0,0.9-0.4,1.7-1.1,2.4
	c-0.7,0.7-1.5,0.9-2.6,0.9c-1.1,0-2.2-0.4-3-1.1c-0.9-0.7-1.1-1.5-1.1-2.4c0-1.3,0.4-2.6,1.5-3.9s2.6-2.2,4.4-2.8
	c2-0.7,3.9-1.1,5.9-1.1c2.4,0,4.4,0.4,5.9,1.5c1.5,1.1,2.4,2.2,2.8,3.5c0.2,0.9,0.4,2.6,0.4,5.4v10.2c0,1.1,0,2,0.2,2.2
	c0,0.2,0.2,0.4,0.4,0.7c0.2,0.2,0.4,0.2,0.7,0.2c0.4,0,1.1-0.4,1.5-1.1l0.9,0.7c-0.9,1.3-2,2.4-2.8,3c-1.1,0.7-2.2,0.9-3.5,0.9
	c-1.5,0-2.6-0.4-3.5-1.1C285.9,432.1,285.5,431,285.3,429.7L285.3,429.7z M285.3,427.5v-8.7c-2.2,1.3-3.9,2.8-5,4.4
	c-0.7,1.1-1.1,2-1.1,3c0,0.9,0.2,1.5,0.9,2.2c0.4,0.4,1.1,0.7,2,0.7C282.9,429.1,284,428.6,285.3,427.5L285.3,427.5z"/>
<path fill="#637073" d="M307.9,407.3v3.5c1.3-1.5,2.6-2.6,3.9-3.3c1.3-0.7,2.6-1.1,3.9-1.1c1.7,0,3,0.4,4.1,1.5
	c1.1,0.9,2,2.2,2.2,3.5c0.2,1.1,0.4,3,0.4,6.1v10.2c0,2,0.2,3.3,0.4,3.7c0.4,0.4,1.1,0.9,2.4,0.9v1.1h-13.3v-1.1
	c1.1-0.2,1.7-0.4,2.2-1.3c0.2-0.4,0.4-1.5,0.4-3.5v-11.8c0-2.2,0-3.5-0.2-4.1c-0.2-0.7-0.4-1.1-0.9-1.3c-0.4-0.2-0.9-0.4-1.3-0.4
	c-1.5,0-3,1.1-4.6,3.5v14.2c0,2,0.2,3.3,0.4,3.7c0.4,0.4,1.1,0.9,2,1.1v1.1h-13.3v-1.1c1.1-0.2,2-0.4,2.4-1.1
	c0.2-0.4,0.4-1.5,0.4-3.7v-14.8c0-2-0.2-3.3-0.7-3.7c-0.4-0.4-1.1-0.9-2.2-0.9v-1.1h11.1V407.3z"/>
<path fill="#637073" d="M377.2,394.7v13.5h-1.1c-1.3-3.7-3-6.5-5.7-8.3c-2.6-2-5.2-2.8-8.3-2.8c-2.8,0-5.2,0.9-7.2,2.4
	c-2,1.5-3.3,3.9-3.9,6.8c-0.9,2.8-1.1,5.9-1.1,8.7c0,3.7,0.4,6.8,1.3,9.6c0.9,2.8,2.2,4.8,4.1,6.1s4.1,2,6.8,2c0.9,0,2,0,2.8-0.2
	c0.9-0.2,2-0.4,3-0.9v-7.8c0-1.5,0-2.4-0.2-2.8c-0.2-0.4-0.7-0.9-1.3-1.3c-0.7-0.4-1.3-0.4-2.4-0.4H363v-1.5h18.5v1.1
	c-1.3,0-2.4,0.2-3,0.7c-0.4,0.2-0.9,0.7-1.3,1.5c-0.2,0.4-0.2,1.3-0.2,2.6v7.8c-2.4,1.1-5,2-7.6,2.4c-2.6,0.7-5.4,0.9-8.3,0.9
	c-3.7,0-6.5-0.4-8.9-1.5c-2.4-1.1-4.6-2.2-6.3-3.9c-1.7-1.5-3.3-3.5-4.4-5.4c-1.3-2.6-2-5.4-2-8.7c0-5.7,2-10.7,6.1-14.6
	c3.9-3.9,9.1-5.9,15.2-5.9c2,0,3.5,0.2,5,0.4c0.9,0.2,2.2,0.7,3.9,1.3c2,0.7,3,1.1,3.3,1.1c0.4,0,1.1-0.2,1.5-0.7
	c0.4-0.4,0.9-1.1,1.3-2.2h1.3V394.7z"/>
<path fill="#637073" d="M395.5,406.4c2.2,0,4.4,0.7,6.3,1.7s3.5,2.8,4.4,5c1.1,2.2,1.5,4.6,1.5,7.2c0,3.7-0.9,6.8-2.8,9.4
	c-2.2,3-5.4,4.6-9.4,4.6s-7-1.3-9.1-4.1c-2.2-2.8-3.3-5.9-3.3-9.6s1.1-7,3.3-9.8C388.7,407.9,391.8,406.4,395.5,406.4L395.5,406.4z
	 M395.5,408.4c-0.9,0-1.7,0.4-2.4,1.1c-0.7,0.7-1.1,2.2-1.3,4.4s-0.2,5-0.2,8.9c0,2,0.2,3.9,0.4,5.7c0.2,1.3,0.7,2.4,1.3,3
	c0.7,0.7,1.5,1.1,2.4,1.1c0.9,0,1.5-0.2,2.2-0.7c0.7-0.7,1.3-1.5,1.5-2.6c0.4-1.7,0.7-5.4,0.7-10.9c0-3.3-0.2-5.4-0.4-6.5
	c-0.4-1.1-0.9-2.2-1.5-2.6C397,408.6,396.3,408.4,395.5,408.4L395.5,408.4z"/>
<path fill="#637073" d="M420.3,434.3l-8.9-20.3c-1.1-2.4-2-3.9-2.4-4.6c-0.4-0.4-1.1-0.9-2-1.1v-1.1h13.9v1.1
	c-0.9,0-1.5,0.2-1.7,0.4c-0.4,0.4-0.7,0.9-0.7,1.5c0,0.7,0.4,2,1.3,3.9l4.4,9.8l3.5-8.5c1.1-2.4,1.5-4.1,1.5-5.2
	c0-0.7-0.2-1.1-0.7-1.3c-0.4-0.4-1.1-0.7-2.2-0.7v-1.1h8.5v1.1c-0.9,0.2-1.5,0.4-2,0.9c-0.4,0.4-1.3,2-2.4,4.4l-8.7,20.7
	L420.3,434.3L420.3,434.3z"/>
<path fill="#637073" d="M455.4,419.5H441c0.2,3.5,1.1,6.3,2.8,8.3c1.3,1.5,2.8,2.4,4.6,2.4c1.1,0,2.2-0.2,3-0.9c0.9-0.7,2-1.7,3-3.5
	l0.9,0.7c-1.5,2.8-3,5-4.8,6.1c-1.7,1.1-3.7,1.7-5.9,1.7c-3.9,0-6.8-1.5-8.9-4.6c-1.5-2.4-2.4-5.4-2.4-8.9c0-4.4,1.1-7.8,3.5-10.5
	c2.4-2.6,5.2-3.9,8.3-3.9c2.6,0,5,1.1,7,3.3C454,411.9,455.1,415.1,455.4,419.5L455.4,419.5z M448.4,417.5c0-3-0.2-5-0.4-6.1
	c-0.2-1.1-0.9-2-1.5-2.6c-0.4-0.4-0.9-0.4-1.5-0.4c-0.9,0-1.7,0.4-2.4,1.5c-1.1,1.7-1.7,3.9-1.7,6.8v1.1h7.6V417.5z"/>
<path fill="#637073" d="M467.8,407.3v5.9c1.7-2.6,3.3-4.6,4.6-5.4s2.6-1.3,3.7-1.3c1.1,0,2,0.4,2.4,1.1c0.7,0.7,0.9,1.5,0.9,2.6
	c0,1.3-0.2,2.2-0.9,2.8c-0.7,0.7-1.3,1.1-2.2,1.1c-1.1,0-1.7-0.2-2.6-0.9c-0.7-0.7-1.1-1.1-1.3-1.1c-0.2-0.2-0.4-0.2-0.7-0.2
	c-0.4,0-1.1,0.2-1.5,0.7c-0.9,0.7-1.3,1.5-1.7,2.8c-0.7,1.7-0.9,3.9-0.9,6.1v6.1v1.5c0,1.1,0,1.7,0.2,2c0.2,0.4,0.7,0.9,1.1,1.1
	c0.4,0.2,1.3,0.4,2.2,0.4v1.1h-14.2v-1.1c1.1,0,2-0.4,2.4-0.9c0.4-0.4,0.7-2,0.7-4.1v-14.6c0-1.5,0-2.4-0.2-2.8
	c-0.2-0.4-0.4-0.9-0.9-1.1c-0.4-0.2-1.1-0.4-2-0.4v-1.1h10.9V407.3z"/>
<path fill="#637073" d="M491.9,407.3v3.5c1.3-1.5,2.6-2.6,3.9-3.3c1.3-0.7,2.6-1.1,3.9-1.1c1.7,0,3,0.4,4.1,1.5
	c1.1,0.9,2,2.2,2.2,3.5c0.2,1.1,0.4,3,0.4,6.1v10.2c0,2,0.2,3.3,0.4,3.7c0.4,0.4,1.1,0.9,2.4,0.9v1.1h-13.3v-1.1
	c1.1-0.2,1.7-0.4,2.2-1.3c0.2-0.4,0.4-1.5,0.4-3.5v-11.8c0-2.2,0-3.5-0.2-4.1c-0.2-0.7-0.4-1.1-0.9-1.3c-0.4-0.2-0.9-0.4-1.3-0.4
	c-1.5,0-3,1.1-4.6,3.5v14.2c0,2,0.2,3.3,0.4,3.7c0.4,0.4,1.1,0.9,2,1.1v1.1h-12.8v-1.1c1.1-0.2,2-0.4,2.4-1.1
	c0.2-0.4,0.4-1.5,0.4-3.7v-14.8c0-2-0.2-3.3-0.7-3.7c-0.4-0.4-1.1-0.9-2.2-0.9v-1.1h10.7V407.3z"/>
<path fill="#637073" d="M522.4,407.3v3.5c1.5-1.5,2.8-2.6,3.9-3.3c1.3-0.7,2.6-0.9,4.1-0.9c1.7,0,3,0.4,4.1,1.1c1.1,0.9,2,2,2.6,3.7
	c1.5-1.7,2.8-2.8,4.4-3.7c1.3-0.7,2.8-1.1,4.4-1.1c1.7,0,3.3,0.4,4.4,1.3c1.1,0.9,1.7,2,2.2,3.3c0.4,1.3,0.7,3.3,0.7,6.1V428
	c0,2,0.2,3.3,0.4,3.7c0.4,0.4,1.1,0.9,2.4,0.9v1.1h-13.5v-1.1c1.1,0,2-0.4,2.4-1.3c0.4-0.4,0.4-1.7,0.4-3.5v-11.3
	c0-2.4,0-3.9-0.2-4.4c-0.2-0.7-0.4-1.1-0.9-1.3c-0.4-0.2-0.9-0.4-1.3-0.4c-0.9,0-1.5,0.2-2.4,0.9s-1.7,1.5-2.4,2.6V428
	c0,2,0.2,3,0.4,3.5c0.4,0.7,1.3,1.1,2.4,1.1v1.1h-13.5v-1.1c0.7,0,1.3-0.2,1.7-0.4c0.4-0.4,0.7-0.7,0.9-1.1c0.2-0.4,0.2-1.5,0.2-3
	v-11.3c0-2.4,0-3.9-0.2-4.4c-0.2-0.7-0.4-1.1-0.9-1.3c-0.4-0.4-0.9-0.4-1.3-0.4c-0.7,0-1.5,0.2-2,0.7c-0.9,0.7-1.7,1.5-2.8,3v14.2
	c0,2,0.2,3,0.4,3.7c0.4,0.7,1.1,0.9,2.4,1.1v1.1h-14.2v-1.1c1.1-0.2,2-0.4,2.4-1.1c0.2-0.4,0.4-1.5,0.4-3.7v-14.8
	c0-2-0.2-3.3-0.7-3.7c-0.4-0.4-1.1-0.9-2.2-0.9v-1.1h10.7V407.3z"/>
<path fill="#637073" d="M579.3,419.5h-14.4c0.2,3.5,1.1,6.3,2.8,8.3c1.3,1.5,2.8,2.4,4.6,2.4c1.1,0,2.2-0.2,3-0.9
	c0.9-0.7,2-1.7,3-3.5l0.9,0.7c-1.5,2.8-3,5-4.8,6.1c-1.7,1.1-3.7,1.7-5.9,1.7c-3.9,0-6.8-1.5-8.9-4.6c-1.5-2.4-2.4-5.4-2.4-8.9
	c0-4.4,1.1-7.8,3.5-10.5c2.4-2.6,5.2-3.9,8.3-3.9c2.6,0,5,1.1,7,3.3C578.2,411.9,579.3,415.1,579.3,419.5L579.3,419.5z M572.5,417.5
	c0-3-0.2-5-0.4-6.1s-0.9-2-1.5-2.6c-0.4-0.4-0.9-0.4-1.5-0.4c-0.9,0-1.7,0.4-2.4,1.5c-1.1,1.7-1.7,3.9-1.7,6.8v1.1h7.6V417.5z"/>
<path fill="#637073" d="M591,407.3v3.5c1.3-1.5,2.6-2.6,3.9-3.3c1.3-0.7,2.6-1.1,3.9-1.1c1.7,0,3,0.4,4.1,1.5c1.1,0.9,2,2.2,2.2,3.5
	c0.2,1.1,0.4,3,0.4,6.1v10.2c0,2,0.2,3.3,0.4,3.7c0.4,0.4,1.1,0.9,2.4,0.9v1.1h-13.3v-1.1c1.1-0.2,1.7-0.4,2.2-1.3
	c0.2-0.4,0.4-1.5,0.4-3.5v-11.8c0-2.2,0-3.5-0.2-4.1c-0.2-0.7-0.4-1.1-0.9-1.3c-0.4-0.2-0.9-0.4-1.3-0.4c-1.5,0-3,1.1-4.6,3.5v14.2
	c0,2,0.2,3.3,0.4,3.7c0.4,0.4,1.1,0.9,2,1.1v1.1h-13.3v-1.1c1.1-0.2,2-0.4,2.4-1.1c0.2-0.4,0.4-1.5,0.4-3.7v-14.8
	c0-2-0.2-3.3-0.7-3.7c-0.4-0.4-1.1-0.9-2.2-0.9v-1.1H591V407.3z"/>
<path fill="#637073" d="M619.8,397.7v9.6h6.3v2.8h-6.3v16.1c0,1.5,0,2.4,0.2,3c0.2,0.4,0.4,0.9,0.7,1.1c0.4,0.2,0.7,0.4,1.1,0.4
	c1.3,0,2.4-0.9,3.5-2.8l0.9,0.7c-1.5,3.5-3.9,5.4-7.4,5.4c-1.7,0-3-0.4-4.1-1.3c-1.1-0.9-2-2-2.2-3c-0.2-0.7-0.2-2.4-0.2-5.2v-14.2
	h-3.5v-1.1c2.4-1.7,4.4-3.5,6.1-5.2c1.7-1.7,3-3.9,4.4-6.1h0.7V397.7z"/>
<path fill="#637073" d="M658.1,432.5v1.1h-20v-1.1h1.3c1.1,0,2-0.2,2.6-0.7c0.4-0.2,0.9-0.7,1.1-1.3c0.2-0.4,0.2-1.5,0.2-3.5v-25
	c0-2,0-3.3-0.2-3.7c-0.2-0.4-0.7-0.9-1.3-1.3c-0.7-0.4-1.5-0.7-2.6-0.7h-1.1v-1.1h19.8v1.1h-1.3c-1.1,0-2,0.2-2.6,0.7
	c-0.4,0.2-0.9,0.7-1.1,1.3c-0.2,0.4-0.2,1.5-0.2,3.5v25c0,2,0,3.3,0.2,3.7c0.2,0.4,0.7,0.9,1.3,1.3c0.7,0.4,1.5,0.4,2.6,0.4h1.3
	V432.5z"/>
<path fill="#637073" d="M670.9,407.3v3.5c1.3-1.5,2.6-2.6,3.9-3.3c1.3-0.7,2.6-1.1,3.9-1.1c1.7,0,3,0.4,4.1,1.5
	c1.1,0.9,2,2.2,2.2,3.5c0.2,1.1,0.4,3,0.4,6.1v10.2c0,2,0.2,3.3,0.4,3.7c0.4,0.4,1.1,0.9,2.4,0.9v1.1h-13.3v-1.1
	c1.1-0.2,1.7-0.4,2.2-1.3c0.2-0.4,0.4-1.5,0.4-3.5v-11.8c0-2.2,0-3.5-0.2-4.1c-0.2-0.7-0.4-1.1-0.9-1.3c-0.4-0.2-0.9-0.4-1.3-0.4
	c-1.5,0-3,1.1-4.6,3.5v14.2c0,2,0.2,3.3,0.4,3.7c0.4,0.4,1.1,0.9,2,1.1v1.1h-13.3v-1.1c1.1-0.2,2-0.4,2.4-1.1
	c0.2-0.4,0.4-1.5,0.4-3.7v-14.8c0-2-0.2-3.3-0.7-3.7c-0.4-0.4-1.1-0.9-2.2-0.9v-1.1h11.1V407.3z"/>
<path fill="#637073" d="M697.3,394.4c1.3,0,2.2,0.4,3,1.3c0.9,0.9,1.3,2,1.3,3s-0.4,2.2-1.3,3c-0.9,0.9-2,1.3-3,1.3
	c-1.1,0-2.2-0.4-3-1.3c-0.9-0.9-1.3-2-1.3-3s0.4-2.2,1.3-3C695.1,394.9,696,394.4,697.3,394.4L697.3,394.4z M701.2,407.3v20.9
	c0,2,0.2,3,0.7,3.5c0.4,0.4,1.3,0.9,2.6,0.9v1.1h-14.2v-1.1c1.1,0,2-0.4,2.6-1.1c0.4-0.4,0.7-1.5,0.7-3.5v-15.2c0-2-0.2-3-0.7-3.5
	c-0.4-0.4-1.3-0.9-2.4-0.9v-1.1H701.2L701.2,407.3z"/>
<path fill="#637073" d="M716.2,397.7v9.6h6.3v2.8h-6.3v16.1c0,1.5,0,2.4,0.2,3c0.2,0.4,0.4,0.9,0.7,1.1c0.4,0.2,0.7,0.4,1.1,0.4
	c1.3,0,2.4-0.9,3.5-2.8l0.9,0.7c-1.5,3.5-3.9,5.4-7.4,5.4c-1.7,0-3-0.4-4.1-1.3c-1.1-0.9-2-2-2.2-3c-0.2-0.7-0.2-2.4-0.2-5.2v-14.2
	h-3.5v-1.1c2.4-1.7,4.4-3.5,6.1-5.2c1.7-1.7,3-3.9,4.4-6.1h0.7V397.7z"/>
<path fill="#637073" d="M731.3,394.4c1.3,0,2.2,0.4,3,1.3c0.9,0.9,1.3,2,1.3,3s-0.4,2.2-1.3,3c-0.9,0.9-2,1.3-3,1.3
	c-1.3,0-2.2-0.4-3-1.3c-0.9-0.9-1.3-2-1.3-3s0.4-2.2,1.3-3C729.1,394.9,730,394.4,731.3,394.4L731.3,394.4z M735.2,407.3v20.9
	c0,2,0.2,3,0.7,3.5c0.4,0.4,1.3,0.9,2.6,0.9v1.1h-14.2v-1.1c1.1,0,2-0.4,2.6-1.1c0.4-0.4,0.7-1.5,0.7-3.5v-15.2c0-2-0.2-3-0.7-3.5
	c-0.4-0.4-1.3-0.9-2.4-0.9v-1.1H735.2L735.2,407.3z"/>
<path fill="#637073" d="M754.8,429.7c-3.3,2.8-6.1,4.1-8.7,4.1c-1.5,0-2.8-0.4-3.7-1.5c-1.1-1.1-1.5-2.2-1.5-3.7
	c0-2,0.9-3.7,2.6-5.4c1.7-1.5,5.4-3.7,11.3-6.3v-2.6c0-2-0.2-3.3-0.4-3.7c-0.2-0.4-0.7-0.9-1.3-1.3c-0.7-0.4-1.3-0.7-2-0.7
	c-1.3,0-2.2,0.2-3,0.9c-0.4,0.4-0.7,0.7-0.7,1.1c0,0.4,0.2,0.9,0.9,1.5c0.7,0.9,1.1,1.5,1.1,2.4c0,0.9-0.4,1.7-1.1,2.4
	c-0.7,0.7-1.5,0.9-2.6,0.9c-1.1,0-2.2-0.4-3-1.1c-0.9-0.7-1.1-1.5-1.1-2.4c0-1.3,0.4-2.6,1.5-3.9c1.1-1.3,2.6-2.2,4.4-2.8
	c2-0.7,3.9-1.1,5.9-1.1c2.4,0,4.4,0.4,5.9,1.5c1.5,1.1,2.4,2.2,2.8,3.5c0.2,0.9,0.4,2.6,0.4,5.4v10.2c0,1.1,0,2,0.2,2.2
	c0,0.2,0.2,0.4,0.4,0.7c0.2,0.2,0.4,0.2,0.7,0.2c0.4,0,1.1-0.4,1.5-1.1l0.9,0.7c-0.9,1.3-2,2.4-2.8,3c-1.1,0.7-2.2,0.9-3.5,0.9
	c-1.5,0-2.6-0.4-3.5-1.1C755.4,432.1,755,431,754.8,429.7L754.8,429.7z M754.8,427.5v-8.7c-2.2,1.3-3.9,2.8-5,4.4
	c-0.7,1.1-1.1,2-1.1,3c0,0.9,0.2,1.5,0.9,2.2c0.4,0.4,1.1,0.7,2,0.7C752.4,429.1,753.5,428.6,754.8,427.5L754.8,427.5z"/>
<path fill="#637073" d="M777.2,397.7v9.6h6.3v2.8h-6.3v16.1c0,1.5,0,2.4,0.2,3c0.2,0.4,0.4,0.9,0.7,1.1c0.4,0.2,0.7,0.4,1.1,0.4
	c1.3,0,2.4-0.9,3.5-2.8l0.9,0.7c-1.5,3.5-3.9,5.4-7.4,5.4c-1.7,0-3-0.4-4.1-1.3c-1.1-0.9-2-2-2.2-3c-0.2-0.7-0.2-2.4-0.2-5.2v-14.2
	h-3.5v-1.1c2.4-1.7,4.4-3.5,6.1-5.2c1.7-1.7,3-3.9,4.4-6.1h0.7V397.7z"/>
<path fill="#637073" d="M792.2,394.4c1.3,0,2.2,0.4,3,1.3c0.9,0.9,1.3,2,1.3,3s-0.4,2.2-1.3,3c-0.9,0.9-2,1.3-3,1.3
	c-1.3,0-2.2-0.4-3-1.3c-0.9-0.9-1.3-2-1.3-3s0.4-2.2,1.3-3C790.1,394.9,790.9,394.4,792.2,394.4L792.2,394.4z M796.2,407.3v20.9
	c0,2,0.2,3,0.7,3.5c0.4,0.4,1.3,0.9,2.6,0.9v1.1h-14.2v-1.1c1.1,0,2-0.4,2.6-1.1c0.4-0.4,0.7-1.5,0.7-3.5v-15.2c0-2-0.2-3-0.7-3.5
	s-1.3-0.9-2.4-0.9v-1.1H796.2L796.2,407.3z"/>
<path fill="#637073" d="M812.1,434.3l-8.9-20.3c-1.1-2.4-2-3.9-2.4-4.6c-0.4-0.4-1.1-0.9-2-1.1v-1.1h13.9v1.1
	c-0.9,0-1.5,0.2-1.7,0.4c-0.4,0.4-0.7,0.9-0.7,1.5c0,0.7,0.4,2,1.3,3.9l4.4,9.8l3.5-8.5c1.1-2.4,1.5-4.1,1.5-5.2
	c0-0.7-0.2-1.1-0.7-1.3c-0.4-0.4-1.1-0.7-2.2-0.7v-1.1h8.5v1.1c-0.9,0.2-1.5,0.4-2,0.9c-0.4,0.4-1.3,2-2.4,4.4l-8.7,20.7
	L812.1,434.3L812.1,434.3z"/>
<path fill="#637073" d="M846.5,419.5h-14.4c0.2,3.5,1.1,6.3,2.8,8.3c1.3,1.5,2.8,2.4,4.6,2.4c1.1,0,2.2-0.2,3-0.9
	c0.9-0.7,2-1.7,3-3.5l0.9,0.7c-1.5,2.8-3,5-4.8,6.1s-3.7,1.7-5.9,1.7c-3.9,0-6.8-1.5-8.9-4.6c-1.5-2.4-2.4-5.4-2.4-8.9
	c0-4.4,1.1-7.8,3.5-10.5s5.2-3.9,8.3-3.9c2.6,0,5,1.1,7,3.3C845.4,411.9,846.5,415.1,846.5,419.5L846.5,419.5z M839.7,417.5
	c0-3-0.2-5-0.4-6.1c-0.2-1.1-0.9-2-1.5-2.6c-0.4-0.4-0.9-0.4-1.5-0.4c-0.9,0-1.7,0.4-2.4,1.5c-1.1,1.7-1.7,3.9-1.7,6.8v1.1h7.6
	V417.5z"/>
<path fill="#637073" d="M378.7,327.6c-0.2,0.2-0.4,0.7-0.7,0.7"/>
<path fill="#637073" d="M385.4,276.2c0.7,0,1.3-0.7,1.3-1.3c0-0.9-0.7-1.3-1.3-1.3s-1.3,0.7-1.3,1.3
	C383.9,275.8,384.6,276.2,385.4,276.2L385.4,276.2z"/>
<path fill="#637073" d="M449,218.3L449,218.3h-49.4l0,0l0,0v40.1c0,3.9,1.7,7.2,3.9,8.3l18.9,11.3c0.4,0.4,1.1,0.9,1.7,0.9
	s1.1-0.2,1.5-0.7l19.4-11.5c2.2-1.1,3.9-4.4,3.9-8.3V218.3L449,218.3L449,218.3z M415.9,229.8h-4.4v-10.2h4.4V229.8L415.9,229.8z
	 M412.9,233.3l0.7-0.7l-0.4-0.7h0.9l0.4-0.9l0.4,0.9h0.9l-0.4,0.7l0.7,0.7l-0.9,0.2v0.9l-0.7-0.7l-0.7,0.7v-0.9L412.9,233.3
	L412.9,233.3z M400.9,246.1v-9.8h5.2v9.8H400.9L400.9,246.1z M401.8,232h0.9l0.4-0.9l0.4,0.9h0.9l-0.4,0.7l0.7,0.7l-0.9,0.2v0.9
	l-0.7-0.7l-0.7,0.7v-0.9l-0.9-0.2l0.7-0.7L401.8,232L401.8,232z M407.7,242h0.9l0.4-0.9l0.4,0.9h0.9l-0.4,0.7l0.7,0.7l-0.9,0.2v0.9
	l-0.7-0.7l-0.7,0.7v-1.1l-0.9-0.2l0.7-0.7L407.7,242L407.7,242z M411.1,234.2c0-0.2-0.4-0.4-0.4-0.4c-0.4,0-0.7,0.9-1.1,0.9
	c-0.2,0-0.4,0-0.4-0.2c0-0.2,0.7-0.4,0.9-0.7c-3.3,0-3.3,1.5-3.7,1.5c-0.9,0,0.7-1.5,1.1-2c-0.7,0-1.1-0.9-1.7-1.3
	c0.4-0.4,0.4-0.2,0.9,0c0-0.4,0.2-0.7,1.1-0.7c1.5,0,1.1,1.3,1.3,1.3s0-1.3,0.9-1.3c1.5,0,3.3,3.7,1.5,3.7
	C410.5,234.8,411.1,234.2,411.1,234.2L411.1,234.2z M407.4,223.5l0.7-0.7l-0.4-0.7h0.9l0.4-0.9l0.4,0.9h0.9l-0.4,0.7l0.7,0.7
	l-0.9,0.2v0.9l-0.7-0.7l-0.7,0.7v-0.9L407.4,223.5L407.4,223.5z M406.1,219.6v10.2h-5.2v-10.2H406.1L406.1,219.6z M415.9,272.5
	l-11.8-7.2c-2-1.3-3-3.7-3.3-6.5v-11.3h15V272.5L415.9,272.5z M411.8,246.1v-9.8h4.4v9.8H411.8L411.8,246.1z M431.2,273.1l-5.4,3.3
	l0,0c-0.4,0.2-0.9,0.4-1.5,0.4s-1.1-0.2-1.5-0.4l-5.4-3.3v-25.7h13.9V273.1L431.2,273.1z M431.2,246.1h-13.9v-26.6h13.9V246.1
	L431.2,246.1z M447.7,258.8c-0.2,2.8-1.3,5.2-3.3,6.5l-11.8,7.2v-25h15V258.8L447.7,258.8z M447.7,246.1h-15v-26.6h15V246.1
	L447.7,246.1z"/>
<path fill="#637073" d="M415.3,256.6c0-0.2-2,0.7-1.3,0.7c0-0.4,1.1-1.5,1.5-2c0-0.7-0.9,0-1.7,0.4c2.8-4.1,1.1-2.4-0.7-2.2
	c2.6-2.6,2-2.6,0-1.7c1.5-1.1,1.7-2.6,1.5-2.8c-1.3,1.7-2.6,1.5-2.6,3.3c0,1.1-0.4,3-0.9,3.5c-0.7,0.9-0.2-3-2.2-3
	c-0.7,0-2.2,0-2.6,0.7c0.4,0,1.1,1.1,1.1,1.3c0,0.4,0.4,1.5-0.2,1.5c-0.7,0-1.5-1.3-1.5-2c0-0.7,0-0.4,0-1.5c0-1.5-2.6-3.9-3.7-3.9
	c0,1.1,1.5,1.3,1.5,2.8c-0.7,0-1.5-1.1-1.5-0.4c0,0.7,0.9,0.9,0.9,1.5s-1.1-0.2-1.1,0.4c0,0.7,0.7,0.4,0.7,1.1
	c-0.4-0.2-0.9,0-0.9,0.2c0,0.2,0.2,0.4,0.4,0.7c-0.2,0.2-0.2,0.4-0.2,1.3c0,3.3,2,4.6,3.5,4.6c1.1,0,0.9-0.7,1.1-1.1
	c0,0.4,0.7-0.2,0.7,0.7s-1.1,0.7-1.1,1.3c0,1.1,1.5,0,1.5,1.3c0,1.5-0.2,1.5-0.2,2c0,0.4,1.7-0.7,1.5-0.7c0.4,0.2,0.4,1.3,1.1,1.3
	c0.4,0,0.7-1.3,0.9-1.3c-0.2,0,1.5,1.1,1.5,0.7c0-1.5-0.7-0.9-0.7-2c0-0.9,2-0.7,1.7-1.3c-0.2-0.4-0.4-0.2-0.7-0.9
	c0,0.2-1.5-2.4,0.4-1.1C415.1,261.4,415.3,256.8,415.3,256.6L415.3,256.6z"/>
<path fill="#637073" d="M468,267c0.9,0,1.5-0.7,1.5-1.5c0-0.9-0.7-1.5-1.5-1.5c-0.9,0-1.5,0.7-1.5,1.5
	C466.5,266.4,467.1,267,468,267L468,267z"/>
<path fill="#637073" d="M461.4,271c0.9,0,1.5-0.7,1.5-1.5s-0.7-1.5-1.5-1.5s-1.5,0.7-1.5,1.5C459.7,270.3,460.6,271,461.4,271
	L461.4,271z"/>
<path fill="#637073" d="M383.1,280.1c0.9,0,1.5-0.7,1.5-1.5c0-0.9-0.7-1.5-1.5-1.5s-1.5,0.7-1.5,1.5S382.2,280.1,383.1,280.1
	L383.1,280.1z"/>
<path fill="#637073" d="M388.3,280.5c0.9,0,1.5-0.7,1.5-1.5c0-0.9-0.7-1.5-1.5-1.5s-1.5,0.7-1.5,1.5
	C386.5,279.9,387.4,280.5,388.3,280.5L388.3,280.5z"/>
<path fill="#637073" d="M529.2,212.2c2.4,2.8,2.8,7.4,1.3,10.9c-0.9,0-0.9-1.3-0.9-2c-1.7-3.3-3-7.4-1.5-10.9
	C529,210.2,528.5,211.5,529.2,212.2L529.2,212.2z"/>
<path fill="#637073" d="M322.3,216.1c-0.4,2.2-0.4,5,0,7c-0.4,0.4-0.4-0.4-0.9-0.4c-3.3-2.4-1.7-7.2-2.6-10.7
	c0.2-0.2,0.7-0.4,0.9-0.2C321.4,212.8,322.1,214.3,322.3,216.1L322.3,216.1z"/>
<path fill="#637073" d="M536.6,216.3c0.4,0.9-0.4,2-1.1,2.4c-0.9,0.2-1.7-0.2-2.2-0.9c-0.2-0.9,0.2-1.7,1.1-2.2
	C535.3,215.4,536.1,215.7,536.6,216.3L536.6,216.3z"/>
<path fill="#637073" d="M317.1,220.2c-0.2,0.9-0.4,1.5-1.1,2c-0.4,0-1.3,0-1.7-0.4c-0.4-0.4-0.7-1.3-0.4-1.7
	c0.4-0.7,1.1-0.7,1.7-0.9C316.2,219.4,316.9,219.4,317.1,220.2L317.1,220.2z"/>
<path fill="#637073" d="M539.8,221.5c0.2,0.4,0.2,0.9,0,1.3c-0.7,0.9-1.5,1.1-2.4,0.9c-0.7-0.4-0.9-0.9-0.9-1.5
	c0.2-0.7,0.9-1.3,1.5-1.5C539,220.7,539.4,221.1,539.8,221.5L539.8,221.5z"/>
<path fill="#637073" d="M535.1,221.7c0.7,0.4,0.2,1.3,0,1.7c-0.4,0.4-1.1,1.1-1.7,0.9c-0.4-0.4-0.9-0.4-1.1-1.1c0-0.9,0.4-1.7,1.3-2
	C534,221.1,534.4,221.5,535.1,221.7L535.1,221.7z"/>
<path fill="#637073" d="M528.7,223.1c0,0.9,0,2.2-1.1,2.4c-1.1,0.4-1.7-0.4-2-1.3c0-0.9,0.4-1.7,1.3-2.2
	C527.7,222,528.3,222.4,528.7,223.1L528.7,223.1z"/>
<path fill="#637073" d="M326.4,223.5c0.2,0.9-0.7,1.3-1.1,1.7c-0.7,0.2-1.3-0.4-1.7-0.9c-0.7-0.7,0.2-1.1,0.4-1.7
	C324.9,222,326.2,222.4,326.4,223.5L326.4,223.5z"/>
<path fill="#637073" d="M321.4,223.7c0,0.7-0.4,1.3-0.9,1.7c-0.7,0.2-1.3-0.2-1.7-0.9c-0.4-0.9,0-1.7,0.9-2
	C320.3,222.2,321,223.1,321.4,223.7L321.4,223.7z"/>
<path fill="#637073" d="M507.8,224.1c0.9,1.7,1.5,3.9,1.7,6.3c-0.4,1.7,0.2,3.9-0.9,5c-1.3-0.4-1.3-2-2.2-2.6
	c-1.5-3-0.2-6.5,0.4-9.6C507.6,222.8,507.6,223.7,507.8,224.1L507.8,224.1z"/>
<path fill="#637073" d="M317.3,225c0.2,1.1-0.4,1.5-1.1,2.2c-1.1,0.2-1.7-0.4-2.2-1.3c0-0.9,0.4-1.7,1.1-2.2
	C316,223.9,316.9,224.4,317.3,225L317.3,225z"/>
<path fill="#637073" d="M521.6,227.6c1.1,2.6,1.3,5.7,0.4,8.3l-0.4,0.4c-1.3-2.4-2.8-4.6-3.5-7c0-1.7,0.4-3.5,1.1-5
	c0.7-0.4,0.9,0,1.3,0.7C520.2,225.9,520.7,227.2,521.6,227.6L521.6,227.6z"/>
<path fill="#637073" d="M532.4,226.1c0,0.9-0.4,1.7-1.3,2.2c-0.9,0.2-1.7,0-2-1.1c-0.2-0.9,0.2-1.7,0.9-2.2
	C530.9,224.6,532,225.4,532.4,226.1L532.4,226.1z"/>
<path fill="#637073" d="M321.4,228.7c0,0.7-0.7,1.5-1.3,1.7c-0.7,0.4-1.3-0.4-1.7-0.7c-0.2-0.7-0.4-1.3,0-2c0.2-0.4,0.9-0.4,1.3-0.7
	C320.6,227.6,321.2,227.8,321.4,228.7L321.4,228.7z"/>
<path fill="#637073" d="M325.1,228.3c0.4,0.9-0.7,1.3-0.9,1.7c-1.1,0.4-1.5-0.4-2-1.1c-0.2-0.9,0.4-1.3,0.9-2
	C324.3,226.8,324.7,227.6,325.1,228.3L325.1,228.3z"/>
<path fill="#637073" d="M534.8,228.1c0,1.1-1.7,2.2-2,3.5c-0.9,2.4-3,4.1-5.4,4.8c-0.4,0.4-1.3,1.1-2,1.1c-0.2-1.7,1.3-3.3,2.4-4.8
	C529.6,230.2,532,228.7,534.8,228.1L534.8,228.1z"/>
<path fill="#637073" d="M319.7,231.8c1.3,1.5,2,2.8,3.5,4.1c0,0.4-0.2,0.9-0.7,0.9c-4.1-0.2-7.2-4.6-9.1-7.6c0.2-0.9,1.3-0.2,2-0.2
	C316.9,229.8,318.6,230.2,319.7,231.8L319.7,231.8z"/>
<path fill="#637073" d="M535.9,232.9c-0.2,3.7-2,7.6-5.4,9.4c-0.9,0.4-2,1.3-2.8,0.7c1.7-3.7,4.6-6.8,7.6-10H535.9L535.9,232.9z"/>
<path fill="#637073" d="M519.4,235.5c0.2,1.3-0.4,2.2-1.5,2.6c-0.9,0-1.5-0.7-2-1.3c0-0.9,0.4-1.7,1.3-2c0.2-0.2,0.7-0.2,1.1-0.2
	C518.7,234.6,518.9,235,519.4,235.5L519.4,235.5z"/>
<path fill="#637073" d="M314.9,236.3c1.7,1.1,3,2.6,4.6,4.1c-1.1,0.9-2.6,0-3.7,0c-2.8-1.1-5-3.5-7.8-4.4c0-0.9,1.3-0.7,1.7-0.9
	C311.6,235,313.1,235.9,314.9,236.3L314.9,236.3z"/>
<path fill="#637073" d="M339.7,237.9c0,1.1-0.4,1.7-1.3,2c-0.7-0.2-1.3-0.4-1.7-1.1c-0.4-0.9,0.4-1.7,1.3-2
	C338.8,237,339.7,237,339.7,237.9L339.7,237.9z"/>
<path fill="#637073" d="M334.3,237.9c0.4,0.4,0.7,1.3,0.4,2c-0.7,0.4-1.5,0.9-2.2,0.2c-0.4-0.4-1.1-1.1-0.7-1.7
	C332.5,237.6,333.4,237.2,334.3,237.9L334.3,237.9z"/>
<path fill="#637073" d="M520.2,240.3c0.4,0.9-0.4,1.7-1.1,2c-0.9-0.2-2-0.4-2-1.5c0-0.7,0.7-1.1,1.3-1.3
	C519.2,239.2,519.8,239.8,520.2,240.3L520.2,240.3z"/>
<path fill="#637073" d="M524.8,240c0.2,0.4,0.9,1.1,0.2,1.5c-0.4,0.2-0.7,0.4-0.9,0.7c-0.9,0.2-1.7-0.2-2.2-1.1
	c-0.2-0.9,0.7-1.3,1.3-1.7C523.9,239.4,524.4,239.8,524.8,240L524.8,240z"/>
<path fill="#637073" d="M312.5,241.1c-0.4,1.1-1.3,1.5-2.4,1.1c-0.2-0.2-0.4-0.7-0.7-1.1c0-0.7,0.2-1.3,0.9-1.5
	C311.4,239.8,312.3,240.3,312.5,241.1L312.5,241.1z"/>
<path fill="#637073" d="M341.7,242.7c0,0.7-0.9,1.3-1.5,1.7c-0.9,0-1.5-0.7-2-1.3c0-0.7,0.4-1.5,1.1-1.7
	C340.2,240.9,341.2,241.6,341.7,242.7L341.7,242.7z"/>
<path fill="#637073" d="M336.5,242c0.2,0.2,0.4,0.9,0.2,1.3c-0.4,0.4-1.3,1.3-2.2,0.7c-0.4-0.4-1.1-0.9-0.9-1.7
	c0.4-0.4,0.9-0.9,1.3-1.1C335.6,241.1,336,241.6,336.5,242L336.5,242z"/>
<path fill="#637073" d="M538.1,243.1c0,0.7-0.7,1.3-1.1,1.7c-0.7,0.2-1.5,0-2-0.4c-0.4-0.2-0.4-0.9-0.4-1.3c0.4-0.7,1.1-0.9,1.7-1.1
	C537,242,537.7,242.4,538.1,243.1L538.1,243.1z"/>
<path fill="#637073" d="M543.5,243.7c-0.2,0.9-0.9,1.5-1.7,1.5c-0.4,0-1.5-0.2-1.3-1.1c0-0.7,0.4-1.3,0.9-1.3
	C542.2,242.4,543.3,242.9,543.5,243.7L543.5,243.7z"/>
<path fill="#637073" d="M322.3,245c0.2,1.1-0.2,1.7-1.1,2.2c-0.7,0.4-1.3,0-1.7-0.4c-0.4-0.4-0.9-1.1-0.4-1.7
	c0.2-0.9,0.9-0.7,1.5-0.9C321.4,244.2,321.9,244.4,322.3,245L322.3,245z"/>
<path fill="#637073" d="M326.7,245.9c0.2,0.7-0.4,0.9-0.7,1.5c-0.4,0.2-1.1,0.4-1.5,0.2c-0.7-0.4-1.3-1.3-0.7-2.2
	C324.3,244.2,326.2,244.8,326.7,245.9L326.7,245.9z"/>
<path fill="#637073" d="M532.9,245.5c0,0.9-0.7,1.5-1.3,2c-0.9,0.2-1.5-0.4-1.7-1.1c0-0.7,0.4-1.3,0.9-1.7
	C531.8,244.6,532.4,244.6,532.9,245.5L532.9,245.5z"/>
<path fill="#637073" d="M540.1,246.8c-0.2,0.9,0,1.7-0.9,2.2c-0.7,0.2-1.5,0-2.2-0.4c-0.4-0.4-0.7-1.3-0.4-1.7
	c0.4-0.7,1.3-1.3,2.2-1.1C539.4,246.1,539.4,246.6,540.1,246.8L540.1,246.8z"/>
<path fill="#637073" d="M319,248.5c0.4,0.7-0.4,0.9-0.7,1.3c-0.7,0.4-1.3,0-1.7-0.2c-0.7-0.4-0.4-1.3-0.2-1.7
	C317.1,246.6,318.8,247.7,319,248.5L319,248.5z"/>
<path fill="#637073" d="M534.6,250.3c0.4,0,0.2,0.7,0,0.9c-2.2,1.1-5.2,1.3-7-0.4c-1.1-0.9-2.4-1.3-3.5-2c0.4-1.1,2-1.1,3-1.3
	C529.8,247.9,531.8,250.3,534.6,250.3L534.6,250.3z"/>
<path fill="#637073" d="M323.2,249.4c0.2,0.7-0.4,0.9-0.4,1.5c-0.4,0.4-1.1,0.4-1.5,0.2c-0.9-0.4-1.1-1.5-0.7-2.2
	C321.6,248.1,322.7,248.5,323.2,249.4L323.2,249.4z"/>
<path fill="#637073" d="M330.8,250.1c0.4,0.9-0.2,1.5-0.9,2c-0.7,0.4-1.1-0.2-1.7-0.2c-0.4-0.7-1.3-1.3-0.4-2
	C328.6,248.3,330.1,249,330.8,250.1L330.8,250.1z"/>
<path fill="#637073" d="M430.7,253.8c-0.2,1.7-3-0.2-2.6,2c0.4,1.7,0.7,3.7,1.7,4.8c0.9,1.1,0.4,3,0.4,4.4c-0.7,1.3-2,2.2-3.3,2.8
	c-2.4-0.2-6.1,1.3-7.2-1.7c-0.4-1.3-1.3-2.6-1.3-4.1c0.2-0.2,0.7-0.2,0.9-0.4c0-0.7-0.7-0.9-0.7-1.5c2.8-0.4-1.1-3,1.3-3
	c2,2,5.2,1.3,7,3.7c0.4,0.4,0.7,0.9,1.3,1.1c-0.4-2-1.3-4.1-1.7-6.3c-0.2-1.1,0.2-2.2,1.1-2.8C428.6,251.1,429.9,252.7,430.7,253.8
	L430.7,253.8z"/>
<path fill="#637073" d="M338.4,253.1c0.2,0.9-0.4,1.3-0.9,1.7c-0.9,0.4-1.3-0.4-1.5-0.9c-0.2-0.9,0.4-1.3,0.9-1.7
	C337.3,252.2,338,252.5,338.4,253.1L338.4,253.1z"/>
<path fill="#637073" d="M391.8,254c1.1,3.5,0.7,7-1.1,9.8c0,0.7,0.2,1.7-0.9,1.7c-2.4-3.3-0.7-7.8,0.4-11.1
	C390.5,253.5,391.5,253.1,391.8,254L391.8,254z"/>
<path fill="#637073" d="M465.6,255.7c1.3,2.4,1.3,5.7,0.2,8.1l-0.7,0.7c-0.9-2-1.7-3.9-2-6.1c0.4-1.5,0.9-3,1.1-4.6
	C465.4,253.3,465.4,254.8,465.6,255.7L465.6,255.7z"/>
<path fill="#637073" d="M345.2,256.6c-0.4,1.1-2,1.3-2.8,2c-2.2,1.5-5,2-7.6,1.5c2.2-3,5.7-5,9.8-4.1
	C344.5,256.4,344.9,256.2,345.2,256.6L345.2,256.6z"/>
<path fill="#637073" d="M309.7,259.6c3.3,2.2,4.1,5.4,5.9,8.5c0.2,0.4,1.1,0.4,0.9,1.1c-0.7,0.4-1.3-0.4-2.4-0.4
	c-3.3-1.5-5.4-5.2-5.2-8.9C308.8,259.6,309.2,259.6,309.7,259.6L309.7,259.6z"/>
<path fill="#637073" d="M462.3,262.5c0,0.9,0,1.7-0.9,2c-0.9,0.2-1.7-0.2-2-1.1c-0.2-0.7,0.2-0.9,0.4-1.3
	C460.6,261.4,461.9,261.6,462.3,262.5L462.3,262.5z"/>
<path fill="#637073" d="M541.2,263.6c-2.8,3.9-5.7,8.3-10.5,9.8c-0.4,0-0.7,0.2-0.9-0.2c2.8-3,4.6-8.1,9.1-9.1
	C539.6,263.6,540.5,263.3,541.2,263.6L541.2,263.6z"/>
<path fill="#637073" d="M305.5,267.9c-0.4,0.4,0,1.1-0.9,1.3c-0.7,0.4-1.5,0-1.7-0.9c-0.4-0.9,0.4-1.7,1.1-2
	C304.7,266.8,305.3,267,305.5,267.9L305.5,267.9z"/>
<path fill="#637073" d="M330.4,269.2c0.2,0.9-0.7,0.9-1.1,0.9c-3.7,1.3-7.4,0-10-2.6c0-0.4,0-0.7,0.4-0.9
	C323.2,267.7,327.3,267,330.4,269.2L330.4,269.2z"/>
<path fill="#637073" d="M310.1,267.9c0.2,0.4,0.2,0.9,0.2,1.3c-0.4,0.9-1.3,0.9-2.2,0.9c-0.4-0.2-0.9-0.7-1.1-1.1
	c0-0.9,0.9-1.3,1.5-1.7C309.2,267.5,309.7,267.5,310.1,267.9L310.1,267.9z"/>
<path fill="#637073" d="M391.1,268.4c0.2,0.9-0.4,1.3-1.1,1.7c-0.9,0.2-1.5-0.2-1.7-0.7c-0.2-0.7,0-1.5,0.7-1.7
	C389.6,267.5,390.9,267.7,391.1,268.4L391.1,268.4z"/>
<path fill="#637073" d="M544.4,268.8c0.2,0.9-0.4,1.3-1.1,1.7c-0.4,0.2-1.1,0-1.7-0.2c0-0.4-0.7-0.9-0.4-1.3c0.4-0.9,1.1-1.1,2-1.1
	C543.8,268.4,544.2,268.4,544.4,268.8L544.4,268.8z"/>
<path fill="#637073" d="M550.3,268.4c0.4,0.9,0,1.3-0.4,2c-0.4,0.7-1.1,0.9-1.5,0.4s-1.3-0.9-1.3-1.5c0-0.7,0.9-1.3,1.3-1.5
	C549.2,267.5,549.4,268.4,550.3,268.4L550.3,268.4z"/>
<path fill="#637073" d="M301.8,271c0,0.7-0.4,0.9-0.7,1.5c-0.4,0.2-0.9,0.4-1.3,0.4c-0.7-0.2-1.1-0.9-1.3-1.3
	c0.2-0.9,0.7-1.5,1.5-1.7C300.7,269.9,301.6,270.1,301.8,271L301.8,271z"/>
<path fill="#637073" d="M483.7,271c0.2,0.4,0,0.9,0,1.1c-0.4,0.7-1.3,1.3-2.2,0.9c-0.4-0.4-1.1-1.1-0.9-1.7
	C481.5,270.1,483,269.9,483.7,271L483.7,271z"/>
<path fill="#637073" d="M315.8,272.3c-0.2,0.7-0.4,1.3-1.3,1.3c-0.9,0-1.1-0.7-1.5-0.9c0-0.9,0-1.5,0.7-2
	C314.7,270.3,315.8,271.2,315.8,272.3L315.8,272.3z"/>
<path fill="#637073" d="M307.5,272.5c0.2,0.9-0.4,1.5-0.9,2c-1.1,0.4-2-0.4-2.4-1.3c0-0.9,0.7-1.7,1.5-2
	C306.6,271.2,307.1,272.1,307.5,272.5L307.5,272.5z"/>
<path fill="#637073" d="M489.3,272.3c0.2,0.9,0,1.7-0.9,2.2c-1.1,0.4-2-0.4-2.4-1.3c0.4-0.7,0.4-1.7,1.5-1.7
	C488.5,271.4,488.9,271.6,489.3,272.3L489.3,272.3z"/>
<path fill="#637073" d="M311.4,272.7c0.2,0.7-0.2,0.9-0.4,1.3c-0.4,0-0.7,0.4-1.3,0.4c-0.4-0.4-1.1-0.7-1.1-1.3
	c0-0.9,0.4-1.3,1.1-1.7C310.8,271.4,311.2,271.8,311.4,272.7L311.4,272.7z"/>
<path fill="#637073" d="M539.8,273.4c-0.2,0.7-0.9,1.1-1.5,1.3c-0.7,0.2-1.1-0.4-1.7-0.7c-0.4-0.4-0.2-1.1,0-1.5
	C537.5,271,539.8,271.6,539.8,273.4L539.8,273.4z"/>
<path fill="#637073" d="M546.4,273.6c-0.2,0.9-1.3,1.3-2.2,1.5c-0.9-0.4-1.7-0.9-1.1-2c0.4-0.4,0.4-0.7,1.1-0.9
	C545.3,272.1,546.2,272.7,546.4,273.6L546.4,273.6z"/>
<path fill="#637073" d="M505.2,274.2c0.4,1.1-0.7,1.5-1.3,2c-0.7,0-1.1-0.4-1.7-0.7c-0.2-0.9,0.2-1.7,1.3-2.2
	C504.4,273.4,504.8,273.6,505.2,274.2L505.2,274.2z"/>
<path fill="#637073" d="M481.5,275.3c0.4,0.2,0.2,0.9,0.2,1.1c-0.4,0.4-1.3,1.3-2,0.7c-0.7-0.4-1.1-0.9-0.9-1.7
	C479.3,274.4,481,274.4,481.5,275.3L481.5,275.3z"/>
<path fill="#637073" d="M486.5,276c0,0.7,0,1.1-0.7,1.3c-0.7,0.7-1.3,0-2-0.2c-0.2-0.4-0.4-0.9,0-1.3c0.2-0.4,0.7-0.7,1.1-0.7
	C485.4,275.3,486.1,275.3,486.5,276L486.5,276z"/>
<path fill="#637073" d="M339.7,276c0.4,0.4,0,1.1-0.2,1.7c-0.4,0.4-1.3,0.9-2.2,0.4c-0.9-0.4-0.9-1.5-0.7-2.2
	c0.4-0.2,0.4-0.9,1.3-0.9C338.8,275.3,339.3,275.5,339.7,276L339.7,276z"/>
<path fill="#637073" d="M514.6,276.4c0.2,0.9-0.7,1.3-1.3,1.3c-1.1,0.4-1.5-0.4-2-1.1c0-0.4,0.4-0.9,0.7-1.3
	C513.3,274.9,513.9,275.8,514.6,276.4L514.6,276.4z"/>
<path fill="#637073" d="M509.8,276.4c0.4,0.9-0.7,1.3-0.9,1.7c-0.7,0.2-1.3,0.2-2-0.4c-0.4-0.2-0.4-0.9-0.4-1.3
	c0.4-0.4,0.9-0.9,1.3-1.1C508.7,275.3,509.6,275.8,509.8,276.4L509.8,276.4z"/>
<path fill="#637073" d="M548.8,277.5c0.2,1.3-1.3,0.7-2,0.9c-3.7,2.2-8.3,0.4-11.8-0.9c0.2-1.1,1.5-0.7,2.2-1.1
	c3.7-2.4,7.4,0.4,11.3,0.7L548.8,277.5L548.8,277.5z"/>
<path fill="#637073" d="M312.5,276.4l-0.4,0.7c-3.3,2-7.4,3.3-11.1,2l-0.4-0.4c3.3-2.4,7.4-3,11.5-2.4L312.5,276.4L312.5,276.4z"/>
<path fill="#637073" d="M523.3,277.1c0,0.7-0.4,1.3-0.9,1.7c-0.9,0.2-2,0-2.2-0.9c-0.2-0.7,0.4-1.3,1.1-1.7
	C522,276,523.1,276.2,523.3,277.1L523.3,277.1z"/>
<path fill="#637073" d="M328,277.3c-0.4,0.7-0.2,1.3-1.1,1.7c-0.9,0.4-2-0.4-2.2-1.1c-0.2-0.9,0.4-1.3,0.9-1.7
	C326.7,275.8,327.3,276.6,328,277.3L328,277.3z"/>
<path fill="#637073" d="M321.9,277.7c0.2,0.7-0.2,0.9-0.4,1.3c-0.4,0.4-1.3,0.4-1.7,0.2c-0.7-0.4-1.3-1.1-0.9-2.2
	c0.4-0.4,0.9-0.7,1.3-0.9C320.8,276.6,321.6,276.8,321.9,277.7L321.9,277.7z"/>
<path fill="#637073" d="M529.4,279.7c0,0.9-0.7,1.3-1.3,1.5c-0.7,0-1.3-0.4-1.7-0.9c-0.2-0.4-0.2-1.3,0.4-1.7
	c0.2-0.2,0.9-0.2,1.1-0.4C528.7,278.4,529.2,279,529.4,279.7L529.4,279.7z"/>
<path fill="#637073" d="M315.3,278.8c0.2,0.7-0.4,0.9-0.4,1.5c-0.2,1.5-1.3,2.4-2,3.7c-1.7,2-3.9,2-6.3,2.6l-0.4-0.7
	c2.6-3.3,5.2-5.7,8.7-7.4L315.3,278.8L315.3,278.8z"/>
<path fill="#637073" d="M525,280.8c0.2,1.1-0.7,1.3-1.3,1.7c-0.9,0-1.3-0.4-1.7-1.1c-0.2-0.9,0.7-1.3,1.1-1.7
	C523.9,279.5,524.8,280.1,525,280.8L525,280.8z"/>
<path fill="#637073" d="M325.3,280.8c0,0.2,0,0.4,0.2,0.4c0,0.9-0.9,1.3-1.3,1.7c-0.9,0-1.3-0.2-2-0.9c-0.4-0.9,0-1.7,0.9-2
	C324,279.9,325.1,279.9,325.3,280.8L325.3,280.8z"/>
<path fill="#637073" d="M540.9,283.4c0.9,0,1.1-1.1,2-1.3c0.9-0.2,1.7,0.4,2.2,0.9c0.4,1.1-0.4,1.5-1.1,2c-0.7,0.4-2-0.4-1.7,0.7
	c0.7,0.4,1.1,1.1,1.3,1.7c-0.2,0.4-0.9,0.2-1.1,0c-2.6-1.1-5.2-2.8-6.3-5.4c-0.4-0.9-2-1.3-1.1-2.2
	C537.5,279.7,539.6,281.9,540.9,283.4L540.9,283.4z"/>
<path fill="#637073" d="M549.2,280.5c0.4,0.4,0.2,1.3,0,1.7c-0.4,0.9-1.7,0.4-2.6,0.4c-0.4-0.4-0.9-0.9-0.7-1.5
	c0.4-0.4,0.7-0.9,1.3-1.1C548.1,279.9,548.8,280.1,549.2,280.5L549.2,280.5z"/>
<path fill="#637073" d="M517.9,285.3c0.9,0.9,1.5,2.4,2,3.5c-0.2,0.2-0.7,0.2-0.9,0.2c-2.8-1.7-6.8-3.5-7.8-7
	c-0.2-0.4-0.9-0.9-0.9-1.3c2.2-0.4,4.4,1.3,5.9,2.4C517,284,517.6,284.5,517.9,285.3L517.9,285.3z"/>
<path fill="#637073" d="M320.6,282.1c0.4,0.9-0.4,1.3-0.9,1.7c-0.9,0.2-1.5-0.2-2-0.7c-0.7-0.9,0.4-1.7,1.3-2.2
	C319.7,281,320.1,281.6,320.6,282.1L320.6,282.1z"/>
<path fill="#637073" d="M528.7,284c0,0.4-0.7,0.9-0.9,1.3c-0.7,0-1.3,0.4-2-0.2c-0.2-0.4-0.7-1.1,0-1.5
	C526.8,282.3,528.1,283.2,528.7,284L528.7,284z"/>
<path fill="#637073" d="M550.3,285.3c0.2,1.1-0.4,1.7-1.3,2.2c-0.9,0.2-1.5-0.4-2.2-0.9c-0.4-0.4,0-1.1,0-1.7
	c0.7-0.4,1.3-0.9,2.2-0.7C549.4,284.7,549.9,284.9,550.3,285.3L550.3,285.3z"/>
<path fill="#637073" d="M490.4,297.3c0,1.1-2,0.9-2.6,1.5c-2.6,1.3-5.9,1.3-9.1,1.3v-0.4C481.9,296.9,486.3,296,490.4,297.3
	L490.4,297.3z"/>
<path fill="#637073" d="M364.3,301c0,0.9-0.4,1.3-1.3,1.5c-0.7,0-1.3-0.4-1.5-0.9c-0.4-1.1,0.4-1.5,1.1-2
	C363.7,299.7,364.3,300.4,364.3,301L364.3,301z"/>
<path fill="#637073" d="M488.9,301.9c-0.2,0.9-0.4,1.7-1.3,2c-0.9,0.2-1.3-0.2-2-0.7c-0.4-0.4-0.2-0.9-0.2-1.3
	C486.1,300.4,488.5,300.4,488.9,301.9L488.9,301.9z"/>
<path fill="#637073" d="M506.1,302.3c-2.2,1.3-4.6,3-7.4,3h-4.6l-0.4-0.4c2.8-3.5,8.1-3.5,12.6-3v0.4H506.1z"/>
<path fill="#637073" d="M340.8,304.3c0,0.9-0.4,1.3-1.1,1.7c-0.9,0.2-1.5-0.2-1.7-0.9c-0.4-0.9,0-1.5,0.7-2
	C339.5,302.5,340.4,303.6,340.8,304.3L340.8,304.3z"/>
<path fill="#637073" d="M345.2,305.2c0.2,0.4-0.2,0.7-0.4,1.1c-0.4,0.2-1.3,0.4-1.7,0c-0.7-0.4-0.9-0.9-0.4-1.5
	c0.2-0.4,0.9-0.4,1.1-0.9C344.3,304.3,344.7,304.7,345.2,305.2L345.2,305.2z"/>
<path fill="#637073" d="M312.1,314.1c-0.9,1.1-2.2-0.2-3.3-0.9c-3-1.7-2.8-5.2-5.9-7.2c0.4-1.1,1.1,0,1.7,0c0.4,0.4,1.3,0.7,1.7,0.9
	C309.2,308.6,310.1,311.5,312.1,314.1L312.1,314.1z"/>
<path fill="#637073" d="M520.2,306.9c0,0.2,0.4,0.4,0.4,0.9c-3,2.6-7.2,3.5-11.5,3.7c-0.4,0-0.7,0.4-1.1,0.2
	c-0.2-0.2-0.4-0.4-0.2-0.7C510.7,307.5,515.5,305.8,520.2,306.9L520.2,306.9z"/>
<path fill="#637073" d="M506.3,308.2c0.4,1.3-0.4,2-1.3,2.4c-0.9,0-1.5-0.7-2-1.3c-0.2-0.7,0.4-1.1,0.7-1.5
	C504.4,307.1,505.9,307.1,506.3,308.2L506.3,308.2z"/>
<path fill="#637073" d="M342.1,308.4c0.2,0.7,0,1.3-0.4,1.7c-0.4,0.4-1.1,0.4-1.5,0.4c-0.7,0-0.9-0.9-1.1-1.3c0-0.9,0.4-1.3,1.1-1.7
	C340.8,307.8,341.5,307.8,342.1,308.4L342.1,308.4z"/>
<path fill="#637073" d="M326.7,314.1v0.7c-2.2,0.4-4.1,0-5.7-1.3c-1.3-1.7-2.6-3.5-4.6-4.4c0-0.2-0.4-0.7,0-0.9
	C320.8,308.2,323.4,311.7,326.7,314.1L326.7,314.1z"/>
<path fill="#637073" d="M533.3,308.4c-2,3-3.7,6.5-7.2,7.8c-0.7,0-1.1,0.9-1.7,0.2c1.3-3.3,4.4-7,7.6-8.3
	C532.4,308.2,532.9,308.2,533.3,308.4L533.3,308.4z"/>
<path fill="#637073" d="M347.1,309.5c0,0.9-0.7,1.1-1.3,1.7c-0.7,0-1.1-0.4-1.5-0.9c-0.4-0.9,0.4-1.3,0.9-1.7
	C346,308.2,346.7,308.9,347.1,309.5L347.1,309.5z"/>
<path fill="#637073" d="M544.2,309.9c-0.9,1.1-0.4,2.8-1.3,3.9c-1.7,2-3.3,4.4-5.9,4.8c-0.4-0.9,0.7-1.7,1.1-2.6
	c1.3-2.6,2.8-5.7,5.7-6.8L544.2,309.9L544.2,309.9z"/>
<path fill="#637073" d="M299.9,310.8c0.2,0.7,0.4,1.3,0,2c-0.4,0.4-1.3,0.7-2,0.4c-0.9-0.4-1.1-1.3-0.7-2.2
	C297.7,310.2,299.2,309.7,299.9,310.8L299.9,310.8z"/>
<path fill="#637073" d="M294.9,311.7c0,0.4,0.4,0.9,0.2,1.3c-0.2,0.4-0.7,0.9-1.3,1.1c-0.9,0.2-1.5-0.4-2-1.1c0-0.9,0.2-1.5,0.9-1.7
	C293.6,310.8,294.4,311.3,294.9,311.7L294.9,311.7z"/>
<path fill="#637073" d="M305.1,312.3c0.2,0.7,0.4,2-0.7,2.2c-1.3,0.4-2-0.4-2.6-1.1c0-0.9,0.4-1.3,1.1-1.7
	C303.8,311.5,304.4,311.7,305.1,312.3L305.1,312.3z"/>
<path fill="#637073" d="M319.2,313.4c0,0.7,0,1.5-0.7,1.7c-0.4,0.4-1.3,0.2-1.7,0.2c-0.2-0.4-1.1-0.9-0.7-1.5
	c0.4-0.4,0.7-0.7,1.3-0.9C318.2,313,318.8,312.8,319.2,313.4L319.2,313.4z"/>
<path fill="#637073" d="M552.5,314.1c-0.2,0.7-0.7,1.3-1.3,1.3c-0.9,0-1.5-0.2-2-0.9c-0.4-0.9,0.4-1.5,1.1-1.7
	C551.2,312.8,552.3,313,552.5,314.1L552.5,314.1z"/>
<path fill="#637073" d="M536.6,314.5c0,0.7-0.7,1.3-1.1,1.5c-1.3,0.4-2.2-0.4-2.6-1.3c0.2-0.9,0.9-1.3,1.5-1.5
	C535.5,313,536.1,313.6,536.6,314.5L536.6,314.5z"/>
<path fill="#637073" d="M547.5,314.3c0,0.7-0.4,1.3-0.9,1.5c-0.7,0.2-1.5,0.2-2.2-0.4c-0.9-0.7-0.2-1.3,0.4-1.7
	C545.7,313.2,547,313.2,547.5,314.3L547.5,314.3z"/>
<path fill="#637073" d="M297.5,315.8c0.2,0.9-0.2,1.7-1.1,2.2c-0.9,0-1.7-0.4-2-1.3c0-0.9,0.2-1.5,0.9-1.7
	C296.4,314.7,297,315.2,297.5,315.8L297.5,315.8z"/>
<path fill="#637073" d="M532.4,316.7c0.2,0.9-0.2,1.7-1.3,2.2c-0.7,0.2-1.1-0.2-1.7-0.7c-0.4-0.4-0.9-1.3,0-1.7
	C530,315.2,531.8,315.8,532.4,316.7L532.4,316.7z"/>
<path fill="#637073" d="M344.1,317.8c0.4,0.9-0.7,1.1-0.9,1.7c-0.4,0.2-1.1,0.2-1.3,0c-0.4-0.4-0.9-1.1-0.7-1.7
	c0.4-0.4,0.7-0.7,1.1-0.9C343.2,316.3,343.4,317.1,344.1,317.8L344.1,317.8z"/>
<path fill="#637073" d="M551,318.2c0.2,0.7-0.4,0.9-0.4,1.3c-0.4,0.4-1.3,0.4-2,0.4c-0.9-0.4-0.9-1.1-0.9-2c0.4-0.4,0.7-0.9,1.3-0.9
	S550.7,317.3,551,318.2L551,318.2z"/>
<path fill="#637073" d="M545.5,318.7c0.4,1.1-0.7,1.5-1.3,1.7c-0.4,0-0.9-0.2-0.9,0.4c2.2,1.1,3.7,3,5.4,4.6v0.7
	c-3,0-6.3-0.9-8.5-3.3c-0.7-0.4-1.7-0.4-2.4-1.1c1.1-1.1,3.3-0.7,4.8-0.9c1.1-1.3-1.3-2.2,0.2-3c0.4,0,0.9-0.7,1.5-0.4
	C544.9,317.6,545.3,318,545.5,318.7L545.5,318.7z"/>
<path fill="#637073" d="M510.2,318.7c0.2,0.4-0.4,0.9-0.4,1.3c-0.4,0.4-1.3,0.7-2,0.4c-0.4-0.7-1.1-1.1-0.9-2
	C507.8,317.1,510,317.3,510.2,318.7L510.2,318.7z"/>
<path fill="#637073" d="M317.1,321.7c-0.2,0.9-0.7,1.3-1.5,1.3c-0.7,0-1.3-0.4-1.5-1.1c0-0.7,0.4-0.9,0.4-1.3
	C315.5,320,317.1,320.4,317.1,321.7L317.1,321.7z"/>
<path fill="#637073" d="M324,320.6c0,1.3-1.3,2-1.7,3c-1.3,2.8-3.7,5.4-7,5.7c-0.4-0.9,1.1-1.7,1.5-2.6c1.3-3,4.1-4.6,6.8-6.3h0.4
	V320.6z"/>
<path fill="#637073" d="M508.1,321.7c0,0.9-0.9,1.7-1.5,2c-0.9,0.2-1.3-0.4-1.7-0.7c-0.7-0.7-0.2-1.3,0-2.2
	C506.1,320,507.4,320.8,508.1,321.7L508.1,321.7z"/>
<path fill="#637073" d="M513.5,322.4c0,0.9-0.7,1.7-1.5,2c-0.2-0.2-0.7,0-0.9-0.2c-0.7-0.4-1.1-0.9-1.1-1.5c0.4-0.4,0.7-1.1,1.3-1.3
	C512,321.3,513.3,321.3,513.5,322.4L513.5,322.4z"/>
<path fill="#637073" d="M337.5,322.4c0,0.9-0.7,1.5-1.3,1.7c-0.9,0-1.3-0.4-1.7-1.1c-0.2-0.9,0.7-1.3,1.1-1.7
	C336.7,321,336.9,321.7,337.5,322.4L337.5,322.4z"/>
<path fill="#637073" d="M343.4,322.6c-0.2,0.9-0.9,1.3-1.7,1.5c-0.7-0.2-1.3-0.4-1.5-1.1c0-0.9,0.7-1.3,1.3-1.7
	C342.3,321.3,343.2,321.7,343.4,322.6L343.4,322.6z"/>
<path fill="#637073" d="M532,328.7c0.4,0.4,1.3,0.9,1.1,1.3c-1.3,0.7-2.4-0.9-3.7-1.3c-2.2-2.2-3.7-4.4-4.6-7
	c0.9-0.9,1.7,0.2,2.4,0.4C529.2,324.1,531.1,326.3,532,328.7L532,328.7z"/>
<path fill="#637073" d="M535.3,322.6c0.2,0.7,0.2,1.3-0.2,2c-0.4,0.9-1.7,0.7-2.4,0.4c-0.4-0.4-1.3-1.3-0.7-2
	c0.2-0.7,1.1-0.9,1.7-1.1C534.2,321.9,534.6,322.4,535.3,322.6L535.3,322.6z"/>
<path fill="#637073" d="M351.5,325c0,0.7,0.2,1.7-0.7,2.2c-0.9,0.2-1.7,0-2.2-1.1c-0.4-1.1,0.4-1.3,1.1-1.7
	C350.4,324.1,350.8,324.5,351.5,325L351.5,325z"/>
<path fill="#637073" d="M513.3,330.6c1.3,1.7,2,3.9,2.2,6.1c-0.2,0.7,0.4,1.3,0,1.7H515c-3.9-2.8-4.8-6.8-6.3-10.7
	c-0.4-0.2-0.4-0.4-0.4-0.9c0.9-0.9,1.5,0.9,2.4,1.1L513.3,330.6L513.3,330.6z"/>
<path fill="#637073" d="M362.6,327.6C362.6,327.6,362.6,327.8,362.6,327.6c-3.3,2.6-8.3,4.1-12.2,1.7c0-0.2,0-0.7,0.4-0.9
	c2.6-0.9,5-2,7.6-1.7L362.6,327.6L362.6,327.6z"/>
<path fill="#637073" d="M343,328c-2.8,1.7-5.7,5.4-9.1,6.3c-0.7,0.2-1.1,1.3-2,0.7c1.5-4.8,6.8-7.2,11.3-7.6v0.7H343z"/>
<path fill="#637073" d="M508.1,331.9c0.2,0.7,0,1.7-0.7,1.7c-0.4,0.4-1.3,0.4-1.7,0c-0.9-0.4-0.9-1.1-0.9-1.7
	c0.2-0.7,0.9-0.7,1.3-0.9C507.2,331.3,507.8,331.3,508.1,331.9L508.1,331.9z"/>
<path fill="#637073" d="M501.1,332.4c-0.4,1.3-2,2-3,2.2c-2.8,1.1-5.7-0.4-8.3-1.1c0-0.7,0.9-0.4,1.3-0.9c2.8-0.7,5.9-1.3,8.7-0.4
	C500.2,332.2,500.6,331.9,501.1,332.4L501.1,332.4z"/>
<path fill="#637073" d="M343,335c-0.2,0.4-0.4,1.1-1.1,1.3c-0.7,0.2-1.3,0-1.7-0.4c-0.2-0.4-0.9-0.9-0.4-1.5
	c0.2-0.7,0.9-0.9,1.3-0.9C342.1,333.5,342.8,334.1,343,335L343,335z"/>
<path fill="#637073" d="M348,335.6c-0.2,0.4-0.4,1.3-1.3,1.7c-0.7,0.2-1.3-0.2-1.7-0.7c-0.2-0.4-0.4-1.1-0.2-1.7
	c0.2-0.4,0.9-0.4,1.3-0.9C346.9,334.1,347.8,335,348,335.6L348,335.6z"/>
<path fill="#637073" d="M506.5,336.5c0,0.7-0.2,1.1-0.7,1.7c-0.4,0.7-1.3,0.7-2,0.4c-0.7,0-0.9-0.9-1.1-1.3
	c-0.4-0.7,0.4-1.1,0.7-1.7C504.6,334.8,506.1,335.2,506.5,336.5L506.5,336.5z"/>
<path fill="#637073" d="M510.2,336.3c0,0.4,0.4,0.9,0.2,1.3c-0.4,0.4-0.9,1.5-2,1.1c-0.4,0.2-0.9-0.4-1.1-0.7
	c-0.4-0.9,0-2.2,1.1-2.4C509.4,335.4,509.8,336.1,510.2,336.3L510.2,336.3z"/>
<path fill="#637073" d="M344.9,338.9c0.2,0.9-0.2,1.7-0.9,2.4c-0.9,0.2-2.2,0.2-2.4-0.9c0-0.9,0-2,1.1-2.6
	C343.4,337.6,344.5,337.8,344.9,338.9L344.9,338.9z"/>
<path fill="#637073" d="M349.7,338.5c-0.2,2.4-0.7,5.4-3,6.8c-1.3,0.2-2.8,1.5-4.1,0.7v-0.2C344.3,343,347.8,341.1,349.7,338.5
	L349.7,338.5z"/>
<path fill="#637073" d="M493,340.6c0.4,0.4-0.2,0.9-0.4,1.3c-0.4,0.7-1.5,0.4-2.2,0c-0.7-0.2-0.7-1.1-0.4-1.7
	c0.2-0.4,0.7-0.9,1.1-0.9C491.9,339.3,492.6,340,493,340.6L493,340.6z"/>
<path fill="#637073" d="M358.4,344.6c1.3,2,0.4,4.8,1.3,7c-1.5,0.2-2.2-1.5-3-2.4c-2-2.6-1.7-6.1-2.6-9.1c0.2-0.2,0.4-0.2,0.7-0.2
	c1.3,0.9,2.2,2.6,3.3,3.7C357.8,344.1,358.4,344.1,358.4,344.6L358.4,344.6z"/>
<path fill="#637073" d="M497.4,341.3c0,0.7-0.9,0.9-1.3,1.3c-0.7,0-1.1-0.4-1.7-0.9c-0.2-0.9,0.4-1.1,0.9-1.5
	C496.1,339.8,496.9,340.2,497.4,341.3L497.4,341.3z"/>
<path fill="#637073" d="M507.6,348.9c0,0.2,0,0.9-0.4,0.7h-0.4c-2.6-2.2-5-4.8-4.6-8.3h0.4C504.8,343.3,507.4,345.4,507.6,348.9
	L507.6,348.9z"/>
<path fill="#637073" d="M501.1,346.3c0,0.7-0.4,1.3-0.9,1.7c-0.9,0.2-2.4,0.2-2.6-1.1c0-0.9,0.9-1.3,1.3-1.7
	C500,344.8,500.6,345.4,501.1,346.3L501.1,346.3z"/>
<path fill="#637073" d="M495.4,348.1c-1.3,3.3-4.6,4.8-6.8,7.4c-0.4-0.2-0.2-0.9-0.2-1.3c0.9-3.3,3.5-6.5,6.8-7.8
	C496.5,346.3,495.2,347.4,495.4,348.1L495.4,348.1z"/>
<path fill="#637073" d="M502,350.7c0,0.9-0.9,1.1-1.3,1.5c-0.7,0-1.3-0.2-2-0.9c0-0.9,0.7-1.1,1.1-1.5
	C500.6,349.6,501.5,350,502,350.7L502,350.7z"/>
<path fill="#637073" d="M437.5,192.8c1.1,0,2.2,0.9,2.2,2.2c0,1.1-0.9,2.2-2.2,2.2h-25.7c-1.1,0-2.2-0.9-2.2-2.2
	c0-1.1,0.9-2.2,2.2-2.2H437.5L437.5,192.8z M419.4,196.5c2.4,0,0.2-3-1.3-3h-2.4c-2.4,0-0.2,3,1.3,3H419.4L419.4,196.5z
	 M429.9,196.5c2.6,0,0.2-3-1.3-3h-2.4c-2.4,0-0.2,3,1.3,3H429.9L429.9,196.5z M437.7,193.4h-0.9c-2.6,0-0.4,3,0.9,3
	C439.5,196.5,439.5,193.4,437.7,193.4L437.7,193.4z"/>
<path fill="#637073" d="M435.3,222.2l4.8,2l4.8-2l-2,7.2l3.9-0.9l-1.3,4.4l1.3,4.1l-3.5-0.9l1.5,7.8l-4.8-2l-4.8,2l2-7.8l-3.9,1.1
	l1.1-4.4l-1.1-4.1l3.7,0.7L435.3,222.2L435.3,222.2z M442.5,235c1.1,0,1.3-1.5,1.3-2.8c0-3-2.4,0-3.5-2.8c-0.9,2.4-3.3,0.2-3.3,2.6
	c0,1.7,0,2.8,1.7,2.8h3.7V235z M437.7,232.4c0,1.1,1.5,0.4,2.6,0.4s2.6,0.7,2.6-0.4c0-1.5-1.5-1.1-2.6-1.1S437.7,230.9,437.7,232.4
	L437.7,232.4z"/>
<polygon fill="#637073" points="423.8,232.6 423.8,231.8 423.1,231.5 423.8,230.9 423.3,230.2 424.2,230.2 424.6,229.4 425.1,230.2 
	426,230.2 425.5,230.9 426.2,231.5 425.5,231.8 425.5,232.6 424.6,232.2 "/>
<polygon fill="#637073" points="420.1,237.6 420.1,236.8 419.2,236.6 419.9,235.9 419.4,235 420.3,235.2 420.9,234.4 421.4,235.2 
	422.3,235 421.8,235.9 422.5,236.6 421.6,236.8 421.6,237.6 420.9,237 "/>
<polygon fill="#637073" points="426.6,237 426.6,236.1 425.7,235.9 426.4,235.2 426,234.6 426.8,234.6 427.3,233.7 427.7,234.6 
	428.6,234.6 428.3,235.2 429,235.9 428.1,236.1 428.1,237 427.3,236.3 "/>
<polygon fill="#637073" points="427.3,240.7 427.3,240 426.8,240 427.3,239.6 427,239.2 427.5,239.2 427.7,238.7 427.9,239.2 
	428.6,239.2 428.3,239.6 428.6,240 428.1,240 428.1,240.7 427.7,240.3 "/>
<polygon fill="#637073" points="421.4,244.8 421.4,243.3 419.9,242.9 420.9,241.8 420.3,240.5 421.8,240.7 422.7,239.2 423.6,240.7 
	424.9,240.5 424.2,241.8 425.3,242.9 424,243.3 424,244.8 422.7,243.7 "/>
<polygon fill="#637073" points="424.4,162.7 427.5,170.1 435.1,168 431.2,174.9 437.7,179.7 429.9,181 430.3,189.1 424.4,183.6 
	418.3,189.1 418.8,181 410.9,179.7 417.5,174.9 413.5,168 421.4,170.1 "/>
<path fill="#637073" d="M396.6,330.4c-0.9,0.4-1.3,0.7-1.1,1.5l1.1,4.6c0.2,0.9,0.2,2.2-0.2,3c-0.7,1.1-2.2,1.5-3,2
	c-0.7,0.2-2.4,0.4-3.7,0c-0.9-0.4-1.5-0.9-1.7-2.4l-1.1-4.8c-0.2-1.3-0.7-1.1-1.7-1.1v-0.4l5.9-1.3v0.4c-1.1,0.2-1.7,0.4-1.3,1.7
	l1.1,4.8c0.2,0.9,0.7,2.8,3,2.2c3-0.7,2.6-2.8,2.4-3.9l-1.1-4.4c-0.2-0.9-0.4-1.3-2-1.1v-0.4l3.7-0.9L396.6,330.4L396.6,330.4z"/>
<path fill="#637073" d="M405,331.5c-0.4-0.9-2-2.4-3.9-2c-0.9,0.2-1.7,0.9-1.5,1.7s0.7,1.1,2.2,1.3l2.8,0.4c0.7,0.2,2.2,0.7,2.4,2.2
	c0.2,1.3-0.4,3.3-3.7,3.9c-1.5,0.4-2.6,0-3,0.2c-0.4,0-0.4,0.4-0.4,0.7l-0.4,0.2l-0.9-3.5l0.4-0.2c0.7,1.3,2,2.8,4.1,2.4
	c2-0.4,1.7-2,1.7-2.2c-0.2-0.9-1.1-1.1-2.4-1.3l-1.3-0.2c-3.3-0.4-3.5-1.7-3.7-2.4c-0.2-0.9,0-3,3.3-3.7c1.3-0.2,2.4,0,2.8-0.2
	c0.4,0,0.4-0.2,0.4-0.7l0.4-0.2l0.7,3L405,331.5L405,331.5z"/>
<path fill="#637073" d="M416.4,337.2l-6.3,0.7v-0.4c1.3-0.2,1.7-0.2,1.5-1.5l-0.7-7.8c-1.3,0.2-3,0.4-3,2.8h-0.4l-0.2-3l10.5-1.1
	l0.2,3h-0.4c-0.7-2.4-2.4-2.2-3.7-2.2l0.7,7.8c0.2,1.3,0.4,1.3,1.7,1.1L416.4,337.2L416.4,337.2z"/>
<path fill="#637073" d="M431.2,337.2h-3.7l-3.5-4.8h-0.4v2.8c0,1.1,0.4,1.3,1.5,1.3v0.4l-5.9-0.2v-0.4c1.3,0,1.5-0.2,1.5-1.3
	l0.2-6.5c0-1.3-0.4-1.3-1.5-1.3v-0.4l5.7,0.2c1.3,0,5,0.2,5,2.6c0,1.7-2,2.2-2.8,2.4l3.5,4.4c0.2,0.2,0.4,0.2,0.7,0.2L431.2,337.2
	L431.2,337.2z M423.6,331.9c2.4,0,3.3-0.2,3.3-2.2c0-1.5-0.7-2.2-2.2-2.2c-0.9,0-1.1,0.2-1.1,0.7V331.9L423.6,331.9z"/>
<path fill="#637073" d="M442.7,338.7l-5.7-0.7v-0.4c1.1,0,1.3,0,1.5-0.4c0-0.4-0.4-1.5-0.7-2l-3.9-0.4c-0.7,1.1-0.9,1.5-1.1,1.7
	c0,0.7,0.9,0.7,1.3,0.9v0.4l-3.5-0.4v-0.4c0.9,0,1.3-0.4,2-1.5l4.8-7.6h0.4l2.8,8.3c0.7,1.7,0.9,2.2,1.7,2.2L442.7,338.7
	L442.7,338.7z M437.7,334.6l-1.3-3.7l-2.2,3.3L437.7,334.6L437.7,334.6z"/>
<path fill="#637073" d="M453,340.6l-10-1.7v-0.4c1.1,0,1.5,0.2,1.7-0.7l1.3-7c0.2-0.9-0.4-1.1-1.3-1.3v-0.4l6.1,1.1v0.4
	c-1.3-0.2-1.7-0.2-2,1.1l-1.3,7c-0.2,0.7,0.2,0.9,1.3,1.1c2.6,0.4,3.9-0.7,5-2h0.4L453,340.6L453,340.6z"/>
<path fill="#637073" d="M459.5,342.2l-6.1-1.3v-0.4c0.9,0.2,1.5,0.2,1.7-0.7l1.5-7c0.2-0.9-0.7-1.1-1.3-1.3v-0.4l6.1,1.3v0.4
	c-0.9-0.2-1.7-0.2-1.7,0.7l-1.5,7c-0.2,0.9,0.4,1.1,1.5,1.3L459.5,342.2L459.5,342.2z"/>
<path fill="#637073" d="M471.9,343.7l-5.7-0.7v-0.4c1.1,0,1.5,0,1.5-0.4c0-0.4-0.4-1.5-0.7-2l-3.9-0.4c-0.7,1.1-0.9,1.5-0.9,1.7
	c0,0.7,0.9,0.7,1.3,0.9v0.4l-3.5-0.4V342c0.9,0,1.3-0.4,2-1.5l4.8-7.6h0.4l3,8.1c0.7,1.7,0.9,2.2,1.7,2.2L471.9,343.7L471.9,343.7z
	 M466.9,339.8l-1.3-3.7l-2,3.5L466.9,339.8L466.9,339.8z"/>
<path fill="#637073" d="M426.8,224.6c0-3.5-2-0.2-3-3.3c-0.9,2.6-3.3,0.4-3.3,3c0,1.1,0.2,1.7,0.9,2v1.1c0,0.2,0.2,0.4,0.4,0.4h3.7
	c0.2,0,0.4-0.2,0.4-0.4v-1.1C426.4,225.9,426.8,225.2,426.8,224.6L426.8,224.6z M423.8,225.2c-1.1,0-2.4,0.7-2.4-0.4
	c0-1.7,1.1-1.3,2.2-1.3s2.6-0.4,2.6,1.3C426.2,225.9,424.6,225.2,423.8,225.2L423.8,225.2z"/>
<path fill="#637073" d="M457.7,268.1c0.9,0,1.5-0.7,1.5-1.5c0-0.9-0.7-1.5-1.5-1.5c-0.9,0-1.5,0.7-1.5,1.5
	C456,267.5,456.9,268.1,457.7,268.1L457.7,268.1z"/>
<path fill="#637073" d="M450.1,215.4c0,0-0.9,1.3-0.9,1.5c0,0.4,0.4,0.9,0.9,0.9c0.4,0,0.9-0.4,0.9-0.9
	C450.8,217,450.1,215.4,450.1,215.4L450.1,215.4z"/>
<path fill="#637073" d="M397.9,215.4c0,0-0.9,1.3-0.9,1.5c0,0.4,0.4,0.9,0.9,0.9c0.4,0,0.9-0.4,0.9-0.9
	C398.7,217,397.9,215.4,397.9,215.4L397.9,215.4z"/>
<path fill="#637073" d="M410.9,215.4c0,0-0.9,1.3-0.9,1.5c0,0.4,0.4,0.9,0.9,0.9s0.9-0.4,0.9-0.9C411.6,217,410.9,215.4,410.9,215.4
	L410.9,215.4z"/>
<path fill="#637073" d="M424,215.4c0,0-0.9,1.3-0.9,1.5c0,0.4,0.4,0.9,0.9,0.9c0.4,0,0.9-0.4,0.9-0.9C424.6,217,424,215.4,424,215.4
	L424,215.4z"/>
<path fill="#637073" d="M437.1,215.4c0,0-0.7,1.3-0.7,1.5c0,0.4,0.4,0.9,0.9,0.9c0.4,0,0.9-0.4,0.9-0.9
	C437.7,217,437.1,215.4,437.1,215.4L437.1,215.4z"/>
<path fill="#637073" d="M397.9,233.3c0,0,0.7,1.3,0.7,1.5c0,0.4-0.4,0.9-0.9,0.9s-0.9-0.4-0.9-0.9
	C397,234.8,397.9,233.3,397.9,233.3L397.9,233.3z"/>
<path fill="#637073" d="M397.9,250.7c0,0,0.7,1.3,0.7,1.5c0,0.4-0.4,0.9-0.9,0.9s-0.9-0.4-0.9-0.9
	C397,252.2,397.9,250.7,397.9,250.7L397.9,250.7z"/>
<path fill="#637073" d="M400,264.6c0,0,0.9,1.3,0.9,1.5c0,0.4-0.4,0.9-0.9,0.9c-0.4,0-0.9-0.4-0.9-0.9
	C399.2,266,400,264.6,400,264.6L400,264.6z"/>
<path fill="#637073" d="M410.9,271.8c0,0,0.9,1.3,0.9,1.5c0,0.4-0.4,0.9-0.9,0.9s-0.9-0.4-0.9-0.9L410.9,271.8L410.9,271.8z"/>
<path fill="#637073" d="M450.8,233.3c0,0-0.7,1.3-0.7,1.5c0,0.4,0.4,0.9,0.9,0.9s0.9-0.4,0.9-0.9
	C451.4,234.8,450.8,233.3,450.8,233.3L450.8,233.3z"/>
<path fill="#637073" d="M450.8,250.7c0,0-0.7,1.3-0.7,1.5c0,0.4,0.4,0.9,0.9,0.9s0.9-0.4,0.9-0.9
	C451.4,252.2,450.8,250.7,450.8,250.7L450.8,250.7z"/>
<path fill="#637073" d="M448.6,264.6c0,0-0.7,1.3-0.7,1.5c0,0.4,0.4,0.9,0.9,0.9s0.9-0.4,0.9-0.9C449.5,266,448.6,264.6,448.6,264.6
	L448.6,264.6z"/>
<path fill="#637073" d="M437.7,271.8c0,0-0.7,1.3-0.7,1.5c0,0.4,0.4,0.9,0.9,0.9c0.4,0,0.9-0.4,0.9-0.9
	C438.4,273.4,437.7,271.8,437.7,271.8L437.7,271.8z"/>
<path fill="#637073" d="M424.4,279.7c0,0-0.9,1.3-0.9,1.5c0,0.4,0.4,0.9,0.9,0.9c0.4,0,0.9-0.4,0.9-0.9
	C425.1,281.2,424.4,279.7,424.4,279.7L424.4,279.7z"/>
<path fill="#637073" d="M445.6,253.8c0.2,0.2,0.7,0.4,1.1,0.2l0.4-1.3c0,0-0.7-0.7-0.9-0.7c-1.3,0.4-2.8,0.4-3.7,1.7
	c0,0.9,0.7,1.7,1.3,2.2c0.4-0.2,0.7,0.4,0.9,0.7c0,0.4-0.2,0.7-0.7,0.7c-1.1-1.1-2.6,0.4-3.5-0.9c0.2-1.3,1.1-2.6,0-3.7
	c0-0.2,0.4-0.4,0.2-0.7c-0.4-1.1-1.7-0.2-2.4-0.2c-1.3-0.2-2.2,0.4-3,1.5c0,0.4,0.2,0.9,0.7,1.3c0.4,0,0.4,0,0.7,0.4l-0.9,0.4
	c0.2,0.2,0.2,0.7,0.4,0.9c-0.7,0.2-1.1-0.7-1.3-1.1c0-0.7,0-1.7-0.9-2c-0.2,0-0.7,0.2-0.7,0.2c-0.2,0.2-0.4,0.9-0.4,1.3
	c0,0.7,0.2,1.5,0.2,1.5s2.6,2,3,3c-0.7,1.5-0.7,3.5-2.4,4.4c-0.4,0.4-0.4,0.9-0.4,1.3l0.4,0.4c1.1-0.7,3-0.7,3-2.6
	c0.4-0.7,0.9-1.5,1.5-2.2c0.9-0.2,1.5,0.2,2,0.9c-0.2,1.3-1.1,2-2.2,2.4c-0.2,0.2,0,0.4,0,0.7c0.4,0.7,1.3,0.4,1.7,0.2
	c1.3-0.9,2-2.6,3.3-3c0.2,0.9-1.7,1.1-0.4,2c0.7-0.2,1.7,0,2.2-0.9c-0.7-1.3,2-2,0.4-3.3c0-1.3,1.3-1.7,1.3-3
	c-0.4-1.3-2-1.3-2.4-2.6C444.2,253.3,445.1,253.3,445.6,253.8L445.6,253.8z"/>
<path fill="#637073" d="M385.7,268.8c0.9,0,1.5-0.7,1.5-1.5s-0.7-1.5-1.5-1.5c-0.9,0-1.5,0.7-1.5,1.5
	C383.9,268.1,384.8,268.8,385.7,268.8L385.7,268.8z"/>
<path fill="#637073" d="M301,318.2c0.9,0,1.5-0.7,1.5-1.5c0-0.9-0.7-1.5-1.5-1.5c-0.9,0-1.5,0.7-1.5,1.5
	C299.4,317.3,300.1,318.2,301,318.2L301,318.2z"/>
<path fill="#637073" d="M355,330.2L355,330.2L355,330.2l-0.2-0.2l0,0C354.7,330.2,354.7,330.2,355,330.2L355,330.2h-0.4l0,0l0,0V330
	l0,0l0,0h0.2C354.7,329.8,354.7,329.8,355,330.2C354.7,330,354.7,330,355,330.2L355,330.2L355,330.2L355,330.2L355,330.2z
	 M354.7,330L354.7,330C354.7,330,354.7,329.8,354.7,330C354.7,329.8,354.7,329.8,354.7,330L354.7,330L354.7,330z"/>
<path fill="#637073" d="M355.2,330C355.2,330,355,329.8,355.2,330C355,329.8,355,329.8,355.2,330C355,330,355,330,355.2,330
	L355.2,330L355.2,330C355.2,330.2,355.2,330.2,355.2,330C355,330.2,355,330.2,355.2,330C355,330.2,355,330.2,355.2,330l-0.2,0.2l0,0
	L355.2,330C355,330,355,330.2,355.2,330C355,330.2,355.2,330,355.2,330S355,330,355.2,330L355.2,330C355,330,355,330,355.2,330
	C355,330,355,329.8,355.2,330C355,329.8,355.2,329.8,355.2,330C355.2,329.8,355.2,329.8,355.2,330L355.2,330L355.2,330L355.2,330
	L355.2,330z"/>
<path fill="#637073" d="M355.6,329.8L355.6,329.8l-0.2,0.2l0,0v-0.2l0,0v0.2l0,0v-0.2l0,0l0,0H355.6L355.6,329.8L355.6,329.8
	L355.6,329.8v0.2l0,0V329.8L355.6,329.8L355.6,329.8L355.6,329.8L355.6,329.8L355.6,329.8C355.4,329.8,355.4,329.8,355.6,329.8
	C355.4,330,355.4,330,355.6,329.8L355.6,329.8L355.6,329.8L355.6,329.8C355.6,330,355.6,330,355.6,329.8L355.6,329.8L355.6,329.8
	L355.6,329.8L355.6,329.8L355.6,329.8z"/>
<path fill="#637073" d="M355.6,330.2C355.6,330.2,355.8,330.2,355.6,330.2C355.8,330,355.8,330,355.6,330.2
	C355.8,330,355.8,330,355.6,330.2C355.6,330,355.6,330,355.6,330.2c0-0.2,0-0.2,0.2-0.2c0,0,0.2,0,0.2,0.2
	C355.8,330,355.8,330.2,355.6,330.2L355.6,330.2L355.6,330.2z M355.8,330L355.8,330L355.8,330C355.8,330,355.8,329.8,355.8,330
	C355.8,329.8,355.8,330,355.8,330L355.8,330L355.8,330z"/>
<path fill="#637073" d="M356.1,330L356.1,330L356.1,330C356.1,330.2,356.1,330.2,356.1,330C355.8,330.2,355.8,330.2,356.1,330
	C355.8,330.2,355.8,330,356.1,330C356.1,330,356.1,330.2,356.1,330C356.1,330.2,356.1,330.2,356.1,330L356.1,330L356.1,330
	L356.1,330L356.1,330L356.1,330L356.1,330L356.1,330L356.1,330z"/>
<path fill="#637073" d="M432.3,280.5l0.7-0.4C432.7,280.1,432.5,280.3,432.3,280.5L432.3,280.5z"/>
<path fill="#637073" d="M387,343.3l-5.7,0.7v-0.4c1.1-0.2,1.3-0.2,1.3-0.7c0-0.4-0.7-1.5-1.1-2l-3.9,0.4c-0.4,1.1-0.7,1.7-0.7,2
	c0,0.7,0.9,0.4,1.5,0.4v0.4l-3.5,0.4v-0.4c0.9-0.2,1.1-0.7,1.5-2l3-8.5h0.4l4.8,7.2c0.9,1.5,1.3,2,2.2,1.7L387,343.3L387,343.3z
	 M381.3,340.4l-2.2-3.3l-1.3,3.7L381.3,340.4L381.3,340.4z"/>
<g>
	<path fill="#637073" d="M513.1,314.1c-0.4,0.2-1.3,0.9-1.3,1.5s0.7,1.5,1.3,1.7c0-0.2,0.4-0.2,0.7-0.2c0.9-0.4,1.5-1.3,1.3-2.2
		C514.6,314.3,513.9,314.1,513.1,314.1z"/>
	<path fill="#637073" d="M563.8,280.3c-1.3-2.6-3.7-3.5-6.5-3.5c-2.2,0.2-3.9,1.7-4.8,3.5c-0.4,2,0.2,3.7,1.7,4.8
		c0.7,0.2,1.3,0.2,1.7-0.4c0.4-1.1-0.9-1.1-0.9-2c-0.4-1.3,0-2.2,0.9-3c0.9-0.9,2.4-0.4,3.3-0.4c1.1,0.7,2.2,1.3,2.6,2.6
		c0.4,1.5,0.4,3,0,4.6c-0.9,2.2-3,3.9-5.4,4.4c-7.2,1.1-85.8,0.7-85.8,0.7c-9.1,0.9-19.8-1.7-27.7,3c-3.7,1.7-5.4,5.7-6.3,9.4
		c-2.4,2.2-4.8,4.6-6.8,7l-0.2-0.2c0.4-2.2,1.3-3.9,1.7-6.1c1.3-1.7,1.3-4.1,2.2-6.1c3.3-5.2,6.3-10.7,11.5-14.4
		c2.2-2.8,5.9-2.4,9.1-2.4c3.5,1.7,7.6,2.2,12,1.7c0.2-0.2,0.2-0.4,0.2-0.7c-1.3-1.1-3.3-1.5-4.6-2.6c-3.5-1.7-6.8,0.4-10.5,0.2
		c-0.2-0.2-0.4-0.2-0.2-0.4c3.3-2.4,7-4.1,10.7-5.7c3-1.7,6.3-2.6,9.4-3.7c1.3,0,2.6-1.1,3.7-0.4c-2.4,4.8-4.8,9.8-8.5,13.9
		c-1.3,0-2.2,1.3-3.3,1.5c-0.7,0.9-2.2,0.2-2.8,0.7c-2.6,1.1-6.5,0.4-8.3,3c0.2,0.2,0.4,0.4,0.7,0.4c5.2,0,11.1,0.4,16.8,0.2
		c0.7-0.2,1.3-0.9,1.3-1.7c-0.9-1.5,0.2-2.8,0.9-3.9c0.4-2.2,1.7-3.5,2.4-5.4c1.6-3.3,3.7-6.5,5.5-10c0.2,0.1,0.4,0.4,0.6,0.2
		c3.9-1.3,8.7,0,13.3-0.2l0.7,0.4l0.5,0.1c0.3,3.9-0.5,8-0.9,11.8c-1.5,5-7.2,4.6-11.3,5.7c-1.1,0.7-3,0.4-3,2.2
		c5,1.1,10.9,0.4,16.3,0.4c0.9-0.4,1.1-1.1,1.5-2c0.2-1.1,1.3-2.2,0.9-3.3c-0.9-1.3,0-3-0.4-4.8c0.2-0.4,0.2-1.1,0-1.7
		c0.6-2.4,0.5-5.1,0.9-7.3c1.3,0.4,2,1.9,3.6,2.1c0.9-1.3-0.9-1.7-1.3-2.6c2-0.4,4.1,0,5.9,0.9l-0.9,0.9c-0.4,0.9,0.2,1.7,1.1,2
		c0.7,0.2,1.1-0.2,1.5-0.4c1.1-0.9,0-1.5,0.2-2.2c6.3,1.1,12.6,2.6,18.5,5.2c1.7,0.4,3.3,1.7,5,1.7c-1.7-1.7-4.4-2.6-6.5-3.5
		c-1.5-0.9-3.5-0.9-4.6-2.2c0.2-0.4,0.9-0.2,1.1-0.7c2.8-0.4,5.4-2.6,7.6-4.8c0.2-0.4,1.1-0.4,1.1-1.1c-0.9-0.9-2.2,0.2-3,0.2
		c-3.7,0.7-5.2,5-8.7,5.7c-4.4-1.1-8.9-2.2-13.3-3.3c-2.2-0.4-4.6-0.4-6.5-1.3l-0.6-0.1c0-1.7,0.4-3.2,0.6-4.7
		c0.2-0.4,0.4-1.1,0.4-1.7c0.1-0.1,0.2-0.3,0.4-0.4l3.3-1.5c1.9-0.3,4,0.1,5.9,0.2c1.3,0.7,2.8,0.7,4.4,0.9c0.7-0.4,1.5-0.4,2.2-0.4
		c2.7-1.5,1-4.5,1.1-6.9l0.7-0.3c2.4-2.2,4.6-4.6,6.5-7.2c0-0.7-0.4-1.3-0.9-1.7c-0.7-0.2-1.3-0.2-1.7,0.4c-1.1,0.9,0,1.7,0,2.6
		c-1.1,1.3-2.6,2.6-3.9,3.5c-0.1,0-0.6,0.2-1.4,0.6l-0.3-0.8c-0.2-0.4-0.4-1.1-0.7-1.7c-0.4-0.7-0.9-1.7-1.3-2.4
		c-1.5-3.9-4.4-6.1-6.8-9.1c-4.4-5.7-11.3-8.9-18.3-11.3c-6.8-2.4-13.7,0.7-19.8,2.8c-2-0.4-2.8-2-3.3-3.7c-0.4-3.3,0.4-6.5,1.7-9.1
		c0.2-2.2,1.7-3.9,2.4-5.9c1.5-4.8,3.3-9.6,3.5-15c0.2-3.3-2.2-5.4-4.6-7c-1.7-0.4-3.5-0.4-4.8,0.9c-1.1,2.4-3.5,3.9-5.7,5
		c-0.2,1.5,1.7,0.4,2.2,1.1c2,0.4,4.1-0.2,5.7,0.9c0.2,3.5-1.7,6.3-3.7,8.9c-2.8,4.4-6.1,8.7-7.8,13.5l-0.4-0.4l0-3.3h-41.8
		c-1.4-1.2-2.9-3-5-3c-4.8-2-8.1,3-13.1,2.6c-0.7,0.4-0.4,0.9-0.9,1.3c-0.2,0.2-0.7,0-0.9,0c-0.2-2.2-0.9-3.9-1.3-6.1
		c-0.4-0.9-0.2-2.2-0.7-3c-2.8-7.6,6.8-1.7,8.7-6.3c1.7-3.9-3.3-4.4-4.6-7V191c-1.3-1.3-2.8-1.7-3.7-3.7c0.7-2.2,0.9-4.6,0.2-6.8
		c0-0.4-0.4-1.3-1.3-0.9c-1.7,2.2-2.8,4.1-4.4,6.3c-1.7-1.3-3.3-2.8-5-3.9c-1.3-0.2-2.4-1.5-3.9-0.9c-0.2,0.4,0,0.9,0.2,1.3
		c0,3.5,1.7,6.1,4.1,8.5l0.2,1.3c-1.5,3.5-1.1,7.6-1.5,11.5c-3.9,10-10.2,19.4-18.7,26.3c-5,5.7-10.9,10.9-11.5,18.5
		c-0.2,1.3,0.2,2.6-0.9,3.5c-2.8-1.1-5.7-2.4-8.1-4.4c-3.9-2.8-9.6-2.4-12.2-7.4c-1.1-2,0.2-3.9,1.3-5.4c2.8-2.8,2.6-7.8,0.9-11.1
		c-0.4,0-0.4,0.4-0.7,0.4c-0.2,5.2-4.4,8.7-2.8,14.4c0.4,1.7,1.3,2.6,1.7,4.4c-0.7-0.2-1.5-0.2-2-0.4c-2-0.2-3.7-1.1-5.9-0.9
		c-3.9,1.7-9.4-0.4-12.6,3.3c-0.4,0-1.3,0.2-1.1,0.9c2,0,3.7,0.4,5.7,0.4c3,0.4,5-2,7.2-3h0.4c0.9-0.9,2.4-0.4,3.5-0.4
		c5.4,0.7,9.6,3.3,14.2,5.9v0.4c-1.7,0.9-3.7,1.3-5.4,2.2c-2,1.5-4.1,3.5-4.8,5.9c-1.3,2.2,0.4,4.1,1.3,5.9c0,0.9,0.2,2,0.9,2.2
		c2.8-3,0.2-6.5,0.7-10c0.7-2.6,3-3.9,5.7-4.6c5-2.2,8.5,2,12.4,4.1c0,3.9,0.4,7.8-0.4,11.8c-1.3,0.4-2.8,0.7-4.1,0.7
		c-6.8,0.4-12.2,4.4-18.3,6.3c-2.8,0.9-6.1,0.9-8.7,2c2.2,0.7,4.4-0.2,6.8-0.2c8.5-1.3,15-7.8,24.2-6.5l0.2,0.2
		c-1.1,2.2-2.4,3.9-4.1,5.7c-0.2-0.9-0.4-1.7-1.3-2.2c-0.7-0.4-1.5,0-2,0.7c-0.2,0.4-0.2,0.9,0,1.3c0.4,0.9,1.1,0.9,2,1.3
		c-0.2,0.9-1.1,1.1-1.7,1.7c-2.4,4.1-7.4,2.4-10.2,5.2c-0.4,0.7-2,0.9-1.3,2c3.3,0.4,6.5-0.4,8.9-2.2c3.3-3.5,6.5-7,9.8-10.5
		c0.4,2.8-0.2,5.7-2,7.8c-0.9-0.4-1.3-1.1-2.4-1.3c-0.9,0.2-1.5,1.1-1.5,1.7c0.4,0.7,0.7,1.3,1.3,1.7c-2.8,2.2-6.8,2.2-10,3.3
		c-6.3,0.9-12.4,1.3-18.7,1.3c-3-0.2-6.5,0.9-9.4,0c-3.3,0.7-6.8-0.4-9.6,1.3c-0.4,0.4,0,0.9,0,1.3c3.9,2.6,9.4,0.4,13.9,1.3h34
		c2.6,0,5-0.2,7-1.3c4.4-2.6,6.8-7,9.1-11.5c0.9-1.5,1.5-3.5,1.7-5.2c0.9-3,3.5-5,6.5-5.2c0.4,4.6-0.4,9.1-1.5,13.3
		c-0.4,2.8-2.4,5.4-1.3,8.5c0.2,1.3,1.7,1.3,2.8,1.5c10.5-0.2,20.9-0.7,32,0.2c2,0.4,3.7,0.9,5.9,0.9c0.2-0.2,0.9-0.4,0.4-0.9
		c-0.2-0.9-0.9-2.2-2.2-2.4c-0.2-0.4-0.9-0.4-1.3-0.7c-5.4-3-12.2-1.5-18.7-1.3c-3.3,0.4-6.8,0.9-9.6-0.9c-1.3-1.5-0.4-6.5-0.4-6.5
		c0-2,4.8-15.7,5.4-16.8c0.2-1.3,0.7-2.6,0.4-3.9c0.7-1.7,0.4-3.9,0.4-5.9c0.4-2.8,1.7-5.4,2.6-8.1c0.4-1.3,0.9-2.6,1.5-3.9
		c0.4-1.7,0.7-3.3,1.7-4.6c2.8,1.7,5.7,1.7,7,5l0.4,2.9v15.6c0,4.8,2,8.7,4.8,10l10,6.4c0.2,3-1.7,5.6-0.9,8.8v0.2
		c-8.9-6.8-18.7-12.6-28.7-17.4l-0.9,2.2c2.6,0.7,9.1,4.8,9.1,4.8c3,1.1,5.9,3,8.7,4.6c11.8,6.5,19.6,17.4,24.8,29.4
		c0,0.9,0.9,2,0.4,3c-1.7-2.8-4.4-4.4-6.5-6.5c-0.7-4.1-3-8.1-6.5-9.6c-1.3-2-4.1-2.2-6.3-2.6l-31.4-0.2c-25.5-0.4-49,0.9-74.3,0.4
		c-3.5-0.4-7.8-1.5-8.9-5.2c-0.7-1.3-0.7-3.5,0-4.8c0.9-1.7,2.6-2.2,4.4-2.4c1.3,0.2,2.4,1.5,2.8,2.4c0,1.1-0.9,2.2-1.3,3
		c0,0.4,0.4,1.1,1.1,0.9c1.1-0.4,2-1.7,2.2-2.8c0-0.7,0.4-1.5-0.2-2c-0.4-1.7-2.4-3-4.1-3.5c-2.2-0.2-4.4,0.4-5.9,2
		c-2.2,1.7-2,4.8-1.3,7.4c1.3,3.9,5.4,6.5,9.4,7l84.1,0.4c8.3,0.4,17.4-0.9,25.7,0.7c3,0.9,6.3,3.3,7,6.5c0,0.2-0.4,0-0.7,0
		c-6.8-4.4-15.9-6.1-24.6-5c-3.5-0.2-6.5,1.1-9.6,2c-1.7,0.4-3.3-0.4-4.1-1.3c-3-2.8-8.5-2.6-12.6-1.5c0,0.2,0,0.4,0,0.7
		c4.1-0.4,6.8,3.3,10.5,3.7c0.9,0.2,1.5-0.9,2.4,0c-3.9,2-7.8,4.1-12,5.4c-1.3-0.2-2-1.5-3-2.2c-1.7-1.7-4.6-1.1-7-1.3
		c-0.9,0.2-1.5-0.4-2,0c0.7,1.3,2.2,2.2,3.7,2.8c2.2,0.9,4.6,0,6.8,1.3c-0.4,0.7-1.3,0.9-1.7,1.3c-4.1,1.5-7.4,5.2-12,5
		c-4.8,0.4-9.6-0.9-12.8-4.1c-1.3-3.5-5-5.2-8.7-5c-0.2,0.2-0.7,0.2-0.4,0.7c2,1.1,3.3,3.5,5.2,4.8c1.3,1.5,3.5,0,4.6,1.7
		c1.7,1.1,3.7,2.2,5.7,2.4c1.3,0.7,2.8,0.9,4.6,1.3l-0.7,0.4c-7.8,2.6-17,2.8-25.7,2.6c-2.6,0-5-0.9-7.6-0.9
		c0.4,0.4,1.3,0.9,2.2,1.3c-0.7,0.4-1.5,0.7-2.4,0.7c-1.1,0.2-2.2,0.4-3.3,0.9c-1.3,0-2.6,0.4-3.7,0.9c-1.5,1.5-3.3,3.3-5,3.9
		c0,0.4,0,0.9,0.4,0.9c1.7-0.7,3.7-0.2,5.4-0.9c2.8-0.2,4.6-3.5,6.8-4.8c2.4-2,5.9-1.5,8.7-1.1c1.7,0.4-0.2,1.1,0.4,2.2
		c0.7,0.7,1.3,1.3,2.2,1.1c0.2-0.2,0.4-0.4,0.7-0.4c0.4-0.7,0.4-1.5,0-2.2c1.3-0.9,2.8,0,4.1-0.4c3.3,0,6.5-0.9,9.8-0.9
		c0.4,0,1.1-0.7,1.7,0c-0.2,0.7-1.1,0.9-0.9,1.7c0.2,0.9,1.1,1.1,1.7,1.3c0.9-0.4,1.7-0.9,1.3-2.2c-0.2-0.7-0.9-0.7-1.3-0.9
		c1.7-0.9,3.9-1.1,5.7-2c1.3-0.2,2.6-0.7,3.7-1.3c1.1,0,2.2-1.1,3-0.7c-0.4,1.5-1.1,2.8-1.7,4.1c-1.3,4.6-2.4,10.7,0,15.2
		c0.2,0,0.4,0,0.4-0.2c-1.7-4.6-0.9-10,0.9-14.4c1.3-7.4,8.7-9.6,14.2-12.4l0.2,0.4c-1.5,3.9-3.7,7.4-3.3,12.2
		c0.2,0.9-0.4,1.5,0,2.2c1.5-0.9,2.4-2.6,3.3-3.9c0.7-3.9-1.7-8.7,2.4-11.8c7.2-2.8,13.7-6.5,22-6.5c0.2,0.2,0.9-0.2,0.9,0.4
		c-1.7,2-4.1,3.7-5,6.1c-2.8,3.9-2.6,10.5-1.5,15c0.9,2.6-1.5,4.1-2.6,6.3c-0.2,0.3-0.3,0.7-0.5,1.1c-0.1,0-0.1,0-0.2,0l-2.8,0.7
		c-0.2,0-0.7,0-0.9,0c-1.3-3.5,2.8-5.7,1.5-9.1c-1.1-2-3.3-3.9-5.9-3.5c-2.8-0.4-5.4,1.3-7,3.5c-2,4.4,0.4,8.9,1.3,13.1
		c-0.2,1.3,1.3,3,0,4.1c-2.8-2-6.3-3-9.8-2c-1.1,0.4-2.8-0.2-3.5,1.1c3.7,2,8.5,1.7,12.6,1.5c0.4-0.2,0.9-0.2,1.3,0
		c0.4,2.2-0.4,5.2,0.9,7.4c1.5,2.2,4.1,2.6,6.8,2.8c8.1-0.2,15-2.6,22.2-4.4c1.1,0,2-0.7,3.3-0.7c3.9-0.9,8.1-1.5,12.2-1.7
		c-1.7,2.4-2.8,5-3.7,7.8c-1.1,2.4,1.7,2.6,2.6,3.9c-2.6,0.9-4.6,2.6-7.2,3.7c-5.4-0.2-10.2,2-15.5,2.6c0,1.1,1.7,0.9,2,2
		c-0.2,0.9-1.1,0.9-1.7,1.3c0,0.4,0,0.7,0.4,0.7c0.4-0.7,1.7-0.2,2.2-0.9c1.7,0,3.3-0.4,4.8-0.7c1.5-0.7,3-0.7,4.4-1.7
		c1.7-0.4,2.8-1.7,4.8-2.2c2.6,0,5-0.9,7.4-1.1v0.4c-2,3.3-4.1,6.5-6.1,9.6c-0.4,0.7,0,1.3,0.7,1.3c1.3,0.4,2.4,0,3.3-0.4
		c1.7-3,3.5-6.1,5-9.4c0.7-3,2.8-4.6,5-6.5c0.4-0.2,0.9-0.7,1.3-0.2c-1.7,2-2.8,3.9-4.1,6.1c-0.7,2.4-0.9,5.7,1.3,7.6
		c1.1,0.9,2.6,0.7,3.9,0.7c3.3-1.7,7.6,1.1,10.2-2.2c1.5-0.2,1.7,1.5,2.6,2.4c1.5,0.4,3,2,4.6,0.9c0-0.9-1.1-1.7-1.7-2.6
		c-1.1-1.7-2.4-3.3-3.3-5c-0.4-1.3-1.3-2-1.3-3.3c1.5,0.4,2.8,1.5,4.6,1.7c1.5,0.7,3.3,0.4,4.6,1.3c1.1,1.5,2.8,2.4,4.4,3.3
		c2.2,1.1,4.6,1.3,6.8,2.2c0.9,0,2.2,0.9,2.8,0c-0.4-0.4-0.9-0.7-1.3-0.9c-0.2-1.1,1.5-0.4,2.2-1.3c-0.2-0.4-0.7-0.7-1.1-0.7
		c-1.3-0.7-4.4-0.9-5.2-1.3c-1.1-0.2-2-0.7-3-0.9c-5.2,0-8.1-4.8-12.2-6.5c0.9-0.9,2.4-1.5,3-2.8c0.9-1.3,1.1-3.3,0.2-4.6
		c-0.9-2.6-4.1-2.4-6.3-3.9l0.2-0.2c3.3-0.2,6.3,0.7,9.4,1.3c8.3,1.1,15.9,4.4,24.6,4.4c4.8,0,10.7,0.2,13.1-4.4
		c0.4-2.6,0.9-5.4,1.3-8.1c2.2-4.1,5-8.3,4.6-13.1c-1.1-2.6-3.3-4.6-5.9-5.4c-2.8-0.7-5.7-0.2-7.6,2c-2.7,2.3-1.3,5.9-0.9,8.9
		c-0.7-1.2-2-2.1-2.8-3.2c-3-4.1-1.7-10.7-3.9-15.5c-0.9-2.6-2.6-4.4-4.6-6.5l0.4-0.4c4.1,0,7.8,1.3,11.8,2.2
		c4.8,2.4,11.8,1.7,13.9,8.1c0.9,3.5,2.6,6.8,5,9.4l0.2-0.2c0.4-0.9,0.4-2.4,0-3.3c-0.4-4.4-4.4-5.4-6.3-9.1l0.2-0.4
		c2.2,0.7,4.1,1.1,6.3,2c7,2,11.8,8.7,12.6,15.7c0,5.7-1.1,10.2-3.3,14.8c-0.2,0.7-1.5,1.5-0.7,2.2c0.9-0.7,1.1-1.7,1.7-2.6
		c2.8-4.8,4.4-11.3,2.8-17.4c0-1.1-1.3-2-0.9-3c0.4,0.4,0.9,0.7,1.5,0.9c0.4-0.4,1.3-0.4,1.7-0.9c0-0.4,0.4-1.1,0-1.5
		c-0.4-0.9-1.7-0.9-2.6-0.7c-0.4,0.4-0.9,1.3-1.1,2c-0.9-1.5-1.7-3.5-3-4.6l0.2-0.2c3.9,1.3,7.4,3.3,11.3,4.4c0.9,0.4,1.7,0.9,3,0.9
		c3.3,1.3,7.2,1.7,10.7,2.6c2.6-0.2,4.8,0.9,7.4,0.4v-0.2c-0.9-1.3-3,0-4.1-0.9c-5.9-0.7-11.8-2.2-17-4.4c-0.2,0.2-0.4,0-0.9,0
		c-2.6-1.3-5.2-2.4-7.8-3.5c-0.9-0.2-1.7-0.9-2.6-1.1c-2-0.9-3.9-2-5.9-2.6c-5.4-2.8-11.8-4.4-17.6-6.5c-1.3-0.4-2.6-0.7-3.7-1.1
		c-2.2-0.7-4.4-1.1-6.5-1.7c-7.4-1.7-17.2-2-23.5,2c-1.1-0.4-1.7,1.3-2.2,0.2c1.7-4.8,7.2-6.3,11.8-6.5c34.6-0.4,67.1-0.7,101.3-1.1
		c3.9,0,7.8-1.3,10-5C564.7,286.2,564.9,282.7,563.8,280.3z M494.3,263.1l-0.2,2.8l0.1,0.7h-8.4c0-0.2-0.4-0.2-0.2-0.4
		c2.9-0.8,5.7-2.5,8.6-3.4L494.3,263.1z M482.6,263.8c0.7-1.5,1.7-3.3,2.6-4.8c0.7-0.7,1.1-1.5,1.5-2.4c0-0.9-0.4-1.3-0.9-1.7
		c0.7-0.7,1.5-0.4,2.4-0.7c2.2,1.3,4.4,3.5,4.8,5.7l0.3,0.7c-3.3,1.4-6.6,2.8-9.9,3.7l-1.3,0.2L482.6,263.8z M394.2,234.5
		c-0.4-0.7-0.7-1.4-0.7-1.4c-0.4-2-4.6-3.3-3.5-5.7c0.4-2,1.1-3.9,2.8-5c0.2,0.2,0.4,0.4,0.4,0.7l0.9-0.5V234.5z M393.3,361.3
		l-1.3-1.1c0.7-0.9,2-0.4,2.8-0.9c2.2-0.7,4.8-1.5,7.4-1.1C399.8,360.5,396.3,360.7,393.3,361.3z M447.3,360c2,0.9,6.3,1.7,9.1,2.2
		c-0.2,1.1-2.4,0-2.2,1.7c-2.6-1.1-5.9-1.5-7.8-3.7C446.9,360.2,446.9,360,447.3,360z M454.7,238.1c2.8,4.6,6.1,9.8,11.3,11.5
		c2.8,2.2,6.3,5,10,3c2-0.7,2.2,2.2,3,3.3c1.1,3.3-1.3,5.4-1.5,8.5l-1.2,2.6c0,0-0.1,0-0.1,0.1c-1.3,0.2-2.4,1.1-3.9,1.1
		c-11.3,4.4-22.9,8.9-31.8,17.9c0.4-1.1,0.9-2.4,0.9-3.7c-0.2-1.3,0-2.8-0.9-3.9c-0.2-0.4-0.9-2-0.7-2.4l-1.3,0.9
		c-0.9,2-1.5,5.4-0.7,7.4c0.2,1.5,1.5,3.5,0.4,4.8c-4.1,5-6.5,11.1-9.1,17c-1.1-0.2-1.5-1.1-2-2.2c2.8-3.7,5.2-7.8,6.1-12.6
		c0.7-0.4,0.2-1.5,0.9-2.2c-0.2-1.3,0.9-2.8,0-3.9c0.7-2-2.6-3.7-0.7-4.8l-1.5,0.9c-3.7,4.8,2,12.2-2.4,17v0.4
		c-1.3,1.5-1.7,3-3.5,4.1c-2.2-0.9-2.8-3.3-4.1-5c-2-1.7-2-5.7-0.9-8.1c0.8-2.4-0.2-4.5-0.8-6.5l1.6,1c0.4,0.7,1.3,0.9,2.2,0.9
		c0.7,0,1.3-0.2,2-0.7l23.5-14.8c2.8-1.3,4.8-5.4,4.8-10 M424.4,312.1c-0.7-1.1-0.7-2.4-1.3-3.5c-0.9-1.3,0.7-2,1.3-3
		c1.3,0.4,1.7,1.7,2.6,2.6c0.4,1.7-0.7,2.8-0.7,4.1c-0.4,1.1-1.1,2-0.9,3l-0.4,0.2C425.3,314.3,424,313.4,424.4,312.1z M399.8,268.1
		c-2.4-1.7-3.5-4.6-3.9-8.1v-11.3c1.9-1.6,1.3-4.7,1.3-6.8c0.3-1.9-0.5-3.1-1.3-4.5v-22.2c2.7,0.1,5.9,0.4,8.3,0.4
		c0.9,0.2,1.3,0.9,2.2,0.9l0.7-0.9l3.5-0.7h42.2v45.1c-0.2,3.5-1.5,6.3-3.9,8.1l-22.6,14.4H426c-0.4,0.4-1.1,0.7-1.7,0.7
		s-1.3-0.2-1.7-0.7L399.8,268.1z M421.4,303c-2.8-6.1-6.5-10.9-11.1-15.9c-0.2-0.9-0.9-1.5-0.4-2.4c1.7-1.5,2-4.6,1.1-6.5
		c-0.2-0.4-0.7-0.9-0.7-1.3l-0.7-0.6l9.7,6.2c-2.1,2.6-2.7,6.8-1.2,10c0.9,1.5,0.9,3.7,2.2,5c0.9,2.6,2.4,4.1,3.7,6.5
		c0.4,0.9-0.4,1.1-0.9,1.5C422.3,304.9,422.3,303.6,421.4,303z M383.9,312.1c0.4-1.7,0.7-3.7,1.7-5.4c0.4-1.3,1.7-2.4,2.4-3.3
		c1.5-1.5,3.5-2.6,5.4-3h0.2c0,0.2,0,0.2,0,0.2c-2.4,1.7-2.6,4.4-3.9,6.5c-1.5,2.2-2.2,5.2-0.9,7.6c0.4,1.1,0.2,2.8,1.5,3.7
		c1.1-1.5,1.3-3.5,1.7-5.2c-0.2-2.8-2-5.7-0.4-8.3c0.9-2.2,2.6-3,4.6-3.9c4.8-0.4,8.9,2,13.1,3.9c0.9,0.7,2.4,1.1,2.6,2.4
		c0,2.4-1.3,4.8-3.3,5.9c-2.4,1.3-5.7,1.5-7.8,0c-1.3-1.3-1.7-3.5-1.3-5.2c0.9-1.1,2.2-2,3.7-1.3c0.9,0.4,1.7,1.3,2.8,0.9
		c0.4-0.2,0.7-0.9,0.4-1.3c-0.9-0.4-1.3-1.7-2.6-2c-1.7-0.2-3.7-0.2-4.8,0.9c-1.7,1.5-2.6,3.9-2,6.1c0.7,2.8,2.6,4.8,5.4,5.7
		c3.9,0.9,8.1-0.2,10.7-3.7c1.1-1.1,1.3-2.4,2-3.7c4.1,2.6,7.2,7,8.9,11.5c0,0.6,0.1,1.3,0.1,1.9l-1.2-0.2
		c-9.9,0.4-19.6,0.8-28.9,2.8c-2-2.8-5.6-3.3-8.8-3.5C383.7,319.3,383.7,315.6,383.9,312.1z M384.4,324.8c0.2,0.9,0.9,1.5,1.7,1.7
		c0.7-0.9-0.4-1.7-0.7-2.6c1.3-0.9,2,0.9,3,1.3c1.1,0.3,2.1,0.7,3.2,1c-0.1,0-0.2,0-0.3,0.1c-2.2,0.7-4.6,0.9-6.8,1.7
		c-0.4-0.1-0.8,0-1.2,0.1C384,327.1,384.4,325.9,384.4,324.8z M366.3,323c0.2-1.5,0.7-3.3,2.2-4.4c2.2-1.1,5-0.9,6.8,0.2
		c0.7,0.4,1.1,0.9,1.3,1.7c0.4,1.5-0.2,3-1.3,3.9h-0.9c0-1.3,0-2.8,0.4-3.9c0-1.1-0.9-1.1-1.7-1.5c-1.5-0.4-2.8,0.2-3.9,0.9
		c-0.9,1.1-1.7,2.4-1.1,3.9c0.7,0.9,0,2.2,0.4,3.3l-0.2,0.4C367.4,326.3,366.1,325,366.3,323z M370.2,325.6c1.3,0.9,3,0.4,4.6,0.9
		c0.2,0.9,0.2,2.2-0.4,3c-1.5-0.4-3.3-0.2-4.1-1.5C370.6,327.1,370.2,326.3,370.2,325.6z M370,322.6c0.2-0.7,0-1.7,0.9-2
		c0.7-0.2,1.5-0.2,1.7,0.4c0,1.1-0.2,2.2-0.4,3C371.1,324.3,370.4,323.7,370,322.6z M410.5,350.7c-0.4-3,0.9-5.7,2.8-7.8
		c1.3-0.2,2.6-0.4,3.7,0.2c-2.2,0.7-5,1.1-5.7,3.9c0,1.1-0.2,1.7,0.2,2.6c0.9,1.7,3,0.9,4.4,2.2c0,0.4-0.4,0.9-0.9,1.1
		C413.8,352,412,351.8,410.5,350.7z M407.4,356.5c2.2-0.9,4.1-2.6,6.5-2C412.5,355.9,409.6,356.5,407.4,356.5z M415.7,357.4
		c-1.3,2.8-2.6,5.4-4.1,8.3c-0.2,0.4-0.9,0.4-1.3,0.7c0-1.3,1.3-2.2,1.7-3.3c1.7-2.4,2.4-4.8,4.4-7.2
		C416.6,356.3,415.7,356.8,415.7,357.4z M417.9,352.8h-0.2l0.2-0.4V352.8z M417,350c-1.5-0.2-2.8-0.7-4.1-1.1c-0.9-0.9,0-1.7,0-2.8
		c1.3-2,4.6-2.8,6.3-1.1C419,347,418.3,348.7,417,350z M419,350c0.2-1.1,0.9-2.6,1.3-3.7C420.3,347.6,419.6,349.1,419,350z
		 M419.9,343c-1.1-0.2-1.7-1.5-2.8-1.5c1.1-0.4,2.2-0.2,3.3,0C420.7,342,420.1,342.4,419.9,343z M420.9,349.6c0-0.4,0.2-0.9,0.2-1.3
		c0.4-0.4,0.9,0.4,1.1,0.7C422,349.4,421.6,349.8,420.9,349.6z M424.2,352.8c1.1-1.3,2.2,0.7,2.6,1.7c1.3,2,4.6,3.7,3.3,6.3
		c-1.7,1.5-4.1,0-6.1,1.3c-0.9,0-2.6,0.2-3-0.9C422,358.3,422.9,355.2,424.2,352.8z M423.6,349.4l0.4-0.4c0.4,0.2,0,0.4,0,0.4H423.6
		z M428.6,341.7c-0.2-0.9,0.9-0.2,1.1-0.4l2.6,0.2C431,341.3,429.2,344.6,428.6,341.7z M432.9,342.8c-1.1,0.4-1.7,1.5-2.8,1.7
		C430.5,343.7,431.8,342.8,432.9,342.8z M429.4,353.7c0,0.2,0,0.4-0.2,0.7l-2-1.5C428.3,352.4,429,352.8,429.4,353.7z M427,350.9
		c0.2-0.2,0.7-0.2,0.9,0H427z M426,349.6c0.4-0.4,0.9-1.3,1.3-1.3c0,0,0,0.2,0.2,0.2C427,348.9,426.6,349.4,426,349.6z M426,347
		c-0.9,0.4-2,1.1-2.8,0.4c-1.1-1.1-1.3-2-0.9-3.3c0.4-1.3,0.4-2.2,1.3-3.3c0.9,0,1.7,0,2.4,0.4C426.2,343,428.3,345.4,426,347z
		 M421.8,354.4l0.4-0.7c-0.7,2.2-1.7,4.4-2.8,6.3C418.8,357.9,420.9,356.3,421.8,354.4z M425.5,364.8c-1.7,0-4.1,1.1-5.7-0.4
		c0-0.7-0.7-1.1-0.7-1.7c1.3-0.4,2.6,1.1,3.9,0c2,0,4.1-0.2,6.1,0.2c0.9,0.2,2.4-1.5,2.6,0.2C431.2,365.9,427.7,364,425.5,364.8z
		 M430.5,352.2V352h0.2L430.5,352.2z M431.2,357.6c0,0.9,0.9,1.3,0.4,2C431.4,359.4,430.7,358.5,431.2,357.6z M433.6,362.9l-0.4,0.2
		c-0.4-0.4-0.2-1.3-0.2-1.7C433.4,361.8,433.8,362.2,433.6,362.9z M437.9,365c0,0.2-0.4,0.2-0.7,0c-2.6-3.3-3.7-6.8-5.4-10.5h0.4
		C434.2,358.1,435.8,361.8,437.9,365z M441,357c-0.2,0-0.2,0.2-0.2,0.4c-2.6,0-4.1-1.3-6.1-2.6v-0.4C437.1,354.4,439,355.9,441,357z
		 M438.8,345.4c1.1,0.2,1.1,1.3,1.3,2.2c0,2-1.1,3.5-2.8,4.4c-0.9,0.4-2.4,0.7-3.3,0.4c2.2,0,4.4-0.9,5.2-3L438.8,345.4z M436.8,345
		c0.4,1.3,1.3,2.4,0.9,3.9c-0.9,1.7-2.6,1.7-4.1,2c-0.9,0-1.3-0.2-2-0.7c0-0.4,0-0.7-0.4-0.9c0.2-1.1-2-2.2-0.4-3.3
		C432.1,345,435.5,342,436.8,345z M480.8,338.7c-0.7,0.9,0,2.2-0.9,3c0,1.5-1.3,2.4-2.4,3c-10.2,2.2-20.5-1.3-30.3-3
		c-13.9-3-30.1-3.9-44.2-0.7c-6.8,1.3-13.1,2.8-19.6,4.6c-3.9,0.4-8.3,1.1-12.2,0c-3-1.5-1.7-5.4-2.8-8.3c0.2-2.2-0.7-3.9-0.7-6.1
		c-0.2-0.7-0.4-1.5-0.4-2.2c1.3,0.2,2.6,1.1,3.9,1.5c7.2,1.3,13.7-0.9,20.5-2.2c6.5-1.3,13.1-2.6,20-3c4.2,0,8.3-0.1,12.4,0
		c0,0,0,0,0,0l3,0.2c0,0,0-0.1,0-0.1c2.6,0.1,5.1,0.4,7.6,0.8c2.4,0,4.6,0.7,6.8,0.9c4.8,0.7,9.4,2,14.2,2.2
		c0.9,0.2,1.7,0.2,2.6,0.4c7.8,1.3,16.6,3.5,24,0C482.6,332.8,481.3,335.6,480.8,338.7z M478.4,328c0,1.3-1.3,1.1-2,1.5h-2.2
		c-0.4-0.7-0.2-1.7-0.2-2.4C475.6,327.6,477.1,327.6,478.4,328z M477.3,325.8c0.9-0.9-0.2-6.5,2.4-2.8c0,0.7,0,1.7-0.7,2.2
		C478.9,325.6,478,326.3,477.3,325.8z M475.6,318c1.3-0.7,3.7-0.7,5,0.2c1.1,0.2,2.4,0.9,2.8,1.7c1.5,1.3,1.3,3.5,0.9,5
		c-0.9,1.5-2,2.6-3.7,3c0-2.2,2-3.5,1.3-5.9c-1.1-1.7-3.3-2.2-5.4-1.7c-0.9,0.4-0.4,1.3-0.7,2.2l-0.4,2.8c-1.7,0-1.7-1.5-2.4-2.8
		C473,320.8,473.9,318.9,475.6,318z M468.9,326.9c0.5,0.9,1.1,1.9,1.9,2.7c-3.6-0.3-7.2-0.9-10.7-1.4c0.7-0.1,1.3-0.4,1.7-0.6
		c1.7-0.7,2.6-2.6,3.7-3.7c0.2,0,0,0.4,0.2,0.4c0,0.9-0.4,2.2,0.4,2.6c0.4-1.3,0.4-3,0.9-4.4C468.2,323.9,468.4,325.4,468.9,326.9z
		 M453.2,301.7c1.7,0.4,3.3,1.5,4.6,2.8c3.9,4.1-0.9,10,2,14.4c1.1-0.2,1.1-1.5,1.5-2.4c1.3-3-0.4-6.5-1.1-9.6
		c-1.1-2-1.7-3.5-3.3-5.2c0.4-0.2,0.7-0.2,1.1-0.2c1.7,1.3,3.7,2.6,5.2,4.6c2.6,4.1,3.7,8.9,3.3,14.4c-0.7,2.6-3.5,3.9-5.7,4.8
		c-0.8,0.6-1.9,1.7-2.4,2.7c-7.8-1.4-15.4-3-23.3-3.8c-2.5-0.4-5.1-0.4-7.6-0.8c1.1-5.6,4.6-10.4,8.9-14.3c1.5-0.9,1.1,1.1,1.5,1.7
		c1.3,3.3,4.4,5.7,7.6,6.5c3.7,0.7,7.2-0.2,9.4-3c1.1-2.2,2.6-5.2,0.7-7.4c-1.3-1.5-2.8-2.2-4.8-2.2c-2.2,0-3.7,1.5-4.8,3.3
		c0,0.7,0,1.5,0.4,1.7c0.4,0,1.1,0,1.3-0.4c0.2-1.3,1.3-2,2.4-2.6c0.9-0.4,2,0,2.8,0.4c0.9,0.9,1.1,2.2,1.3,3.5
		c-0.2,1.7-1.3,3.5-2.8,4.1c-2.6,1.3-6.1,0.7-8.3-0.9c-1.1-1.1-1.7-2.4-2.4-3.9c-0.2-1.3-0.7-2.6,0-3.9
		C444.5,303.8,448.6,302.1,453.2,301.7z"/>
</g>
</svg>
