<?xml version="1.0" encoding="utf-8"?>
<!-- Generator: Adobe Illustrator 18.1.1, SVG Export Plug-In . SVG Version: 6.00 Build 0)  -->
<svg version="1.1" id="Layer_1" xmlns="http://www.w3.org/2000/svg" xmlns:xlink="http://www.w3.org/1999/xlink" x="0px" y="0px"
	 viewBox="123.3 0 595.3 595.3" enable-background="new 123.3 0 595.3 595.3" xml:space="preserve">
<g>
	<circle fill="#637073" cx="420.9" cy="297.6" r="297.6"/>
</g>
<g>
	<g>
		<path fill="#FFFFFF" d="M256.1,453.2c-27,0-47.2-20.9-47.2-47.4v-0.2c0-26.2,19.8-47.6,48-47.6c17.4,0,27.7,5.8,36.3,14.3
			l-12.9,14.8c-7.1-6.4-14.4-10.4-23.6-10.4c-15.5,0-26.7,12.9-26.7,28.7v0.2c0,15.8,10.9,29,26.7,29c10.5,0,16.9-4.3,24.2-10.8
			l12.9,13C284.4,446.9,273.8,453.2,256.1,453.2z"/>
		<path fill="#FFFFFF" d="M346.1,453c-13.9,0-28.1-4.8-39.1-14.7l11.9-14.4c8.3,6.8,16.9,11.2,27.5,11.2c8.3,0,13.2-3.3,13.2-8.6
			v-0.2c0-5.2-3.1-7.7-18.5-11.7c-18.5-4.7-30.5-9.9-30.5-28.2v-0.2c0-16.7,13.5-27.7,32.2-27.7c13.5,0,24.9,4.3,34.2,11.7
			l-10.5,15.3c-8.2-5.6-16.2-9.1-23.9-9.1c-7.7,0-11.8,3.6-11.8,8.1v0.3c0,6.1,3.9,8,19.9,12.1c18.6,4.8,29.2,11.6,29.2,27.6v0.2
			C380,442.8,366,453,346.1,453z"/>
		<path fill="#FFFFFF" d="M402.3,451.6v-47.4v-44.8h20.2v44.8v47.4H402.3z"/>
		<path fill="#FFFFFF" d="M504.4,451.6l-19.8-29.4h-15.9v29.4h-20.2v-92h42.1c21.7,0,34.7,11.4,34.7,30.4v0.2
			c0,14.8-8,24.2-19.8,28.5l22.4,32.9L504.4,451.6L504.4,451.6z M504.8,391c0-8.6-6.1-13.1-15.9-13.1h-20.1v26.5h20.5
			c9.9,0,15.5-5.3,15.5-13L504.8,391L504.8,391z"/>
		<path fill="#FFFFFF" d="M588.4,453.2c-28.4,0-48.8-21.2-48.8-47.4v-0.2c0-26.2,20.7-47.6,49-47.6c28.4,0,48.8,21.2,48.8,47.4v0.2
			C637.4,431.8,616.8,453.2,588.4,453.2z M616.2,405.6c0-15.8-11.6-29-27.9-29c-16.3,0-27.6,12.9-27.6,28.7v0.2
			c0,15.8,11.6,29,27.8,29s27.6-12.9,27.6-28.7v-0.2H616.2z"/>
	</g>
	<g>
		<path fill="#FFFFFF" d="M512.1,312.6c0,8.8-7.2,15.9-15.9,15.9c-8.8,0-15.9-7.2-15.9-15.9c0-8.8,7.2-15.9,15.9-15.9
			C504.9,296.6,512.1,303.7,512.1,312.6z"/>
		<path fill="#FFFFFF" d="M446.6,112.3c-8.2,0-14.8,6.6-14.8,14.8v126.4c0,8.2,6.6,14.8,14.8,14.8c8.1,0,14.7-6.6,14.7-14.8V127
			C461.5,119,454.8,112.3,446.6,112.3z"/>
		<path fill="#FFFFFF" d="M347.8,98.2c-8.2,0-14.8,6.6-14.8,14.8v112.2c0,8.2,6.6,14.8,14.8,14.8s14.8-6.6,14.8-14.8V113
			C362.6,104.8,356,98.2,347.8,98.2z"/>
		<path fill="#FFFFFF" d="M545.6,140.6c-8.2,0-14.8,6.6-14.8,14.8v83.8c0,8.2,6.6,14.7,14.8,14.7c8.2,0,14.7-6.6,14.7-14.7v-83.8
			C560.3,147.2,553.7,140.6,545.6,140.6z"/>
		<path fill="#FFFFFF" d="M298.3,140.6c-8.2,0-14.8,6.6-14.8,14.8v83.8c0,8.2,6.6,14.7,14.8,14.7s14.7-6.6,14.7-14.7v-83.8
			C313.1,147.2,306.5,140.6,298.3,140.6z"/>
		<path fill="#FFFFFF" d="M496.1,69.8c-8.2,0-14.8,6.6-14.8,14.8v183.1c0,8.2,6.6,14.8,14.8,14.8s14.7-6.6,14.7-14.8V84.6
			C510.8,76.4,504.3,69.8,496.1,69.8z"/>
		<path fill="#FFFFFF" d="M397.3,69.8c-8.2,0-14.8,6.6-14.8,14.8V211c0,8.2,6.6,14.8,14.8,14.8c8.1,0,14.7-6.6,14.7-14.8V84.6
			C412,76.4,405.3,69.8,397.3,69.8z"/>
	</g>
</g>
</svg>
