<?xml version="1.0" encoding="utf-8"?>
<!-- Generator: Adobe Illustrator 18.1.1, SVG Export Plug-In . SVG Version: 6.00 Build 0)  -->
<svg version="1.1" id="Layer_1" xmlns="http://www.w3.org/2000/svg" xmlns:xlink="http://www.w3.org/1999/xlink" x="0px" y="0px"
	 viewBox="123.3 179 595.3 238.7" enable-background="new 123.3 179 595.3 238.7" xml:space="preserve">
<path fill="#9D9D9D" d="M230.5,295.3c0-46.6,22.7-86.9,90.4-86.9C320.8,255.1,290.1,295.3,230.5,295.3"/>
<path fill="#9D9D9D" d="M338.8,417.6c12.7,0,22.4-1.8,32.4-5.5c0-36.9-22-63.2-60.8-82.2c-29.7-14.9-66.3-22.6-99.7-22.6
	c14.6-43.9,4-98.5-10.2-128.4c-15.7,31.4-25.5,85.1-10.4,128.8c-29.6,2.2-53.1,15.1-63.1,32.1c-0.8,1.3-2.3,4.1-1.4,4.5
	c0.7,0.4,1.9-0.8,2.6-1.4c10.7-9.9,24.9-14.7,38.5-14.7c31.5,0,53.7,26.1,69.4,41.8C269.8,403.8,302.8,417.7,338.8,417.6"/>
<g>
	<path fill="#637073" d="M468.8,244.5l-16.4,8.4c-0.8,0.4-1.6,1-2.5,1c-0.6,0-1.2-0.4-1.6-1.4c-3.7-8.8-9-12.1-14.6-12.1h-13.5
		c-8,0-14.8,6.8-14.8,14.8v60.7c0,8,6.8,14.8,14.8,14.8h10c8.2,0,14.6-6.6,14.6-14.8v-9.6c0-1.4-0.6-2-2-2h-19.3c-1.4,0-2-0.6-2-2
		v-17.4c0-1.4,0.6-2,2-2h42.8c1.4,0,2,0.6,2,2v31.2c0,21.3-15,36.3-38.1,36.3h-10c-23.4,0-38.1-15-38.1-36.3v-60.7
		c0-21.3,14.8-36.3,38.1-36.3h13.5c17,0,26.2,7,32.4,16.6c1.8,3.1,3.9,6.4,3.9,7.6C470,243.7,469.6,244.1,468.8,244.5z"/>
	<path fill="#637073" d="M534,350.1h-46.1c-1.4,0-2-0.6-2-2V223c0-1.4,0.6-2,2-2H534c23.4,0,38.1,15,38.1,38.1v2
		c0,7.6-4.9,16.4-10.9,22.1c-0.6,0.4-0.8,1-0.8,1.4c0,0.4,0.2,1,0.8,1.4c5.9,5.7,10.9,15.6,10.9,23.2v3.1
		C572.1,335.5,557.3,350.1,534,350.1z M548.7,257.2c0-8-6.8-14.8-14.8-14.8h-22.5c-1.4,0-2,0.6-2,2v27.3c0,1.4,0.6,2,2,2H534
		c8,0,14.8-6.8,14.8-14.8V257.2z M548.7,309.9c0-8.2-6.6-14.6-14.8-14.6h-22.5c-1.4,0-2,0.6-2,2v29.1c0,1.4,0.6,2,2,2H534
		c8,0,14.8-6.4,14.8-14.8V309.9z"/>
	<path fill="#637073" d="M613.1,350.1h-19.5c-1.4,0-2-0.6-2-2V223c0-1.4,0.6-2,2-2h19.5c1.4,0,2,0.6,2,2v125
		C615.1,349.5,614.5,350.1,613.1,350.1z"/>
	<path fill="#637073" d="M715.4,242.5h-48.8c-1.4,0-2,0.6-2,2v27.3c0,1.4,0.6,2,2,2h40c1.4,0,2,0.6,2,2v17.4c0,1.4-0.6,2-2,2h-40
		c-1.4,0-2,0.6-2,2V348c0,1.4-0.6,2-2,2H643c-1.4,0-2-0.6-2-2V223c0-1.4,0.6-2,2-2h72.4c1.4,0,2,0.6,2,2v17.4
		C717.4,241.9,716.8,242.5,715.4,242.5z"/>
</g>
</svg>
